solid OpenSCAD_Model
  facet normal -0 0 1
    outer loop
      vertex -14 -10 4
      vertex -10 -15 4
      vertex -10 -10 4
    endloop
  endfacet
  facet normal 0 0 1
    outer loop
      vertex -11 -19 4
      vertex -14 -10 4
      vertex -11 -26 4
    endloop
  endfacet
  facet normal 0 0 1
    outer loop
      vertex -10 -15 4
      vertex -14 -10 4
      vertex -11 -19 4
    endloop
  endfacet
  facet normal -0 0 1
    outer loop
      vertex -14 50 4
      vertex -10 30 4
      vertex -10 50 4
    endloop
  endfacet
  facet normal 0 0 1
    outer loop
      vertex -14 10 4
      vertex -11 26 4
      vertex -14 50 4
    endloop
  endfacet
  facet normal 0 0 1
    outer loop
      vertex -10 30 4
      vertex -14 50 4
      vertex -11 26 4
    endloop
  endfacet
  facet normal -0 0 1
    outer loop
      vertex -3 -26 4
      vertex 2 -30 4
      vertex 3 -26 4
    endloop
  endfacet
  facet normal 0 0 1
    outer loop
      vertex -5 -26 4
      vertex -3 -26 4
      vertex -5 -19 4
    endloop
  endfacet
  facet normal -0 0 1
    outer loop
      vertex -5 -26 4
      vertex 2 -30 4
      vertex -3 -26 4
    endloop
  endfacet
  facet normal 0 0 1
    outer loop
      vertex -5 -26 4
      vertex -10 -30 4
      vertex 2 -30 4
    endloop
  endfacet
  facet normal -0 0 1
    outer loop
      vertex -11 -26 4
      vertex -10 -30 4
      vertex -5 -26 4
    endloop
  endfacet
  facet normal 0 0 1
    outer loop
      vertex -14 -50 4
      vertex -10 -30 4
      vertex -11 -26 4
    endloop
  endfacet
  facet normal 0 0 1
    outer loop
      vertex -14 -50 4
      vertex -11 -26 4
      vertex -14 -10 4
    endloop
  endfacet
  facet normal 0 0 1
    outer loop
      vertex -10 -30 4
      vertex -14 -50 4
      vertex -10 -50 4
    endloop
  endfacet
  facet normal 0 0 1
    outer loop
      vertex 3 19 4
      vertex 2 15 4
      vertex 3 -19 4
    endloop
  endfacet
  facet normal -0 0 1
    outer loop
      vertex -3 19 4
      vertex 2 15 4
      vertex 3 19 4
    endloop
  endfacet
  facet normal 0 0 1
    outer loop
      vertex -5 19 4
      vertex -3 19 4
      vertex -5 26 4
    endloop
  endfacet
  facet normal -0 0 1
    outer loop
      vertex -5 19 4
      vertex 2 15 4
      vertex -3 19 4
    endloop
  endfacet
  facet normal 0 0 1
    outer loop
      vertex -5 19 4
      vertex -10 15 4
      vertex 2 15 4
    endloop
  endfacet
  facet normal -0 0 1
    outer loop
      vertex -11 19 4
      vertex -10 15 4
      vertex -5 19 4
    endloop
  endfacet
  facet normal 0 0 1
    outer loop
      vertex -14 10 4
      vertex -10 15 4
      vertex -11 19 4
    endloop
  endfacet
  facet normal 0 0 1
    outer loop
      vertex -10 15 4
      vertex -14 10 4
      vertex -10 10 4
    endloop
  endfacet
  facet normal 0 0 1
    outer loop
      vertex -11 26 4
      vertex -14 10 4
      vertex -11 19 4
    endloop
  endfacet
  facet normal 0 0 1
    outer loop
      vertex 10 50 4
      vertex 6 45 4
      vertex 10 45 4
    endloop
  endfacet
  facet normal 0 0 1
    outer loop
      vertex 3 19 4
      vertex 6 45 4
      vertex 3 26 4
    endloop
  endfacet
  facet normal -0 0 1
    outer loop
      vertex 2 50 4
      vertex 6 45 4
      vertex 10 50 4
    endloop
  endfacet
  facet normal 0 0 1
    outer loop
      vertex 2 30 4
      vertex 6 45 4
      vertex 2 50 4
    endloop
  endfacet
  facet normal 0 0 1
    outer loop
      vertex 6 45 4
      vertex 2 30 4
      vertex 3 26 4
    endloop
  endfacet
  facet normal 0 0 1
    outer loop
      vertex 2 30 4
      vertex -3 26 4
      vertex 3 26 4
    endloop
  endfacet
  facet normal 0 0 1
    outer loop
      vertex -3 26 4
      vertex -5 26 4
      vertex -3 19 4
    endloop
  endfacet
  facet normal 0 0 1
    outer loop
      vertex 2 30 4
      vertex -5 26 4
      vertex -3 26 4
    endloop
  endfacet
  facet normal -0 0 1
    outer loop
      vertex -10 30 4
      vertex -5 26 4
      vertex 2 30 4
    endloop
  endfacet
  facet normal 0 0 1
    outer loop
      vertex -5 26 4
      vertex -10 30 4
      vertex -11 26 4
    endloop
  endfacet
  facet normal -0 0 1
    outer loop
      vertex 6 -45 4
      vertex 10 -50 4
      vertex 10 -45 4
    endloop
  endfacet
  facet normal 0 0 1
    outer loop
      vertex 6 45 4
      vertex 3 19 4
      vertex 6 -45 4
    endloop
  endfacet
  facet normal -0 0 1
    outer loop
      vertex 3 -19 4
      vertex 6 -45 4
      vertex 3 19 4
    endloop
  endfacet
  facet normal -0 0 1
    outer loop
      vertex 3 -26 4
      vertex 6 -45 4
      vertex 3 -19 4
    endloop
  endfacet
  facet normal -0 0 1
    outer loop
      vertex 2 -30 4
      vertex 6 -45 4
      vertex 3 -26 4
    endloop
  endfacet
  facet normal 0 0 1
    outer loop
      vertex 6 -45 4
      vertex 2 -50 4
      vertex 10 -50 4
    endloop
  endfacet
  facet normal 0 0 1
    outer loop
      vertex 2 -50 4
      vertex 6 -45 4
      vertex 2 -30 4
    endloop
  endfacet
  facet normal -0 0 1
    outer loop
      vertex 2 -15 4
      vertex 3 -19 4
      vertex 2 15 4
    endloop
  endfacet
  facet normal 0 0 1
    outer loop
      vertex 2 -15 4
      vertex -3 -19 4
      vertex 3 -19 4
    endloop
  endfacet
  facet normal 0 0 1
    outer loop
      vertex -3 -19 4
      vertex -5 -19 4
      vertex -3 -26 4
    endloop
  endfacet
  facet normal 0 0 1
    outer loop
      vertex 2 -15 4
      vertex -5 -19 4
      vertex -3 -19 4
    endloop
  endfacet
  facet normal -0 0 1
    outer loop
      vertex -10 -15 4
      vertex -5 -19 4
      vertex 2 -15 4
    endloop
  endfacet
  facet normal 0 0 1
    outer loop
      vertex -5 -19 4
      vertex -10 -15 4
      vertex -11 -19 4
    endloop
  endfacet
  facet normal 0 0 -1
    outer loop
      vertex -14 10 0
      vertex -10 15 0
      vertex -10 10 0
    endloop
  endfacet
  facet normal -0 0 -1
    outer loop
      vertex -11 19 0
      vertex -14 10 0
      vertex -11 26 0
    endloop
  endfacet
  facet normal -0 0 -1
    outer loop
      vertex -10 15 0
      vertex -14 10 0
      vertex -11 19 0
    endloop
  endfacet
  facet normal 0 0 -1
    outer loop
      vertex -14 -50 0
      vertex -10 -30 0
      vertex -10 -50 0
    endloop
  endfacet
  facet normal 0 0 -1
    outer loop
      vertex -14 -10 0
      vertex -11 -26 0
      vertex -14 -50 0
    endloop
  endfacet
  facet normal -0 0 -1
    outer loop
      vertex -10 -30 0
      vertex -14 -50 0
      vertex -11 -26 0
    endloop
  endfacet
  facet normal 0 0 -1
    outer loop
      vertex -3 26 0
      vertex 2 30 0
      vertex 3 26 0
    endloop
  endfacet
  facet normal 0 0 -1
    outer loop
      vertex -5 26 0
      vertex -3 26 0
      vertex -5 19 0
    endloop
  endfacet
  facet normal 0 0 -1
    outer loop
      vertex -5 26 0
      vertex 2 30 0
      vertex -3 26 0
    endloop
  endfacet
  facet normal 0 0 -1
    outer loop
      vertex -5 26 0
      vertex -10 30 0
      vertex 2 30 0
    endloop
  endfacet
  facet normal 0 0 -1
    outer loop
      vertex -11 26 0
      vertex -10 30 0
      vertex -5 26 0
    endloop
  endfacet
  facet normal 0 0 -1
    outer loop
      vertex -14 50 0
      vertex -10 30 0
      vertex -11 26 0
    endloop
  endfacet
  facet normal 0 0 -1
    outer loop
      vertex -14 50 0
      vertex -11 26 0
      vertex -14 10 0
    endloop
  endfacet
  facet normal 0 0 -1
    outer loop
      vertex -10 30 0
      vertex -14 50 0
      vertex -10 50 0
    endloop
  endfacet
  facet normal 0 0 -1
    outer loop
      vertex 3 -19 0
      vertex 2 -15 0
      vertex 3 19 0
    endloop
  endfacet
  facet normal 0 0 -1
    outer loop
      vertex -3 -19 0
      vertex 2 -15 0
      vertex 3 -19 0
    endloop
  endfacet
  facet normal 0 0 -1
    outer loop
      vertex -5 -19 0
      vertex -3 -19 0
      vertex -5 -26 0
    endloop
  endfacet
  facet normal 0 0 -1
    outer loop
      vertex -5 -19 0
      vertex 2 -15 0
      vertex -3 -19 0
    endloop
  endfacet
  facet normal 0 0 -1
    outer loop
      vertex -5 -19 0
      vertex -10 -15 0
      vertex 2 -15 0
    endloop
  endfacet
  facet normal 0 0 -1
    outer loop
      vertex -11 -19 0
      vertex -10 -15 0
      vertex -5 -19 0
    endloop
  endfacet
  facet normal 0 0 -1
    outer loop
      vertex -14 -10 0
      vertex -10 -15 0
      vertex -11 -19 0
    endloop
  endfacet
  facet normal 0 0 -1
    outer loop
      vertex -10 -15 0
      vertex -14 -10 0
      vertex -10 -10 0
    endloop
  endfacet
  facet normal 0 0 -1
    outer loop
      vertex -11 -26 0
      vertex -14 -10 0
      vertex -11 -19 0
    endloop
  endfacet
  facet normal 0 0 -1
    outer loop
      vertex 13 -50 0
      vertex 10 -45 0
      vertex 13 50 0
    endloop
  endfacet
  facet normal 0 0 -1
    outer loop
      vertex 13 -50 0
      vertex 6 -45 0
      vertex 10 -45 0
    endloop
  endfacet
  facet normal 0 0 -1
    outer loop
      vertex 3 -19 0
      vertex 6 -45 0
      vertex 3 -26 0
    endloop
  endfacet
  facet normal 0 0 -1
    outer loop
      vertex 2 -50 0
      vertex 6 -45 0
      vertex 13 -50 0
    endloop
  endfacet
  facet normal 0 0 -1
    outer loop
      vertex 2 -30 0
      vertex 6 -45 0
      vertex 2 -50 0
    endloop
  endfacet
  facet normal 0 0 -1
    outer loop
      vertex 6 -45 0
      vertex 2 -30 0
      vertex 3 -26 0
    endloop
  endfacet
  facet normal 0 0 -1
    outer loop
      vertex 2 -30 0
      vertex -3 -26 0
      vertex 3 -26 0
    endloop
  endfacet
  facet normal 0 0 -1
    outer loop
      vertex -3 -26 0
      vertex -5 -26 0
      vertex -3 -19 0
    endloop
  endfacet
  facet normal 0 0 -1
    outer loop
      vertex 2 -30 0
      vertex -5 -26 0
      vertex -3 -26 0
    endloop
  endfacet
  facet normal 0 0 -1
    outer loop
      vertex -10 -30 0
      vertex -5 -26 0
      vertex 2 -30 0
    endloop
  endfacet
  facet normal -0 0 -1
    outer loop
      vertex -5 -26 0
      vertex -10 -30 0
      vertex -11 -26 0
    endloop
  endfacet
  facet normal 0 0 -1
    outer loop
      vertex 10 45 0
      vertex 13 50 0
      vertex 10 -45 0
    endloop
  endfacet
  facet normal 0 0 -1
    outer loop
      vertex 6 45 0
      vertex 13 50 0
      vertex 10 45 0
    endloop
  endfacet
  facet normal 0 0 -1
    outer loop
      vertex 6 -45 0
      vertex 3 -19 0
      vertex 6 45 0
    endloop
  endfacet
  facet normal 0 0 -1
    outer loop
      vertex 3 19 0
      vertex 6 45 0
      vertex 3 -19 0
    endloop
  endfacet
  facet normal 0 0 -1
    outer loop
      vertex 3 26 0
      vertex 6 45 0
      vertex 3 19 0
    endloop
  endfacet
  facet normal 0 0 -1
    outer loop
      vertex 2 30 0
      vertex 6 45 0
      vertex 3 26 0
    endloop
  endfacet
  facet normal 0 0 -1
    outer loop
      vertex 6 45 0
      vertex 2 50 0
      vertex 13 50 0
    endloop
  endfacet
  facet normal 0 0 -1
    outer loop
      vertex 2 50 0
      vertex 6 45 0
      vertex 2 30 0
    endloop
  endfacet
  facet normal 0 0 -1
    outer loop
      vertex 2 15 0
      vertex 3 19 0
      vertex 2 -15 0
    endloop
  endfacet
  facet normal 0 0 -1
    outer loop
      vertex 2 15 0
      vertex -3 19 0
      vertex 3 19 0
    endloop
  endfacet
  facet normal 0 0 -1
    outer loop
      vertex -3 19 0
      vertex -5 19 0
      vertex -3 26 0
    endloop
  endfacet
  facet normal 0 0 -1
    outer loop
      vertex 2 15 0
      vertex -5 19 0
      vertex -3 19 0
    endloop
  endfacet
  facet normal 0 0 -1
    outer loop
      vertex -10 15 0
      vertex -5 19 0
      vertex 2 15 0
    endloop
  endfacet
  facet normal -0 0 -1
    outer loop
      vertex -5 19 0
      vertex -10 15 0
      vertex -11 19 0
    endloop
  endfacet
  facet normal 0 1 0
    outer loop
      vertex 13 50 8
      vertex 10 50 4
      vertex 10 50 8
    endloop
  endfacet
  facet normal 0 1 -0
    outer loop
      vertex 13 50 0
      vertex 10 50 4
      vertex 13 50 8
    endloop
  endfacet
  facet normal 0 1 0
    outer loop
      vertex 2 50 0
      vertex 10 50 4
      vertex 13 50 0
    endloop
  endfacet
  facet normal 0 1 0
    outer loop
      vertex 10 50 4
      vertex 2 50 0
      vertex 2 50 4
    endloop
  endfacet
  facet normal 0 1 -0
    outer loop
      vertex -10 50 0
      vertex -14 50 4
      vertex -10 50 4
    endloop
  endfacet
  facet normal 0 1 0
    outer loop
      vertex -14 50 4
      vertex -10 50 0
      vertex -14 50 0
    endloop
  endfacet
  facet normal 0 -1 0
    outer loop
      vertex 6 45 0
      vertex 10 45 4
      vertex 6 45 4
    endloop
  endfacet
  facet normal 0 -1 -0
    outer loop
      vertex 10 45 4
      vertex 6 45 0
      vertex 10 45 0
    endloop
  endfacet
  facet normal 0 1 -0
    outer loop
      vertex 10 -45 0
      vertex 6 -45 4
      vertex 10 -45 4
    endloop
  endfacet
  facet normal 0 1 0
    outer loop
      vertex 6 -45 4
      vertex 10 -45 0
      vertex 6 -45 0
    endloop
  endfacet
  facet normal 0 -1 0
    outer loop
      vertex 2 -50 4
      vertex 2 -50 0
      vertex 10 -50 4
    endloop
  endfacet
  facet normal 0 -1 0
    outer loop
      vertex 10 -50 4
      vertex 13 -50 8
      vertex 10 -50 8
    endloop
  endfacet
  facet normal 0 -1 0
    outer loop
      vertex 10 -50 4
      vertex 13 -50 0
      vertex 13 -50 8
    endloop
  endfacet
  facet normal 0 -1 0
    outer loop
      vertex 13 -50 0
      vertex 10 -50 4
      vertex 2 -50 0
    endloop
  endfacet
  facet normal 0 -1 0
    outer loop
      vertex -14 -50 0
      vertex -10 -50 4
      vertex -14 -50 4
    endloop
  endfacet
  facet normal 0 -1 -0
    outer loop
      vertex -10 -50 4
      vertex -14 -50 0
      vertex -10 -50 0
    endloop
  endfacet
  facet normal -1 0 0
    outer loop
      vertex -14 -50 0
      vertex -14 -10 4
      vertex -14 -10 0
    endloop
  endfacet
  facet normal -1 -0 0
    outer loop
      vertex -14 -10 4
      vertex -14 -50 0
      vertex -14 -50 4
    endloop
  endfacet
  facet normal -1 0 0
    outer loop
      vertex -14 10 0
      vertex -14 50 4
      vertex -14 50 0
    endloop
  endfacet
  facet normal -1 -0 0
    outer loop
      vertex -14 50 4
      vertex -14 10 0
      vertex -14 10 4
    endloop
  endfacet
  facet normal 1 -0 0
    outer loop
      vertex 6 -45 4
      vertex 6 45 0
      vertex 6 45 4
    endloop
  endfacet
  facet normal 1 0 0
    outer loop
      vertex 6 45 0
      vertex 6 -45 4
      vertex 6 -45 0
    endloop
  endfacet
  facet normal -1 0 0
    outer loop
      vertex 10 45 0
      vertex 10 -45 0
      vertex 10 45 4
    endloop
  endfacet
  facet normal -1 0 0
    outer loop
      vertex 10 45 4
      vertex 10 50 8
      vertex 10 50 4
    endloop
  endfacet
  facet normal -1 0 0
    outer loop
      vertex 10 -45 4
      vertex 10 45 4
      vertex 10 -45 0
    endloop
  endfacet
  facet normal -1 0 0
    outer loop
      vertex 10 45 4
      vertex 10 -45 4
      vertex 10 50 8
    endloop
  endfacet
  facet normal -1 0 0
    outer loop
      vertex 10 -50 8
      vertex 10 -45 4
      vertex 10 -50 4
    endloop
  endfacet
  facet normal -1 0 0
    outer loop
      vertex 10 -45 4
      vertex 10 -50 8
      vertex 10 50 8
    endloop
  endfacet
  facet normal -0 0 1
    outer loop
      vertex 10 50 8
      vertex 13 -50 8
      vertex 13 50 8
    endloop
  endfacet
  facet normal 0 0 1
    outer loop
      vertex 13 -50 8
      vertex 10 50 8
      vertex 10 -50 8
    endloop
  endfacet
  facet normal 1 -0 0
    outer loop
      vertex 13 -50 8
      vertex 13 50 0
      vertex 13 50 8
    endloop
  endfacet
  facet normal 1 0 0
    outer loop
      vertex 13 50 0
      vertex 13 -50 8
      vertex 13 -50 0
    endloop
  endfacet
  facet normal -1 0 0
    outer loop
      vertex 3 19 0
      vertex 3 26 4
      vertex 3 26 0
    endloop
  endfacet
  facet normal -1 -0 0
    outer loop
      vertex 3 26 4
      vertex 3 19 0
      vertex 3 19 4
    endloop
  endfacet
  facet normal 0 -1 0
    outer loop
      vertex -3 26 0
      vertex 3 26 4
      vertex -3 26 4
    endloop
  endfacet
  facet normal 0 -1 -0
    outer loop
      vertex 3 26 4
      vertex -3 26 0
      vertex 3 26 0
    endloop
  endfacet
  facet normal 1 -0 0
    outer loop
      vertex -3 19 4
      vertex -3 26 0
      vertex -3 26 4
    endloop
  endfacet
  facet normal 1 0 0
    outer loop
      vertex -3 26 0
      vertex -3 19 4
      vertex -3 19 0
    endloop
  endfacet
  facet normal 0 1 -0
    outer loop
      vertex 3 19 0
      vertex -3 19 4
      vertex 3 19 4
    endloop
  endfacet
  facet normal 0 1 0
    outer loop
      vertex -3 19 4
      vertex 3 19 0
      vertex -3 19 0
    endloop
  endfacet
  facet normal -1 0 0
    outer loop
      vertex 3 -26 0
      vertex 3 -19 4
      vertex 3 -19 0
    endloop
  endfacet
  facet normal -1 -0 0
    outer loop
      vertex 3 -19 4
      vertex 3 -26 0
      vertex 3 -26 4
    endloop
  endfacet
  facet normal 1 -0 0
    outer loop
      vertex -3 -26 4
      vertex -3 -19 0
      vertex -3 -19 4
    endloop
  endfacet
  facet normal 1 0 0
    outer loop
      vertex -3 -19 0
      vertex -3 -26 4
      vertex -3 -26 0
    endloop
  endfacet
  facet normal 0 1 -0
    outer loop
      vertex 3 -26 0
      vertex -3 -26 4
      vertex 3 -26 4
    endloop
  endfacet
  facet normal 0 1 0
    outer loop
      vertex -3 -26 4
      vertex 3 -26 0
      vertex -3 -26 0
    endloop
  endfacet
  facet normal 0 -1 0
    outer loop
      vertex -3 -19 0
      vertex 3 -19 4
      vertex -3 -19 4
    endloop
  endfacet
  facet normal 0 -1 -0
    outer loop
      vertex 3 -19 4
      vertex -3 -19 0
      vertex 3 -19 0
    endloop
  endfacet
  facet normal -1 0 0
    outer loop
      vertex -5 19 0
      vertex -5 26 4
      vertex -5 26 0
    endloop
  endfacet
  facet normal -1 -0 0
    outer loop
      vertex -5 26 4
      vertex -5 19 0
      vertex -5 19 4
    endloop
  endfacet
  facet normal 0 -1 0
    outer loop
      vertex -11 26 0
      vertex -5 26 4
      vertex -11 26 4
    endloop
  endfacet
  facet normal 0 -1 -0
    outer loop
      vertex -5 26 4
      vertex -11 26 0
      vertex -5 26 0
    endloop
  endfacet
  facet normal 1 -0 0
    outer loop
      vertex -11 19 4
      vertex -11 26 0
      vertex -11 26 4
    endloop
  endfacet
  facet normal 1 0 0
    outer loop
      vertex -11 26 0
      vertex -11 19 4
      vertex -11 19 0
    endloop
  endfacet
  facet normal 0 1 -0
    outer loop
      vertex -5 19 0
      vertex -11 19 4
      vertex -5 19 4
    endloop
  endfacet
  facet normal 0 1 0
    outer loop
      vertex -11 19 4
      vertex -5 19 0
      vertex -11 19 0
    endloop
  endfacet
  facet normal -1 0 0
    outer loop
      vertex -5 -26 0
      vertex -5 -19 4
      vertex -5 -19 0
    endloop
  endfacet
  facet normal -1 -0 0
    outer loop
      vertex -5 -19 4
      vertex -5 -26 0
      vertex -5 -26 4
    endloop
  endfacet
  facet normal 0 -1 0
    outer loop
      vertex -11 -19 0
      vertex -5 -19 4
      vertex -11 -19 4
    endloop
  endfacet
  facet normal 0 -1 -0
    outer loop
      vertex -5 -19 4
      vertex -11 -19 0
      vertex -5 -19 0
    endloop
  endfacet
  facet normal 1 -0 0
    outer loop
      vertex -11 -26 4
      vertex -11 -19 0
      vertex -11 -19 4
    endloop
  endfacet
  facet normal 1 0 0
    outer loop
      vertex -11 -19 0
      vertex -11 -26 4
      vertex -11 -26 0
    endloop
  endfacet
  facet normal 0 1 -0
    outer loop
      vertex -5 -26 0
      vertex -11 -26 4
      vertex -5 -26 4
    endloop
  endfacet
  facet normal 0 1 0
    outer loop
      vertex -11 -26 4
      vertex -5 -26 0
      vertex -11 -26 0
    endloop
  endfacet
  facet normal -1 0 0
    outer loop
      vertex 2 -15 0
      vertex 2 15 4
      vertex 2 15 0
    endloop
  endfacet
  facet normal -1 -0 0
    outer loop
      vertex 2 15 4
      vertex 2 -15 0
      vertex 2 -15 4
    endloop
  endfacet
  facet normal 0 -1 0
    outer loop
      vertex -10 15 0
      vertex 2 15 4
      vertex -10 15 4
    endloop
  endfacet
  facet normal 0 -1 -0
    outer loop
      vertex 2 15 4
      vertex -10 15 0
      vertex 2 15 0
    endloop
  endfacet
  facet normal 1 -0 0
    outer loop
      vertex -10 10 4
      vertex -10 15 0
      vertex -10 15 4
    endloop
  endfacet
  facet normal 1 0 0
    outer loop
      vertex -10 15 0
      vertex -10 10 4
      vertex -10 10 0
    endloop
  endfacet
  facet normal 1 -0 0
    outer loop
      vertex -10 -15 4
      vertex -10 -10 0
      vertex -10 -10 4
    endloop
  endfacet
  facet normal 1 0 0
    outer loop
      vertex -10 -10 0
      vertex -10 -15 4
      vertex -10 -15 0
    endloop
  endfacet
  facet normal 0 1 -0
    outer loop
      vertex 2 -15 0
      vertex -10 -15 4
      vertex 2 -15 4
    endloop
  endfacet
  facet normal 0 1 0
    outer loop
      vertex -10 -15 4
      vertex 2 -15 0
      vertex -10 -15 0
    endloop
  endfacet
  facet normal 0 -1 0
    outer loop
      vertex -14 10 0
      vertex -10 10 4
      vertex -14 10 4
    endloop
  endfacet
  facet normal 0 -1 -0
    outer loop
      vertex -10 10 4
      vertex -14 10 0
      vertex -10 10 0
    endloop
  endfacet
  facet normal 0 1 -0
    outer loop
      vertex -10 -10 0
      vertex -14 -10 4
      vertex -10 -10 4
    endloop
  endfacet
  facet normal 0 1 0
    outer loop
      vertex -14 -10 4
      vertex -10 -10 0
      vertex -14 -10 0
    endloop
  endfacet
  facet normal -1 0 0
    outer loop
      vertex 2 -50 0
      vertex 2 -30 4
      vertex 2 -30 0
    endloop
  endfacet
  facet normal -1 -0 0
    outer loop
      vertex 2 -30 4
      vertex 2 -50 0
      vertex 2 -50 4
    endloop
  endfacet
  facet normal 1 -0 0
    outer loop
      vertex -10 -50 4
      vertex -10 -30 0
      vertex -10 -30 4
    endloop
  endfacet
  facet normal 1 0 0
    outer loop
      vertex -10 -30 0
      vertex -10 -50 4
      vertex -10 -50 0
    endloop
  endfacet
  facet normal 0 -1 0
    outer loop
      vertex -10 -30 0
      vertex 2 -30 4
      vertex -10 -30 4
    endloop
  endfacet
  facet normal 0 -1 -0
    outer loop
      vertex 2 -30 4
      vertex -10 -30 0
      vertex 2 -30 0
    endloop
  endfacet
  facet normal -1 0 0
    outer loop
      vertex 2 30 0
      vertex 2 50 4
      vertex 2 50 0
    endloop
  endfacet
  facet normal -1 -0 0
    outer loop
      vertex 2 50 4
      vertex 2 30 0
      vertex 2 30 4
    endloop
  endfacet
  facet normal 1 -0 0
    outer loop
      vertex -10 30 4
      vertex -10 50 0
      vertex -10 50 4
    endloop
  endfacet
  facet normal 1 0 0
    outer loop
      vertex -10 50 0
      vertex -10 30 4
      vertex -10 30 0
    endloop
  endfacet
  facet normal 0 1 -0
    outer loop
      vertex 2 30 0
      vertex -10 30 4
      vertex 2 30 4
    endloop
  endfacet
  facet normal 0 1 0
    outer loop
      vertex -10 30 4
      vertex 2 30 0
      vertex -10 30 0
    endloop
  endfacet
endsolid OpenSCAD_Model
