solid OpenSCAD_Model
  facet normal 0 1 -0
    outer loop
      vertex -3 5 0
      vertex -5 5 4
      vertex -3 5 4
    endloop
  endfacet
  facet normal 0 1 0
    outer loop
      vertex -5 5 4
      vertex -3 5 0
      vertex -5 5 0
    endloop
  endfacet
  facet normal 0 -1 0
    outer loop
      vertex -5 9 0
      vertex -3 9 4
      vertex -5 9 4
    endloop
  endfacet
  facet normal 0 -1 -0
    outer loop
      vertex -3 9 4
      vertex -5 9 0
      vertex -3 9 0
    endloop
  endfacet
  facet normal 1 -0 0
    outer loop
      vertex -5 5 4
      vertex -5 9 0
      vertex -5 9 4
    endloop
  endfacet
  facet normal 1 0 0
    outer loop
      vertex -5 9 0
      vertex -5 5 4
      vertex -5 5 0
    endloop
  endfacet
  facet normal -1 0 0
    outer loop
      vertex -3 5 0
      vertex -3 9 4
      vertex -3 9 0
    endloop
  endfacet
  facet normal -1 -0 0
    outer loop
      vertex -3 9 4
      vertex -3 5 0
      vertex -3 5 4
    endloop
  endfacet
  facet normal 0 1 -0
    outer loop
      vertex 5 5 0
      vertex 3 5 4
      vertex 5 5 4
    endloop
  endfacet
  facet normal 0 1 0
    outer loop
      vertex 3 5 4
      vertex 5 5 0
      vertex 3 5 0
    endloop
  endfacet
  facet normal 0 -1 0
    outer loop
      vertex 3 9 0
      vertex 5 9 4
      vertex 3 9 4
    endloop
  endfacet
  facet normal 0 -1 -0
    outer loop
      vertex 5 9 4
      vertex 3 9 0
      vertex 5 9 0
    endloop
  endfacet
  facet normal 1 -0 0
    outer loop
      vertex 3 5 4
      vertex 3 9 0
      vertex 3 9 4
    endloop
  endfacet
  facet normal 1 0 0
    outer loop
      vertex 3 9 0
      vertex 3 5 4
      vertex 3 5 0
    endloop
  endfacet
  facet normal -1 0 0
    outer loop
      vertex 5 5 0
      vertex 5 9 4
      vertex 5 9 0
    endloop
  endfacet
  facet normal -1 -0 0
    outer loop
      vertex 5 9 4
      vertex 5 5 0
      vertex 5 5 4
    endloop
  endfacet
  facet normal 0 1 -0
    outer loop
      vertex -3 -9 0
      vertex -5 -9 4
      vertex -3 -9 4
    endloop
  endfacet
  facet normal 0 1 0
    outer loop
      vertex -5 -9 4
      vertex -3 -9 0
      vertex -5 -9 0
    endloop
  endfacet
  facet normal 0 -1 0
    outer loop
      vertex -5 -5 0
      vertex -3 -5 4
      vertex -5 -5 4
    endloop
  endfacet
  facet normal 0 -1 -0
    outer loop
      vertex -3 -5 4
      vertex -5 -5 0
      vertex -3 -5 0
    endloop
  endfacet
  facet normal -1 0 0
    outer loop
      vertex -3 -9 0
      vertex -3 -5 4
      vertex -3 -5 0
    endloop
  endfacet
  facet normal -1 -0 0
    outer loop
      vertex -3 -5 4
      vertex -3 -9 0
      vertex -3 -9 4
    endloop
  endfacet
  facet normal 1 -0 0
    outer loop
      vertex -5 -9 4
      vertex -5 -5 0
      vertex -5 -5 4
    endloop
  endfacet
  facet normal 1 0 0
    outer loop
      vertex -5 -5 0
      vertex -5 -9 4
      vertex -5 -9 0
    endloop
  endfacet
  facet normal 0 1 -0
    outer loop
      vertex 5 -9 0
      vertex 3 -9 4
      vertex 5 -9 4
    endloop
  endfacet
  facet normal 0 1 0
    outer loop
      vertex 3 -9 4
      vertex 5 -9 0
      vertex 3 -9 0
    endloop
  endfacet
  facet normal 0 -1 0
    outer loop
      vertex 3 -5 0
      vertex 5 -5 4
      vertex 3 -5 4
    endloop
  endfacet
  facet normal 0 -1 -0
    outer loop
      vertex 5 -5 4
      vertex 3 -5 0
      vertex 5 -5 0
    endloop
  endfacet
  facet normal -1 0 0
    outer loop
      vertex 5 -9 0
      vertex 5 -5 4
      vertex 5 -5 0
    endloop
  endfacet
  facet normal -1 -0 0
    outer loop
      vertex 5 -5 4
      vertex 5 -9 0
      vertex 5 -9 4
    endloop
  endfacet
  facet normal 1 -0 0
    outer loop
      vertex 3 -9 4
      vertex 3 -5 0
      vertex 3 -5 4
    endloop
  endfacet
  facet normal 1 0 0
    outer loop
      vertex 3 -5 0
      vertex 3 -9 4
      vertex 3 -9 0
    endloop
  endfacet
  facet normal -1 0 0
    outer loop
      vertex -12 -30 0
      vertex -12 -25 4
      vertex -12 -25 0
    endloop
  endfacet
  facet normal -1 -0 0
    outer loop
      vertex -12 -25 4
      vertex -12 -30 0
      vertex -12 -30 4
    endloop
  endfacet
  facet normal -1 0 0
    outer loop
      vertex -12 25 0
      vertex -12 30 4
      vertex -12 30 0
    endloop
  endfacet
  facet normal -1 -0 0
    outer loop
      vertex -12 30 4
      vertex -12 25 0
      vertex -12 25 4
    endloop
  endfacet
  facet normal -1 0 0
    outer loop
      vertex -12 -20 0
      vertex -12 20 4
      vertex -12 20 0
    endloop
  endfacet
  facet normal -1 -0 0
    outer loop
      vertex -12 20 4
      vertex -12 -20 0
      vertex -12 -20 4
    endloop
  endfacet
  facet normal -0 0 1
    outer loop
      vertex -50 -20 4
      vertex -12 -25 4
      vertex -12 -20 4
    endloop
  endfacet
  facet normal 0 0 1
    outer loop
      vertex -12 -25 4
      vertex -50 -20 4
      vertex -50 -25 4
    endloop
  endfacet
  facet normal -0 0 1
    outer loop
      vertex -50 25 4
      vertex -12 20 4
      vertex -12 25 4
    endloop
  endfacet
  facet normal 0 0 1
    outer loop
      vertex -12 20 4
      vertex -50 25 4
      vertex -50 20 4
    endloop
  endfacet
  facet normal -0 0 1
    outer loop
      vertex -5 -9 4
      vertex -4 -20 4
      vertex -3 -9 4
    endloop
  endfacet
  facet normal 0 0 1
    outer loop
      vertex -12 -20 4
      vertex -5 -5 4
      vertex -12 20 4
    endloop
  endfacet
  facet normal 0 0 1
    outer loop
      vertex -5 -9 4
      vertex -9 -20 4
      vertex -4 -20 4
    endloop
  endfacet
  facet normal -0 0 1
    outer loop
      vertex -5 5 4
      vertex -3 -5 4
      vertex -3 5 4
    endloop
  endfacet
  facet normal 0 0 1
    outer loop
      vertex -3 -5 4
      vertex -5 5 4
      vertex -5 -5 4
    endloop
  endfacet
  facet normal 0 0 1
    outer loop
      vertex 4 20 4
      vertex -4 20 4
      vertex -3 9 4
    endloop
  endfacet
  facet normal 0 0 1
    outer loop
      vertex -4 20 4
      vertex -5 9 4
      vertex -3 9 4
    endloop
  endfacet
  facet normal -0 0 1
    outer loop
      vertex -12 20 4
      vertex -5 9 4
      vertex -9 20 4
    endloop
  endfacet
  facet normal 0 0 1
    outer loop
      vertex -5 9 4
      vertex -12 20 4
      vertex -5 5 4
    endloop
  endfacet
  facet normal 0 0 1
    outer loop
      vertex -5 5 4
      vertex -12 20 4
      vertex -5 -5 4
    endloop
  endfacet
  facet normal -0 0 1
    outer loop
      vertex -9 20 4
      vertex -5 9 4
      vertex -4 20 4
    endloop
  endfacet
  facet normal -0 0 1
    outer loop
      vertex 3 5 4
      vertex 5 -5 4
      vertex 5 5 4
    endloop
  endfacet
  facet normal 0 0 1
    outer loop
      vertex 5 -5 4
      vertex 3 5 4
      vertex 3 -5 4
    endloop
  endfacet
  facet normal 0 0 1
    outer loop
      vertex 12 20 4
      vertex 5 5 4
      vertex 12 -20 4
    endloop
  endfacet
  facet normal -0 0 1
    outer loop
      vertex 4 20 4
      vertex 5 9 4
      vertex 9 20 4
    endloop
  endfacet
  facet normal 0 0 1
    outer loop
      vertex 5 9 4
      vertex 4 20 4
      vertex 3 9 4
    endloop
  endfacet
  facet normal 0 0 1
    outer loop
      vertex 9 25 4
      vertex 12 25 4
      vertex 12 30 4
    endloop
  endfacet
  facet normal 0 0 1
    outer loop
      vertex 12 25 4
      vertex 9 25 4
      vertex 12 20 4
    endloop
  endfacet
  facet normal 0 0 1
    outer loop
      vertex 5 9 4
      vertex 12 20 4
      vertex 9 20 4
    endloop
  endfacet
  facet normal 0 0 1
    outer loop
      vertex 5 5 4
      vertex 12 20 4
      vertex 5 9 4
    endloop
  endfacet
  facet normal 0 0 1
    outer loop
      vertex 12 20 4
      vertex 9 25 4
      vertex 9 20 4
    endloop
  endfacet
  facet normal 0 0 1
    outer loop
      vertex 12 30 4
      vertex 4 25 4
      vertex 9 25 4
    endloop
  endfacet
  facet normal -0 0 1
    outer loop
      vertex -4 25 4
      vertex 4 20 4
      vertex 4 25 4
    endloop
  endfacet
  facet normal 0 0 1
    outer loop
      vertex -3 5 4
      vertex 3 5 4
      vertex 3 9 4
    endloop
  endfacet
  facet normal 0 0 1
    outer loop
      vertex 3 5 4
      vertex -3 5 4
      vertex 3 -5 4
    endloop
  endfacet
  facet normal 0 0 1
    outer loop
      vertex -3 5 4
      vertex 3 9 4
      vertex -3 9 4
    endloop
  endfacet
  facet normal 0 0 1
    outer loop
      vertex 4 20 4
      vertex -3 9 4
      vertex 3 9 4
    endloop
  endfacet
  facet normal 0 0 1
    outer loop
      vertex -4 20 4
      vertex 4 20 4
      vertex -4 25 4
    endloop
  endfacet
  facet normal 0 0 1
    outer loop
      vertex 12 30 4
      vertex -4 25 4
      vertex 4 25 4
    endloop
  endfacet
  facet normal -0 0 1
    outer loop
      vertex -12 30 4
      vertex -4 25 4
      vertex 12 30 4
    endloop
  endfacet
  facet normal 0 0 1
    outer loop
      vertex -12 20 4
      vertex -9 20 4
      vertex -9 25 4
    endloop
  endfacet
  facet normal 0 0 1
    outer loop
      vertex -5 -5 4
      vertex -12 -20 4
      vertex -5 -9 4
    endloop
  endfacet
  facet normal 0 0 1
    outer loop
      vertex -12 25 4
      vertex -9 25 4
      vertex -12 30 4
    endloop
  endfacet
  facet normal 0 0 1
    outer loop
      vertex -4 25 4
      vertex -12 30 4
      vertex -9 25 4
    endloop
  endfacet
  facet normal -0 0 1
    outer loop
      vertex 12 25 4
      vertex 50 20 4
      vertex 50 25 4
    endloop
  endfacet
  facet normal 0 0 1
    outer loop
      vertex 50 20 4
      vertex 12 25 4
      vertex 12 20 4
    endloop
  endfacet
  facet normal -0 0 1
    outer loop
      vertex 12 -20 4
      vertex 50 -25 4
      vertex 50 -20 4
    endloop
  endfacet
  facet normal 0 0 1
    outer loop
      vertex 50 -25 4
      vertex 12 -20 4
      vertex 12 -25 4
    endloop
  endfacet
  facet normal 0 0 1
    outer loop
      vertex 12 -20 4
      vertex 9 -20 4
      vertex 12 -25 4
    endloop
  endfacet
  facet normal 0 0 1
    outer loop
      vertex 9 -25 4
      vertex 12 -25 4
      vertex 9 -20 4
    endloop
  endfacet
  facet normal 0 0 1
    outer loop
      vertex 12 -25 4
      vertex 9 -25 4
      vertex 12 -30 4
    endloop
  endfacet
  facet normal -0 0 1
    outer loop
      vertex 4 -25 4
      vertex 12 -30 4
      vertex 9 -25 4
    endloop
  endfacet
  facet normal 0 0 1
    outer loop
      vertex 3 -5 4
      vertex -3 -5 4
      vertex 3 -9 4
    endloop
  endfacet
  facet normal 0 0 1
    outer loop
      vertex -3 -9 4
      vertex 3 -9 4
      vertex -3 -5 4
    endloop
  endfacet
  facet normal 0 0 1
    outer loop
      vertex 3 -9 4
      vertex -3 -9 4
      vertex 4 -20 4
    endloop
  endfacet
  facet normal 0 0 1
    outer loop
      vertex -4 -20 4
      vertex 4 -20 4
      vertex -3 -9 4
    endloop
  endfacet
  facet normal 0 0 1
    outer loop
      vertex 4 -20 4
      vertex -4 -20 4
      vertex 4 -25 4
    endloop
  endfacet
  facet normal 0 0 1
    outer loop
      vertex -4 -25 4
      vertex 4 -25 4
      vertex -4 -20 4
    endloop
  endfacet
  facet normal 0 0 1
    outer loop
      vertex 4 -25 4
      vertex -4 -25 4
      vertex 12 -30 4
    endloop
  endfacet
  facet normal 0 0 1
    outer loop
      vertex -12 -30 4
      vertex -4 -25 4
      vertex -9 -25 4
    endloop
  endfacet
  facet normal 0 0 1
    outer loop
      vertex -12 20 4
      vertex -9 25 4
      vertex -12 25 4
    endloop
  endfacet
  facet normal 0 0 1
    outer loop
      vertex -5 -9 4
      vertex -12 -20 4
      vertex -9 -20 4
    endloop
  endfacet
  facet normal 0 0 1
    outer loop
      vertex -9 -20 4
      vertex -12 -20 4
      vertex -9 -25 4
    endloop
  endfacet
  facet normal 0 0 1
    outer loop
      vertex -12 -25 4
      vertex -9 -25 4
      vertex -12 -20 4
    endloop
  endfacet
  facet normal 0 0 1
    outer loop
      vertex -12 -30 4
      vertex -9 -25 4
      vertex -12 -25 4
    endloop
  endfacet
  facet normal 0 0 1
    outer loop
      vertex -4 -25 4
      vertex -12 -30 4
      vertex 12 -30 4
    endloop
  endfacet
  facet normal -0 0 1
    outer loop
      vertex 5 -5 4
      vertex 12 -20 4
      vertex 5 5 4
    endloop
  endfacet
  facet normal -0 0 1
    outer loop
      vertex 5 -9 4
      vertex 12 -20 4
      vertex 5 -5 4
    endloop
  endfacet
  facet normal 0 0 1
    outer loop
      vertex 12 -20 4
      vertex 5 -9 4
      vertex 9 -20 4
    endloop
  endfacet
  facet normal 0 0 1
    outer loop
      vertex 5 -9 4
      vertex 4 -20 4
      vertex 9 -20 4
    endloop
  endfacet
  facet normal 0 0 1
    outer loop
      vertex -3 -5 4
      vertex 3 -5 4
      vertex -3 5 4
    endloop
  endfacet
  facet normal -0 0 1
    outer loop
      vertex 3 -9 4
      vertex 4 -20 4
      vertex 5 -9 4
    endloop
  endfacet
  facet normal 1 -0 0
    outer loop
      vertex 12 -30 4
      vertex 12 -25 0
      vertex 12 -25 4
    endloop
  endfacet
  facet normal 1 0 0
    outer loop
      vertex 12 -25 0
      vertex 12 -30 4
      vertex 12 -30 0
    endloop
  endfacet
  facet normal 1 -0 0
    outer loop
      vertex 12 25 4
      vertex 12 30 0
      vertex 12 30 4
    endloop
  endfacet
  facet normal 1 0 0
    outer loop
      vertex 12 30 0
      vertex 12 25 4
      vertex 12 25 0
    endloop
  endfacet
  facet normal 1 -0 0
    outer loop
      vertex 12 -20 4
      vertex 12 20 0
      vertex 12 20 4
    endloop
  endfacet
  facet normal 1 0 0
    outer loop
      vertex 12 20 0
      vertex 12 -20 4
      vertex 12 -20 0
    endloop
  endfacet
  facet normal 0 1 -0
    outer loop
      vertex 12 30 0
      vertex -12 30 4
      vertex 12 30 4
    endloop
  endfacet
  facet normal 0 1 0
    outer loop
      vertex -12 30 4
      vertex 12 30 0
      vertex -12 30 0
    endloop
  endfacet
  facet normal 0 0 -1
    outer loop
      vertex -50 20 0
      vertex -12 25 0
      vertex -12 20 0
    endloop
  endfacet
  facet normal -0 0 -1
    outer loop
      vertex -12 25 0
      vertex -50 20 0
      vertex -50 25 0
    endloop
  endfacet
  facet normal 0 0 -1
    outer loop
      vertex -50 -25 0
      vertex -12 -20 0
      vertex -12 -25 0
    endloop
  endfacet
  facet normal -0 0 -1
    outer loop
      vertex -12 -20 0
      vertex -50 -25 0
      vertex -50 -20 0
    endloop
  endfacet
  facet normal 0 0 -1
    outer loop
      vertex -5 -5 0
      vertex -3 5 0
      vertex -3 -5 0
    endloop
  endfacet
  facet normal -0 0 -1
    outer loop
      vertex -3 5 0
      vertex -5 -5 0
      vertex -5 5 0
    endloop
  endfacet
  facet normal 0 0 -1
    outer loop
      vertex 3 -5 0
      vertex 5 5 0
      vertex 5 -5 0
    endloop
  endfacet
  facet normal -0 0 -1
    outer loop
      vertex 5 5 0
      vertex 3 -5 0
      vertex 3 5 0
    endloop
  endfacet
  facet normal 0 0 -1
    outer loop
      vertex -12 -25 0
      vertex 12 -25 0
      vertex 12 -30 0
    endloop
  endfacet
  facet normal 0 0 -1
    outer loop
      vertex 12 -25 0
      vertex -12 -25 0
      vertex 12 -20 0
    endloop
  endfacet
  facet normal 0 0 -1
    outer loop
      vertex 12 -20 0
      vertex 5 -5 0
      vertex 12 20 0
    endloop
  endfacet
  facet normal 0 0 -1
    outer loop
      vertex 5 5 0
      vertex 12 20 0
      vertex 5 -5 0
    endloop
  endfacet
  facet normal 0 0 -1
    outer loop
      vertex 12 -20 0
      vertex 5 -9 0
      vertex 5 -5 0
    endloop
  endfacet
  facet normal 0 0 -1
    outer loop
      vertex 12 -20 0
      vertex 3 -9 0
      vertex 5 -9 0
    endloop
  endfacet
  facet normal 0 0 -1
    outer loop
      vertex -3 -5 0
      vertex 3 -5 0
      vertex 3 -9 0
    endloop
  endfacet
  facet normal 0 0 -1
    outer loop
      vertex 3 -5 0
      vertex -3 -5 0
      vertex 3 5 0
    endloop
  endfacet
  facet normal 0 0 -1
    outer loop
      vertex -3 -5 0
      vertex 3 -9 0
      vertex -3 -9 0
    endloop
  endfacet
  facet normal 0 0 -1
    outer loop
      vertex 12 -20 0
      vertex -12 -20 0
      vertex 3 -9 0
    endloop
  endfacet
  facet normal -0 0 -1
    outer loop
      vertex 3 -9 0
      vertex -12 -20 0
      vertex -3 -9 0
    endloop
  endfacet
  facet normal 0 0 -1
    outer loop
      vertex -12 -20 0
      vertex -5 -5 0
      vertex -5 -9 0
    endloop
  endfacet
  facet normal -0 0 -1
    outer loop
      vertex -5 -5 0
      vertex -12 -20 0
      vertex -5 5 0
    endloop
  endfacet
  facet normal -0 0 -1
    outer loop
      vertex 12 -20 0
      vertex -12 -25 0
      vertex -12 -20 0
    endloop
  endfacet
  facet normal 0 0 -1
    outer loop
      vertex -12 -25 0
      vertex 12 -30 0
      vertex -12 -30 0
    endloop
  endfacet
  facet normal 0 0 -1
    outer loop
      vertex 12 -25 0
      vertex 50 -20 0
      vertex 50 -25 0
    endloop
  endfacet
  facet normal -0 0 -1
    outer loop
      vertex 50 -20 0
      vertex 12 -25 0
      vertex 12 -20 0
    endloop
  endfacet
  facet normal 0 0 -1
    outer loop
      vertex 12 20 0
      vertex 50 25 0
      vertex 50 20 0
    endloop
  endfacet
  facet normal -0 0 -1
    outer loop
      vertex 50 25 0
      vertex 12 20 0
      vertex 12 25 0
    endloop
  endfacet
  facet normal 0 0 -1
    outer loop
      vertex 5 9 0
      vertex 12 20 0
      vertex 5 5 0
    endloop
  endfacet
  facet normal 0 0 -1
    outer loop
      vertex 3 9 0
      vertex 12 20 0
      vertex 5 9 0
    endloop
  endfacet
  facet normal 0 0 -1
    outer loop
      vertex -12 20 0
      vertex 12 20 0
      vertex 3 9 0
    endloop
  endfacet
  facet normal 0 0 -1
    outer loop
      vertex 12 20 0
      vertex -12 20 0
      vertex 12 25 0
    endloop
  endfacet
  facet normal 0 0 -1
    outer loop
      vertex -3 5 0
      vertex 3 5 0
      vertex -3 -5 0
    endloop
  endfacet
  facet normal 0 0 -1
    outer loop
      vertex 3 5 0
      vertex -3 5 0
      vertex 3 9 0
    endloop
  endfacet
  facet normal 0 0 -1
    outer loop
      vertex -3 9 0
      vertex 3 9 0
      vertex -3 5 0
    endloop
  endfacet
  facet normal 0 0 -1
    outer loop
      vertex -12 20 0
      vertex 3 9 0
      vertex -3 9 0
    endloop
  endfacet
  facet normal 0 0 -1
    outer loop
      vertex -12 20 0
      vertex -3 9 0
      vertex -5 9 0
    endloop
  endfacet
  facet normal -0 0 -1
    outer loop
      vertex -3 -9 0
      vertex -12 -20 0
      vertex -5 -9 0
    endloop
  endfacet
  facet normal 0 0 -1
    outer loop
      vertex -12 20 0
      vertex -5 5 0
      vertex -12 -20 0
    endloop
  endfacet
  facet normal 0 0 -1
    outer loop
      vertex -5 5 0
      vertex -12 20 0
      vertex -5 9 0
    endloop
  endfacet
  facet normal 0 0 -1
    outer loop
      vertex -12 25 0
      vertex 12 25 0
      vertex -12 20 0
    endloop
  endfacet
  facet normal 0 0 -1
    outer loop
      vertex 12 25 0
      vertex -12 25 0
      vertex 12 30 0
    endloop
  endfacet
  facet normal -0 0 -1
    outer loop
      vertex 12 30 0
      vertex -12 25 0
      vertex -12 30 0
    endloop
  endfacet
  facet normal 0 -1 0
    outer loop
      vertex -12 -30 0
      vertex 12 -30 4
      vertex -12 -30 4
    endloop
  endfacet
  facet normal 0 -1 -0
    outer loop
      vertex 12 -30 4
      vertex -12 -30 0
      vertex 12 -30 0
    endloop
  endfacet
  facet normal -1 0 0
    outer loop
      vertex -50 20 0
      vertex -50 25 4
      vertex -50 25 0
    endloop
  endfacet
  facet normal -1 -0 0
    outer loop
      vertex -50 25 4
      vertex -50 20 0
      vertex -50 20 4
    endloop
  endfacet
  facet normal 1 -0 0
    outer loop
      vertex 50 20 4
      vertex 50 25 0
      vertex 50 25 4
    endloop
  endfacet
  facet normal 1 0 0
    outer loop
      vertex 50 25 0
      vertex 50 20 4
      vertex 50 20 0
    endloop
  endfacet
  facet normal 0 1 -0
    outer loop
      vertex 9 25 4
      vertex 4 25 8
      vertex 9 25 8
    endloop
  endfacet
  facet normal 0 1 0
    outer loop
      vertex 4 25 8
      vertex 9 25 4
      vertex 4 25 4
    endloop
  endfacet
  facet normal 0 1 -0
    outer loop
      vertex 50 25 0
      vertex 12 25 4
      vertex 50 25 4
    endloop
  endfacet
  facet normal 0 1 0
    outer loop
      vertex 12 25 4
      vertex 50 25 0
      vertex 12 25 0
    endloop
  endfacet
  facet normal 0 1 -0
    outer loop
      vertex -12 25 0
      vertex -50 25 4
      vertex -12 25 4
    endloop
  endfacet
  facet normal 0 1 0
    outer loop
      vertex -50 25 4
      vertex -12 25 0
      vertex -50 25 0
    endloop
  endfacet
  facet normal 0 -1 0
    outer loop
      vertex 4 20 4
      vertex 9 20 8
      vertex 4 20 8
    endloop
  endfacet
  facet normal 0 -1 -0
    outer loop
      vertex 9 20 8
      vertex 4 20 4
      vertex 9 20 4
    endloop
  endfacet
  facet normal 0 -1 0
    outer loop
      vertex -50 20 0
      vertex -12 20 4
      vertex -50 20 4
    endloop
  endfacet
  facet normal 0 -1 -0
    outer loop
      vertex -12 20 4
      vertex -50 20 0
      vertex -12 20 0
    endloop
  endfacet
  facet normal 0 -1 0
    outer loop
      vertex 12 20 0
      vertex 50 20 4
      vertex 12 20 4
    endloop
  endfacet
  facet normal 0 -1 -0
    outer loop
      vertex 50 20 4
      vertex 12 20 0
      vertex 50 20 0
    endloop
  endfacet
  facet normal -1 0 0
    outer loop
      vertex -50 -25 0
      vertex -50 -20 4
      vertex -50 -20 0
    endloop
  endfacet
  facet normal -1 -0 0
    outer loop
      vertex -50 -20 4
      vertex -50 -25 0
      vertex -50 -25 4
    endloop
  endfacet
  facet normal 1 -0 0
    outer loop
      vertex 50 -25 4
      vertex 50 -20 0
      vertex 50 -20 4
    endloop
  endfacet
  facet normal 1 0 0
    outer loop
      vertex 50 -20 0
      vertex 50 -25 4
      vertex 50 -25 0
    endloop
  endfacet
  facet normal 0 1 -0
    outer loop
      vertex 9 -20 4
      vertex 4 -20 8
      vertex 9 -20 8
    endloop
  endfacet
  facet normal 0 1 0
    outer loop
      vertex 4 -20 8
      vertex 9 -20 4
      vertex 4 -20 4
    endloop
  endfacet
  facet normal 0 1 -0
    outer loop
      vertex 50 -20 0
      vertex 12 -20 4
      vertex 50 -20 4
    endloop
  endfacet
  facet normal 0 1 0
    outer loop
      vertex 12 -20 4
      vertex 50 -20 0
      vertex 12 -20 0
    endloop
  endfacet
  facet normal 0 1 -0
    outer loop
      vertex -12 -20 0
      vertex -50 -20 4
      vertex -12 -20 4
    endloop
  endfacet
  facet normal 0 1 0
    outer loop
      vertex -50 -20 4
      vertex -12 -20 0
      vertex -50 -20 0
    endloop
  endfacet
  facet normal 0 -1 0
    outer loop
      vertex 4 -25 4
      vertex 9 -25 8
      vertex 4 -25 8
    endloop
  endfacet
  facet normal 0 -1 -0
    outer loop
      vertex 9 -25 8
      vertex 4 -25 4
      vertex 9 -25 4
    endloop
  endfacet
  facet normal 0 -1 0
    outer loop
      vertex -50 -25 0
      vertex -12 -25 4
      vertex -50 -25 4
    endloop
  endfacet
  facet normal 0 -1 -0
    outer loop
      vertex -12 -25 4
      vertex -50 -25 0
      vertex -12 -25 0
    endloop
  endfacet
  facet normal 0 -1 0
    outer loop
      vertex 12 -25 0
      vertex 50 -25 4
      vertex 12 -25 4
    endloop
  endfacet
  facet normal 0 -1 -0
    outer loop
      vertex 50 -25 4
      vertex 12 -25 0
      vertex 50 -25 0
    endloop
  endfacet
  facet normal -1 0 0
    outer loop
      vertex 4 20 4
      vertex 4 25 8
      vertex 4 25 4
    endloop
  endfacet
  facet normal -1 -0 0
    outer loop
      vertex 4 25 8
      vertex 4 20 4
      vertex 4 20 8
    endloop
  endfacet
  facet normal -0 0 1
    outer loop
      vertex 4 25 8
      vertex 9 20 8
      vertex 9 25 8
    endloop
  endfacet
  facet normal 0 0 1
    outer loop
      vertex 9 20 8
      vertex 4 25 8
      vertex 4 20 8
    endloop
  endfacet
  facet normal 1 -0 0
    outer loop
      vertex 9 20 8
      vertex 9 25 4
      vertex 9 25 8
    endloop
  endfacet
  facet normal 1 0 0
    outer loop
      vertex 9 25 4
      vertex 9 20 8
      vertex 9 20 4
    endloop
  endfacet
  facet normal -1 0 0
    outer loop
      vertex 4 -25 4
      vertex 4 -20 8
      vertex 4 -20 4
    endloop
  endfacet
  facet normal -1 -0 0
    outer loop
      vertex 4 -20 8
      vertex 4 -25 4
      vertex 4 -25 8
    endloop
  endfacet
  facet normal -0 0 1
    outer loop
      vertex 4 -20 8
      vertex 9 -25 8
      vertex 9 -20 8
    endloop
  endfacet
  facet normal 0 0 1
    outer loop
      vertex 9 -25 8
      vertex 4 -20 8
      vertex 4 -25 8
    endloop
  endfacet
  facet normal 1 -0 0
    outer loop
      vertex 9 -25 8
      vertex 9 -20 4
      vertex 9 -20 8
    endloop
  endfacet
  facet normal 1 0 0
    outer loop
      vertex 9 -20 4
      vertex 9 -25 8
      vertex 9 -25 4
    endloop
  endfacet
  facet normal -1 0 0
    outer loop
      vertex -9 20 4
      vertex -9 25 8
      vertex -9 25 4
    endloop
  endfacet
  facet normal -1 -0 0
    outer loop
      vertex -9 25 8
      vertex -9 20 4
      vertex -9 20 8
    endloop
  endfacet
  facet normal -0 0 1
    outer loop
      vertex -9 25 8
      vertex -4 20 8
      vertex -4 25 8
    endloop
  endfacet
  facet normal 0 0 1
    outer loop
      vertex -4 20 8
      vertex -9 25 8
      vertex -9 20 8
    endloop
  endfacet
  facet normal 1 -0 0
    outer loop
      vertex -4 20 8
      vertex -4 25 4
      vertex -4 25 8
    endloop
  endfacet
  facet normal 1 0 0
    outer loop
      vertex -4 25 4
      vertex -4 20 8
      vertex -4 20 4
    endloop
  endfacet
  facet normal 0 -1 0
    outer loop
      vertex -9 20 4
      vertex -4 20 8
      vertex -9 20 8
    endloop
  endfacet
  facet normal 0 -1 -0
    outer loop
      vertex -4 20 8
      vertex -9 20 4
      vertex -4 20 4
    endloop
  endfacet
  facet normal 0 1 -0
    outer loop
      vertex -4 25 4
      vertex -9 25 8
      vertex -4 25 8
    endloop
  endfacet
  facet normal 0 1 0
    outer loop
      vertex -9 25 8
      vertex -4 25 4
      vertex -9 25 4
    endloop
  endfacet
  facet normal -1 0 0
    outer loop
      vertex -9 -25 4
      vertex -9 -20 8
      vertex -9 -20 4
    endloop
  endfacet
  facet normal -1 -0 0
    outer loop
      vertex -9 -20 8
      vertex -9 -25 4
      vertex -9 -25 8
    endloop
  endfacet
  facet normal -0 0 1
    outer loop
      vertex -9 -20 8
      vertex -4 -25 8
      vertex -4 -20 8
    endloop
  endfacet
  facet normal 0 0 1
    outer loop
      vertex -4 -25 8
      vertex -9 -20 8
      vertex -9 -25 8
    endloop
  endfacet
  facet normal 1 -0 0
    outer loop
      vertex -4 -25 8
      vertex -4 -20 4
      vertex -4 -20 8
    endloop
  endfacet
  facet normal 1 0 0
    outer loop
      vertex -4 -20 4
      vertex -4 -25 8
      vertex -4 -25 4
    endloop
  endfacet
  facet normal 0 -1 0
    outer loop
      vertex -9 -25 4
      vertex -4 -25 8
      vertex -9 -25 8
    endloop
  endfacet
  facet normal 0 -1 -0
    outer loop
      vertex -4 -25 8
      vertex -9 -25 4
      vertex -4 -25 4
    endloop
  endfacet
  facet normal 0 1 -0
    outer loop
      vertex -4 -20 4
      vertex -9 -20 8
      vertex -4 -20 8
    endloop
  endfacet
  facet normal 0 1 0
    outer loop
      vertex -9 -20 8
      vertex -4 -20 4
      vertex -9 -20 4
    endloop
  endfacet
endsolid OpenSCAD_Model
