solid OpenSCAD_Model
  facet normal 1 0 0
    outer loop
      vertex -50 -0.5 40
      vertex -50 -6.5 40
      vertex -50 -0.5 35
    endloop
  endfacet
  facet normal 1 0 0
    outer loop
      vertex -50 7.5 40
      vertex -50 13 74
      vertex -50 7.5 64
    endloop
  endfacet
  facet normal 1 0 0
    outer loop
      vertex -50 13 74
      vertex -50 1.5 70
      vertex -50 7.5 64
    endloop
  endfacet
  facet normal 1 0 0
    outer loop
      vertex -50 13 74
      vertex -50 -0.5 70
      vertex -50 1.5 70
    endloop
  endfacet
  facet normal 1 0 0
    outer loop
      vertex -50 -0.5 70
      vertex -50 -6.5 64
      vertex -50 -0.5 64
    endloop
  endfacet
  facet normal 1 0 0
    outer loop
      vertex -50 -6.5 64
      vertex -50 -13 74
      vertex -50 -6.5 40
    endloop
  endfacet
  facet normal 1 0 0
    outer loop
      vertex -50 -0.5 70
      vertex -50 -13 74
      vertex -50 -6.5 64
    endloop
  endfacet
  facet normal 1 -0 0
    outer loop
      vertex -50 -13 74
      vertex -50 -0.5 70
      vertex -50 13 74
    endloop
  endfacet
  facet normal 1 0 0
    outer loop
      vertex -50 13 74
      vertex -50 7.5 40
      vertex -50 13 14
    endloop
  endfacet
  facet normal 1 0 0
    outer loop
      vertex -50 1.5 35
      vertex -50 7.5 40
      vertex -50 1.5 40
    endloop
  endfacet
  facet normal 1 0 0
    outer loop
      vertex -50 7.5 40
      vertex -50 1.5 35
      vertex -50 13 14
    endloop
  endfacet
  facet normal 1 -0 0
    outer loop
      vertex -50 -0.5 35
      vertex -50 13 14
      vertex -50 1.5 35
    endloop
  endfacet
  facet normal 1 0 0
    outer loop
      vertex -50 -13 14
      vertex -50 -0.5 35
      vertex -50 -6.5 40
    endloop
  endfacet
  facet normal 1 0 0
    outer loop
      vertex -50 -0.5 35
      vertex -50 -13 14
      vertex -50 13 14
    endloop
  endfacet
  facet normal 1 0 0
    outer loop
      vertex -50 -13 14
      vertex -50 -6.5 40
      vertex -50 -13 74
    endloop
  endfacet
  facet normal 1 0 0
    outer loop
      vertex -50 7.5 64
      vertex -50 1.5 70
      vertex -50 1.5 64
    endloop
  endfacet
  facet normal -0 0 1
    outer loop
      vertex -54 13 74
      vertex -50 -13 74
      vertex -50 13 74
    endloop
  endfacet
  facet normal 0 0 1
    outer loop
      vertex -50 -13 74
      vertex -54 13 74
      vertex -54 -13 74
    endloop
  endfacet
  facet normal 0 0 1
    outer loop
      vertex 12.9843 0.637879 14
      vertex 12.9843 -0.637879 14
      vertex 13 0 14
    endloop
  endfacet
  facet normal 0 0 1
    outer loop
      vertex 12.9374 1.27422 14
      vertex 12.9843 -0.637879 14
      vertex 12.9843 0.637879 14
    endloop
  endfacet
  facet normal 0 0 1
    outer loop
      vertex 12.9374 1.27422 14
      vertex 12.9374 -1.27422 14
      vertex 12.9843 -0.637879 14
    endloop
  endfacet
  facet normal 0 0 1
    outer loop
      vertex 12.8593 1.9075 14
      vertex 12.9374 -1.27422 14
      vertex 12.9374 1.27422 14
    endloop
  endfacet
  facet normal 0 0 1
    outer loop
      vertex 12.8593 1.9075 14
      vertex 12.8593 -1.9075 14
      vertex 12.9374 -1.27422 14
    endloop
  endfacet
  facet normal 0 0 1
    outer loop
      vertex 12.7502 2.53617 14
      vertex 12.8593 -1.9075 14
      vertex 12.8593 1.9075 14
    endloop
  endfacet
  facet normal 0 0 1
    outer loop
      vertex 12.7502 2.53617 14
      vertex 12.7502 -2.53617 14
      vertex 12.8593 -1.9075 14
    endloop
  endfacet
  facet normal 0 0 1
    outer loop
      vertex 12.6104 3.15874 14
      vertex 12.7502 -2.53617 14
      vertex 12.7502 2.53617 14
    endloop
  endfacet
  facet normal 0 0 1
    outer loop
      vertex 12.6104 3.15874 14
      vertex 12.6104 -3.15874 14
      vertex 12.7502 -2.53617 14
    endloop
  endfacet
  facet normal 0 0 1
    outer loop
      vertex 12.4402 3.7737 14
      vertex 12.6104 -3.15874 14
      vertex 12.6104 3.15874 14
    endloop
  endfacet
  facet normal 0 0 1
    outer loop
      vertex 12.4402 3.7737 14
      vertex 12.4402 -3.7737 14
      vertex 12.6104 -3.15874 14
    endloop
  endfacet
  facet normal 0 0 1
    outer loop
      vertex 12.2401 4.37957 14
      vertex 12.4402 -3.7737 14
      vertex 12.4402 3.7737 14
    endloop
  endfacet
  facet normal 0 0 1
    outer loop
      vertex 12.2401 4.37957 14
      vertex 12.2401 -4.37957 14
      vertex 12.4402 -3.7737 14
    endloop
  endfacet
  facet normal 0 0 1
    outer loop
      vertex 12.0104 4.97488 14
      vertex 12.2401 -4.37957 14
      vertex 12.2401 4.37957 14
    endloop
  endfacet
  facet normal 0 0 1
    outer loop
      vertex 12.0104 4.97488 14
      vertex 12.0104 -4.97488 14
      vertex 12.2401 -4.37957 14
    endloop
  endfacet
  facet normal 0 0 1
    outer loop
      vertex 11.7519 5.55822 14
      vertex 12.0104 -4.97488 14
      vertex 12.0104 4.97488 14
    endloop
  endfacet
  facet normal 0 0 1
    outer loop
      vertex 11.7519 5.55822 14
      vertex 11.7519 -5.55822 14
      vertex 12.0104 -4.97488 14
    endloop
  endfacet
  facet normal 0 0 1
    outer loop
      vertex 11.465 6.12816 14
      vertex 11.7519 -5.55822 14
      vertex 11.7519 5.55822 14
    endloop
  endfacet
  facet normal 0 0 1
    outer loop
      vertex 11.465 6.12816 14
      vertex 11.465 -6.12816 14
      vertex 11.7519 -5.55822 14
    endloop
  endfacet
  facet normal 0 0 1
    outer loop
      vertex 11.1505 6.68334 14
      vertex 11.465 -6.12816 14
      vertex 11.465 6.12816 14
    endloop
  endfacet
  facet normal 0 0 1
    outer loop
      vertex 11.1505 6.68334 14
      vertex 11.1505 -6.68334 14
      vertex 11.465 -6.12816 14
    endloop
  endfacet
  facet normal 0 0 1
    outer loop
      vertex 10.8091 7.22241 14
      vertex 11.1505 -6.68334 14
      vertex 11.1505 6.68334 14
    endloop
  endfacet
  facet normal 0 0 1
    outer loop
      vertex 10.8091 7.22241 14
      vertex 10.8091 -7.22241 14
      vertex 11.1505 -6.68334 14
    endloop
  endfacet
  facet normal 0 0 1
    outer loop
      vertex 10.4417 7.74409 14
      vertex 10.8091 -7.22241 14
      vertex 10.8091 7.22241 14
    endloop
  endfacet
  facet normal 0 0 1
    outer loop
      vertex 10.4417 7.74409 14
      vertex 10.4417 -7.74409 14
      vertex 10.8091 -7.22241 14
    endloop
  endfacet
  facet normal 0 0 1
    outer loop
      vertex 10.0491 8.24711 14
      vertex 10.4417 -7.74409 14
      vertex 10.4417 7.74409 14
    endloop
  endfacet
  facet normal 0 0 1
    outer loop
      vertex 10.0491 8.24711 14
      vertex 10.0491 -8.24711 14
      vertex 10.4417 -7.74409 14
    endloop
  endfacet
  facet normal 0 0 1
    outer loop
      vertex 9.63236 8.73027 14
      vertex 10.0491 -8.24711 14
      vertex 10.0491 8.24711 14
    endloop
  endfacet
  facet normal 0 0 1
    outer loop
      vertex 9.63236 8.73027 14
      vertex 9.63236 -8.73027 14
      vertex 10.0491 -8.24711 14
    endloop
  endfacet
  facet normal 0 0 1
    outer loop
      vertex 9.19239 9.19239 14
      vertex 9.63236 -8.73027 14
      vertex 9.63236 8.73027 14
    endloop
  endfacet
  facet normal 0 0 1
    outer loop
      vertex 9.19239 9.19239 14
      vertex 9.19239 -9.19239 14
      vertex 9.63236 -8.73027 14
    endloop
  endfacet
  facet normal 0 0 1
    outer loop
      vertex 8.73027 9.63236 14
      vertex 9.19239 -9.19239 14
      vertex 9.19239 9.19239 14
    endloop
  endfacet
  facet normal 0 0 1
    outer loop
      vertex 8.73027 9.63236 14
      vertex 8.73027 -9.63236 14
      vertex 9.19239 -9.19239 14
    endloop
  endfacet
  facet normal 0 0 1
    outer loop
      vertex 8.24711 10.0491 14
      vertex 8.73027 -9.63236 14
      vertex 8.73027 9.63236 14
    endloop
  endfacet
  facet normal 0 0 1
    outer loop
      vertex 8.24711 10.0491 14
      vertex 8.24711 -10.0491 14
      vertex 8.73027 -9.63236 14
    endloop
  endfacet
  facet normal 0 0 1
    outer loop
      vertex 7.74409 10.4417 14
      vertex 8.24711 -10.0491 14
      vertex 8.24711 10.0491 14
    endloop
  endfacet
  facet normal 0 0 1
    outer loop
      vertex 7.74409 10.4417 14
      vertex 7.74409 -10.4417 14
      vertex 8.24711 -10.0491 14
    endloop
  endfacet
  facet normal 0 0 1
    outer loop
      vertex 7.22241 10.8091 14
      vertex 7.74409 -10.4417 14
      vertex 7.74409 10.4417 14
    endloop
  endfacet
  facet normal 0 0 1
    outer loop
      vertex 7.22241 10.8091 14
      vertex 7.22241 -10.8091 14
      vertex 7.74409 -10.4417 14
    endloop
  endfacet
  facet normal 0 0 1
    outer loop
      vertex 6.68334 11.1505 14
      vertex 7.22241 -10.8091 14
      vertex 7.22241 10.8091 14
    endloop
  endfacet
  facet normal 0 0 1
    outer loop
      vertex 6.68334 11.1505 14
      vertex 6.68334 -11.1505 14
      vertex 7.22241 -10.8091 14
    endloop
  endfacet
  facet normal 0 0 1
    outer loop
      vertex 6.12816 11.465 14
      vertex 6.68334 -11.1505 14
      vertex 6.68334 11.1505 14
    endloop
  endfacet
  facet normal 0 0 1
    outer loop
      vertex 6.12816 11.465 14
      vertex 6.12816 -11.465 14
      vertex 6.68334 -11.1505 14
    endloop
  endfacet
  facet normal 0 0 1
    outer loop
      vertex 5.55822 11.7519 14
      vertex 6.12816 -11.465 14
      vertex 6.12816 11.465 14
    endloop
  endfacet
  facet normal 0 0 1
    outer loop
      vertex 5.55822 11.7519 14
      vertex 5.55822 -11.7519 14
      vertex 6.12816 -11.465 14
    endloop
  endfacet
  facet normal 0 0 1
    outer loop
      vertex 4.97488 12.0104 14
      vertex 5.55822 -11.7519 14
      vertex 5.55822 11.7519 14
    endloop
  endfacet
  facet normal 0 0 1
    outer loop
      vertex 4.97488 12.0104 14
      vertex 4.97488 -12.0104 14
      vertex 5.55822 -11.7519 14
    endloop
  endfacet
  facet normal 0 0 1
    outer loop
      vertex 4.37957 12.2401 14
      vertex 4.97488 -12.0104 14
      vertex 4.97488 12.0104 14
    endloop
  endfacet
  facet normal 0 0 1
    outer loop
      vertex 4.37957 12.2401 14
      vertex 4.37957 -12.2401 14
      vertex 4.97488 -12.0104 14
    endloop
  endfacet
  facet normal 0 0 1
    outer loop
      vertex 3.7737 12.4402 14
      vertex 4.37957 -12.2401 14
      vertex 4.37957 12.2401 14
    endloop
  endfacet
  facet normal 0 0 1
    outer loop
      vertex 3.7737 12.4402 14
      vertex 3.7737 -12.4402 14
      vertex 4.37957 -12.2401 14
    endloop
  endfacet
  facet normal 0 0 1
    outer loop
      vertex 3.15874 12.6104 14
      vertex 3.7737 -12.4402 14
      vertex 3.7737 12.4402 14
    endloop
  endfacet
  facet normal 0 0 1
    outer loop
      vertex 3.15874 12.6104 14
      vertex 3.15874 -12.6104 14
      vertex 3.7737 -12.4402 14
    endloop
  endfacet
  facet normal 0 0 1
    outer loop
      vertex 2.53617 12.7502 14
      vertex 3.15874 -12.6104 14
      vertex 3.15874 12.6104 14
    endloop
  endfacet
  facet normal 0 0 1
    outer loop
      vertex 2.53617 12.7502 14
      vertex 2.53617 -12.7502 14
      vertex 3.15874 -12.6104 14
    endloop
  endfacet
  facet normal 0 0 1
    outer loop
      vertex 1.9075 12.8593 14
      vertex 2.53617 -12.7502 14
      vertex 2.53617 12.7502 14
    endloop
  endfacet
  facet normal 0 0 1
    outer loop
      vertex 1.9075 12.8593 14
      vertex 1.9075 -12.8593 14
      vertex 2.53617 -12.7502 14
    endloop
  endfacet
  facet normal 0 0 1
    outer loop
      vertex 1.27422 12.9374 14
      vertex 1.9075 -12.8593 14
      vertex 1.9075 12.8593 14
    endloop
  endfacet
  facet normal 0 0 1
    outer loop
      vertex 1.27422 12.9374 14
      vertex 1.27422 -12.9374 14
      vertex 1.9075 -12.8593 14
    endloop
  endfacet
  facet normal 0 0 1
    outer loop
      vertex 0.637879 12.9843 14
      vertex 1.27422 -12.9374 14
      vertex 1.27422 12.9374 14
    endloop
  endfacet
  facet normal 0 0 1
    outer loop
      vertex 0.637879 12.9843 14
      vertex 0.637879 -12.9843 14
      vertex 1.27422 -12.9374 14
    endloop
  endfacet
  facet normal 0 0 1
    outer loop
      vertex 0 13 14
      vertex 0.637879 -12.9843 14
      vertex 0.637879 12.9843 14
    endloop
  endfacet
  facet normal 0 0 1
    outer loop
      vertex 0 13 14
      vertex 0 -13 14
      vertex 0.637879 -12.9843 14
    endloop
  endfacet
  facet normal -0 0 1
    outer loop
      vertex -50 13 14
      vertex 0 -13 14
      vertex 0 13 14
    endloop
  endfacet
  facet normal 0 0 1
    outer loop
      vertex 0 -13 14
      vertex -50 13 14
      vertex -50 -13 14
    endloop
  endfacet
  facet normal -1 0 0
    outer loop
      vertex -54 -0.5 64
      vertex -54 -6.5 64
      vertex -54 -0.5 70
    endloop
  endfacet
  facet normal -1 0 0
    outer loop
      vertex -54 13 10
      vertex -54 7.5 40
      vertex -54 13 74
    endloop
  endfacet
  facet normal -1 0 0
    outer loop
      vertex -54 13 10
      vertex -54 1.5 35
      vertex -54 7.5 40
    endloop
  endfacet
  facet normal -1 0 0
    outer loop
      vertex -54 13 10
      vertex -54 -0.5 35
      vertex -54 1.5 35
    endloop
  endfacet
  facet normal -1 0 0
    outer loop
      vertex -54 -0.5 35
      vertex -54 -6.5 40
      vertex -54 -0.5 40
    endloop
  endfacet
  facet normal -1 0 0
    outer loop
      vertex -54 -13 10
      vertex -54 -0.5 35
      vertex -54 13 10
    endloop
  endfacet
  facet normal -1 0 0
    outer loop
      vertex -54 -13 74
      vertex -54 -6.5 40
      vertex -54 -13 10
    endloop
  endfacet
  facet normal -1 -0 0
    outer loop
      vertex -54 -0.5 35
      vertex -54 -13 10
      vertex -54 -6.5 40
    endloop
  endfacet
  facet normal -1 0 0
    outer loop
      vertex -54 7.5 64
      vertex -54 13 74
      vertex -54 7.5 40
    endloop
  endfacet
  facet normal -1 0 0
    outer loop
      vertex -54 1.5 70
      vertex -54 7.5 64
      vertex -54 1.5 64
    endloop
  endfacet
  facet normal -1 0 0
    outer loop
      vertex -54 7.5 64
      vertex -54 1.5 70
      vertex -54 13 74
    endloop
  endfacet
  facet normal -1 0 0
    outer loop
      vertex -54 -0.5 70
      vertex -54 13 74
      vertex -54 1.5 70
    endloop
  endfacet
  facet normal -1 0 0
    outer loop
      vertex -54 -0.5 70
      vertex -54 -13 74
      vertex -54 13 74
    endloop
  endfacet
  facet normal -1 0 0
    outer loop
      vertex -54 -6.5 64
      vertex -54 -13 74
      vertex -54 -0.5 70
    endloop
  endfacet
  facet normal -1 0 0
    outer loop
      vertex -54 -6.5 40
      vertex -54 -13 74
      vertex -54 -6.5 64
    endloop
  endfacet
  facet normal -1 -0 0
    outer loop
      vertex -54 7.5 40
      vertex -54 1.5 35
      vertex -54 1.5 40
    endloop
  endfacet
  facet normal 0 1 0
    outer loop
      vertex 0 13 14
      vertex 0 13 10
      vertex -50 13 14
    endloop
  endfacet
  facet normal 0 1 -0
    outer loop
      vertex -50 13 14
      vertex -54 13 74
      vertex -50 13 74
    endloop
  endfacet
  facet normal 0 1 0
    outer loop
      vertex -50 13 14
      vertex -54 13 10
      vertex -54 13 74
    endloop
  endfacet
  facet normal 0 1 0
    outer loop
      vertex -54 13 10
      vertex -50 13 14
      vertex 0 13 10
    endloop
  endfacet
  facet normal 0 -1 0
    outer loop
      vertex -54 -13 74
      vertex -50 -13 14
      vertex -50 -13 74
    endloop
  endfacet
  facet normal 0 -1 0
    outer loop
      vertex -54 -13 10
      vertex -50 -13 14
      vertex -54 -13 74
    endloop
  endfacet
  facet normal 0 -1 0
    outer loop
      vertex 0 -13 10
      vertex -50 -13 14
      vertex -54 -13 10
    endloop
  endfacet
  facet normal 0 -1 0
    outer loop
      vertex -50 -13 14
      vertex 0 -13 10
      vertex 0 -13 14
    endloop
  endfacet
  facet normal 0 0 -1
    outer loop
      vertex -54 1.5 64
      vertex -50 7.5 64
      vertex -50 1.5 64
    endloop
  endfacet
  facet normal -0 0 -1
    outer loop
      vertex -50 7.5 64
      vertex -54 1.5 64
      vertex -54 7.5 64
    endloop
  endfacet
  facet normal 0 0 -1
    outer loop
      vertex -54 -6.5 64
      vertex -50 -0.5 64
      vertex -50 -6.5 64
    endloop
  endfacet
  facet normal -0 0 -1
    outer loop
      vertex -50 -0.5 64
      vertex -54 -6.5 64
      vertex -54 -0.5 64
    endloop
  endfacet
  facet normal -0 0 1
    outer loop
      vertex -54 7.5 40
      vertex -50 1.5 40
      vertex -50 7.5 40
    endloop
  endfacet
  facet normal 0 0 1
    outer loop
      vertex -50 1.5 40
      vertex -54 7.5 40
      vertex -54 1.5 40
    endloop
  endfacet
  facet normal -0 0 1
    outer loop
      vertex -54 -0.5 40
      vertex -50 -6.5 40
      vertex -50 -0.5 40
    endloop
  endfacet
  facet normal 0 0 1
    outer loop
      vertex -50 -6.5 40
      vertex -54 -0.5 40
      vertex -54 -6.5 40
    endloop
  endfacet
  facet normal 0 -1 0
    outer loop
      vertex -54 7.5 40
      vertex -50 7.5 64
      vertex -54 7.5 64
    endloop
  endfacet
  facet normal 0 -1 -0
    outer loop
      vertex -50 7.5 64
      vertex -54 7.5 40
      vertex -50 7.5 40
    endloop
  endfacet
  facet normal 0 1 -0
    outer loop
      vertex -50 -6.5 40
      vertex -54 -6.5 64
      vertex -50 -6.5 64
    endloop
  endfacet
  facet normal 0 1 0
    outer loop
      vertex -54 -6.5 64
      vertex -50 -6.5 40
      vertex -54 -6.5 40
    endloop
  endfacet
  facet normal 0 0 -1
    outer loop
      vertex -54 -0.5 70
      vertex -50 1.5 70
      vertex -50 -0.5 70
    endloop
  endfacet
  facet normal -0 0 -1
    outer loop
      vertex -50 1.5 70
      vertex -54 -0.5 70
      vertex -54 1.5 70
    endloop
  endfacet
  facet normal 0 -1 0
    outer loop
      vertex -54 1.5 64
      vertex -50 1.5 70
      vertex -54 1.5 70
    endloop
  endfacet
  facet normal 0 -1 -0
    outer loop
      vertex -50 1.5 70
      vertex -54 1.5 64
      vertex -50 1.5 64
    endloop
  endfacet
  facet normal 0 1 -0
    outer loop
      vertex -50 -0.5 64
      vertex -54 -0.5 70
      vertex -50 -0.5 70
    endloop
  endfacet
  facet normal 0 1 0
    outer loop
      vertex -54 -0.5 70
      vertex -50 -0.5 64
      vertex -54 -0.5 64
    endloop
  endfacet
  facet normal -0 0 1
    outer loop
      vertex -54 1.5 35
      vertex -50 -0.5 35
      vertex -50 1.5 35
    endloop
  endfacet
  facet normal 0 0 1
    outer loop
      vertex -50 -0.5 35
      vertex -54 1.5 35
      vertex -54 -0.5 35
    endloop
  endfacet
  facet normal 0 -1 0
    outer loop
      vertex -54 1.5 35
      vertex -50 1.5 40
      vertex -54 1.5 40
    endloop
  endfacet
  facet normal 0 -1 -0
    outer loop
      vertex -50 1.5 40
      vertex -54 1.5 35
      vertex -50 1.5 35
    endloop
  endfacet
  facet normal 0 1 -0
    outer loop
      vertex -50 -0.5 35
      vertex -54 -0.5 40
      vertex -50 -0.5 40
    endloop
  endfacet
  facet normal 0 1 0
    outer loop
      vertex -54 -0.5 40
      vertex -50 -0.5 35
      vertex -54 -0.5 35
    endloop
  endfacet
  facet normal -0.689537 -0.724251 0
    outer loop
      vertex -9.19239 -9.19239 0
      vertex -8.73027 -9.63236 10
      vertex -9.19239 -9.19239 10
    endloop
  endfacet
  facet normal -0.689537 -0.724251 -0
    outer loop
      vertex -8.73027 -9.63236 10
      vertex -9.19239 -9.19239 0
      vertex -8.73027 -9.63236 0
    endloop
  endfacet
  facet normal 0.844827 0.53504 0
    outer loop
      vertex 11.1505 6.68334 14
      vertex 10.8091 7.22241 0
      vertex 10.8091 7.22241 14
    endloop
  endfacet
  facet normal 0.844827 0.53504 0
    outer loop
      vertex 10.8091 7.22241 0
      vertex 11.1505 6.68334 14
      vertex 11.1505 6.68334 0
    endloop
  endfacet
  facet normal -0.999697 -0.0246054 0
    outer loop
      vertex -12.9843 -0.637879 0
      vertex -13 0 10
      vertex -13 0 0
    endloop
  endfacet
  facet normal -0.999697 -0.0246054 0
    outer loop
      vertex -13 0 10
      vertex -12.9843 -0.637879 0
      vertex -12.9843 -0.637879 10
    endloop
  endfacet
  facet normal -0.65314 0.757237 0
    outer loop
      vertex -8.24711 10.0491 0
      vertex -8.73027 9.63236 10
      vertex -8.24711 10.0491 10
    endloop
  endfacet
  facet normal -0.65314 0.757237 0
    outer loop
      vertex -8.73027 9.63236 10
      vertex -8.24711 10.0491 0
      vertex -8.73027 9.63236 0
    endloop
  endfacet
  facet normal -0.975703 0.219097 0
    outer loop
      vertex -12.7502 2.53617 0
      vertex -12.6104 3.15874 10
      vertex -12.6104 3.15874 0
    endloop
  endfacet
  facet normal -0.975703 0.219097 0
    outer loop
      vertex -12.6104 3.15874 10
      vertex -12.7502 2.53617 0
      vertex -12.7502 2.53617 10
    endloop
  endfacet
  facet normal -0.757237 -0.65314 0
    outer loop
      vertex -9.63236 -8.73027 0
      vertex -10.0491 -8.24711 10
      vertex -10.0491 -8.24711 0
    endloop
  endfacet
  facet normal -0.757237 -0.65314 0
    outer loop
      vertex -10.0491 -8.24711 10
      vertex -9.63236 -8.73027 0
      vertex -9.63236 -8.73027 10
    endloop
  endfacet
  facet normal -0.405141 0.914254 0
    outer loop
      vertex -4.97488 12.0104 0
      vertex -5.55822 11.7519 10
      vertex -4.97488 12.0104 10
    endloop
  endfacet
  facet normal -0.405141 0.914254 0
    outer loop
      vertex -5.55822 11.7519 10
      vertex -4.97488 12.0104 0
      vertex -5.55822 11.7519 0
    endloop
  endfacet
  facet normal -0.757237 0.65314 0
    outer loop
      vertex -10.0491 8.24711 0
      vertex -9.63236 8.73027 10
      vertex -9.63236 8.73027 0
    endloop
  endfacet
  facet normal -0.757237 0.65314 0
    outer loop
      vertex -9.63236 8.73027 10
      vertex -10.0491 8.24711 0
      vertex -10.0491 8.24711 10
    endloop
  endfacet
  facet normal 0.992481 -0.122399 0
    outer loop
      vertex 12.8593 -1.9075 14
      vertex 12.9374 -1.27422 0
      vertex 12.9374 -1.27422 14
    endloop
  endfacet
  facet normal 0.992481 -0.122399 0
    outer loop
      vertex 12.9374 -1.27422 0
      vertex 12.8593 -1.9075 14
      vertex 12.8593 -1.9075 0
    endloop
  endfacet
  facet normal -0.985274 -0.170985 0
    outer loop
      vertex -12.7502 -2.53617 0
      vertex -12.8593 -1.9075 10
      vertex -12.8593 -1.9075 0
    endloop
  endfacet
  facet normal -0.985274 -0.170985 0
    outer loop
      vertex -12.8593 -1.9075 10
      vertex -12.7502 -2.53617 0
      vertex -12.7502 -2.53617 10
    endloop
  endfacet
  facet normal 0.914254 -0.405141 0
    outer loop
      vertex 11.7519 -5.55822 14
      vertex 12.0104 -4.97488 0
      vertex 12.0104 -4.97488 14
    endloop
  endfacet
  facet normal 0.914254 -0.405141 0
    outer loop
      vertex 12.0104 -4.97488 0
      vertex 11.7519 -5.55822 14
      vertex 11.7519 -5.55822 0
    endloop
  endfacet
  facet normal 0.985274 0.170985 0
    outer loop
      vertex 12.8593 1.9075 14
      vertex 12.7502 2.53617 0
      vertex 12.7502 2.53617 14
    endloop
  endfacet
  facet normal 0.985274 0.170985 0
    outer loop
      vertex 12.7502 2.53617 0
      vertex 12.8593 1.9075 14
      vertex 12.8593 1.9075 0
    endloop
  endfacet
  facet normal 0.893214 0.449632 0
    outer loop
      vertex 11.7519 5.55822 14
      vertex 11.465 6.12816 0
      vertex 11.465 6.12816 14
    endloop
  endfacet
  facet normal 0.893214 0.449632 0
    outer loop
      vertex 11.465 6.12816 0
      vertex 11.7519 5.55822 14
      vertex 11.7519 5.55822 0
    endloop
  endfacet
  facet normal -0.932959 0.359982 0
    outer loop
      vertex -12.2401 4.37957 0
      vertex -12.0104 4.97488 10
      vertex -12.0104 4.97488 0
    endloop
  endfacet
  facet normal -0.932959 0.359982 0
    outer loop
      vertex -12.0104 4.97488 10
      vertex -12.2401 4.37957 0
      vertex -12.2401 4.37957 10
    endloop
  endfacet
  facet normal -0.219097 -0.975703 0
    outer loop
      vertex -3.15874 -12.6104 0
      vertex -2.53617 -12.7502 10
      vertex -3.15874 -12.6104 10
    endloop
  endfacet
  facet normal -0.219097 -0.975703 -0
    outer loop
      vertex -2.53617 -12.7502 10
      vertex -3.15874 -12.6104 0
      vertex -2.53617 -12.7502 0
    endloop
  endfacet
  facet normal -0.0735033 -0.997295 0
    outer loop
      vertex -1.27422 -12.9374 0
      vertex -0.637879 -12.9843 10
      vertex -1.27422 -12.9374 10
    endloop
  endfacet
  facet normal -0.0735033 -0.997295 -0
    outer loop
      vertex -0.637879 -12.9843 10
      vertex -1.27422 -12.9374 0
      vertex -0.637879 -12.9843 0
    endloop
  endfacet
  facet normal 0.757237 -0.65314 0
    outer loop
      vertex 9.63236 -8.73027 14
      vertex 10.0491 -8.24711 0
      vertex 10.0491 -8.24711 14
    endloop
  endfacet
  facet normal 0.757237 -0.65314 0
    outer loop
      vertex 10.0491 -8.24711 0
      vertex 9.63236 -8.73027 14
      vertex 9.63236 -8.73027 0
    endloop
  endfacet
  facet normal -0.170985 -0.985274 0
    outer loop
      vertex -2.53617 -12.7502 0
      vertex -1.9075 -12.8593 10
      vertex -2.53617 -12.7502 10
    endloop
  endfacet
  facet normal -0.170985 -0.985274 -0
    outer loop
      vertex -1.9075 -12.8593 10
      vertex -2.53617 -12.7502 0
      vertex -1.9075 -12.8593 0
    endloop
  endfacet
  facet normal -0.122399 -0.992481 0
    outer loop
      vertex -1.9075 -12.8593 0
      vertex -1.27422 -12.9374 10
      vertex -1.9075 -12.8593 10
    endloop
  endfacet
  facet normal -0.122399 -0.992481 -0
    outer loop
      vertex -1.27422 -12.9374 10
      vertex -1.9075 -12.8593 0
      vertex -1.27422 -12.9374 0
    endloop
  endfacet
  facet normal -0.949553 -0.313608 0
    outer loop
      vertex -12.2401 -4.37957 0
      vertex -12.4402 -3.7737 10
      vertex -12.4402 -3.7737 0
    endloop
  endfacet
  facet normal -0.949553 -0.313608 0
    outer loop
      vertex -12.4402 -3.7737 10
      vertex -12.2401 -4.37957 0
      vertex -12.2401 -4.37957 10
    endloop
  endfacet
  facet normal -0.932959 -0.359982 0
    outer loop
      vertex -12.0104 -4.97488 0
      vertex -12.2401 -4.37957 10
      vertex -12.2401 -4.37957 0
    endloop
  endfacet
  facet normal -0.932959 -0.359982 0
    outer loop
      vertex -12.2401 -4.37957 10
      vertex -12.0104 -4.97488 0
      vertex -12.0104 -4.97488 10
    endloop
  endfacet
  facet normal -0.53504 0.844827 0
    outer loop
      vertex -6.68334 11.1505 0
      vertex -7.22241 10.8091 10
      vertex -6.68334 11.1505 10
    endloop
  endfacet
  facet normal -0.53504 0.844827 0
    outer loop
      vertex -7.22241 10.8091 10
      vertex -6.68334 11.1505 0
      vertex -7.22241 10.8091 0
    endloop
  endfacet
  facet normal 0.932959 -0.359982 0
    outer loop
      vertex 12.0104 -4.97488 14
      vertex 12.2401 -4.37957 0
      vertex 12.2401 -4.37957 14
    endloop
  endfacet
  facet normal 0.932959 -0.359982 0
    outer loop
      vertex 12.2401 -4.37957 0
      vertex 12.0104 -4.97488 14
      vertex 12.0104 -4.97488 0
    endloop
  endfacet
  facet normal 0.0735033 -0.997295 0
    outer loop
      vertex 0.637879 -12.9843 0
      vertex 1.27422 -12.9374 14
      vertex 0.637879 -12.9843 14
    endloop
  endfacet
  facet normal 0.0735033 -0.997295 0
    outer loop
      vertex 1.27422 -12.9374 14
      vertex 0.637879 -12.9843 0
      vertex 1.27422 -12.9374 0
    endloop
  endfacet
  facet normal 0.999697 -0.0246054 0
    outer loop
      vertex 12.9843 -0.637879 14
      vertex 13 0 0
      vertex 13 0 14
    endloop
  endfacet
  facet normal 0.999697 -0.0246054 0
    outer loop
      vertex 13 0 0
      vertex 12.9843 -0.637879 14
      vertex 12.9843 -0.637879 0
    endloop
  endfacet
  facet normal 0.999697 0.0246054 0
    outer loop
      vertex 13 0 14
      vertex 12.9843 0.637879 0
      vertex 12.9843 0.637879 14
    endloop
  endfacet
  facet normal 0.999697 0.0246054 0
    outer loop
      vertex 12.9843 0.637879 0
      vertex 13 0 14
      vertex 13 0 0
    endloop
  endfacet
  facet normal 0.689537 -0.724251 0
    outer loop
      vertex 8.73027 -9.63236 0
      vertex 9.19239 -9.19239 14
      vertex 8.73027 -9.63236 14
    endloop
  endfacet
  facet normal 0.689537 -0.724251 0
    outer loop
      vertex 9.19239 -9.19239 14
      vertex 8.73027 -9.63236 0
      vertex 9.19239 -9.19239 0
    endloop
  endfacet
  facet normal 0.449632 -0.893214 0
    outer loop
      vertex 5.55822 -11.7519 0
      vertex 6.12816 -11.465 14
      vertex 5.55822 -11.7519 14
    endloop
  endfacet
  facet normal 0.449632 -0.893214 0
    outer loop
      vertex 6.12816 -11.465 14
      vertex 5.55822 -11.7519 0
      vertex 6.12816 -11.465 0
    endloop
  endfacet
  facet normal 0.975703 -0.219097 0
    outer loop
      vertex 12.6104 -3.15874 14
      vertex 12.7502 -2.53617 0
      vertex 12.7502 -2.53617 14
    endloop
  endfacet
  facet normal 0.975703 -0.219097 0
    outer loop
      vertex 12.7502 -2.53617 0
      vertex 12.6104 -3.15874 14
      vertex 12.6104 -3.15874 0
    endloop
  endfacet
  facet normal 0.724251 -0.689537 0
    outer loop
      vertex 9.19239 -9.19239 14
      vertex 9.63236 -8.73027 0
      vertex 9.63236 -8.73027 14
    endloop
  endfacet
  facet normal 0.724251 -0.689537 0
    outer loop
      vertex 9.63236 -8.73027 0
      vertex 9.19239 -9.19239 14
      vertex 9.19239 -9.19239 0
    endloop
  endfacet
  facet normal 0.997295 0.0735033 0
    outer loop
      vertex 12.9843 0.637879 14
      vertex 12.9374 1.27422 0
      vertex 12.9374 1.27422 14
    endloop
  endfacet
  facet normal 0.997295 0.0735033 0
    outer loop
      vertex 12.9374 1.27422 0
      vertex 12.9843 0.637879 14
      vertex 12.9843 0.637879 0
    endloop
  endfacet
  facet normal 0.949553 0.313608 0
    outer loop
      vertex 12.4402 3.7737 14
      vertex 12.2401 4.37957 0
      vertex 12.2401 4.37957 14
    endloop
  endfacet
  facet normal 0.949553 0.313608 0
    outer loop
      vertex 12.2401 4.37957 0
      vertex 12.4402 3.7737 14
      vertex 12.4402 3.7737 0
    endloop
  endfacet
  facet normal -0.844827 -0.53504 0
    outer loop
      vertex -10.8091 -7.22241 0
      vertex -11.1505 -6.68334 10
      vertex -11.1505 -6.68334 0
    endloop
  endfacet
  facet normal -0.844827 -0.53504 0
    outer loop
      vertex -11.1505 -6.68334 10
      vertex -10.8091 -7.22241 0
      vertex -10.8091 -7.22241 10
    endloop
  endfacet
  facet normal 0.992481 0.122399 0
    outer loop
      vertex 12.9374 1.27422 14
      vertex 12.8593 1.9075 0
      vertex 12.8593 1.9075 14
    endloop
  endfacet
  facet normal 0.992481 0.122399 0
    outer loop
      vertex 12.8593 1.9075 0
      vertex 12.9374 1.27422 14
      vertex 12.9374 1.27422 0
    endloop
  endfacet
  facet normal -0.313608 0.949553 0
    outer loop
      vertex -3.7737 12.4402 0
      vertex -4.37957 12.2401 10
      vertex -3.7737 12.4402 10
    endloop
  endfacet
  facet normal -0.313608 0.949553 0
    outer loop
      vertex -4.37957 12.2401 10
      vertex -3.7737 12.4402 0
      vertex -4.37957 12.2401 0
    endloop
  endfacet
  facet normal 0.65314 0.757237 -0
    outer loop
      vertex 8.73027 9.63236 0
      vertex 8.24711 10.0491 14
      vertex 8.73027 9.63236 14
    endloop
  endfacet
  facet normal 0.65314 0.757237 0
    outer loop
      vertex 8.24711 10.0491 14
      vertex 8.73027 9.63236 0
      vertex 8.24711 10.0491 0
    endloop
  endfacet
  facet normal -0.492892 0.870091 0
    outer loop
      vertex -6.12816 11.465 0
      vertex -6.68334 11.1505 10
      vertex -6.12816 11.465 10
    endloop
  endfacet
  facet normal -0.492892 0.870091 0
    outer loop
      vertex -6.68334 11.1505 10
      vertex -6.12816 11.465 0
      vertex -6.68334 11.1505 0
    endloop
  endfacet
  facet normal -0.844827 0.53504 0
    outer loop
      vertex -11.1505 6.68334 0
      vertex -10.8091 7.22241 10
      vertex -10.8091 7.22241 0
    endloop
  endfacet
  facet normal -0.844827 0.53504 0
    outer loop
      vertex -10.8091 7.22241 10
      vertex -11.1505 6.68334 0
      vertex -11.1505 6.68334 10
    endloop
  endfacet
  facet normal 0.170985 0.985274 -0
    outer loop
      vertex 2.53617 12.7502 0
      vertex 1.9075 12.8593 14
      vertex 2.53617 12.7502 14
    endloop
  endfacet
  facet normal 0.170985 0.985274 0
    outer loop
      vertex 1.9075 12.8593 14
      vertex 2.53617 12.7502 0
      vertex 1.9075 12.8593 0
    endloop
  endfacet
  facet normal 0.949553 -0.313608 0
    outer loop
      vertex 12.2401 -4.37957 14
      vertex 12.4402 -3.7737 0
      vertex 12.4402 -3.7737 14
    endloop
  endfacet
  facet normal 0.949553 -0.313608 0
    outer loop
      vertex 12.4402 -3.7737 0
      vertex 12.2401 -4.37957 14
      vertex 12.2401 -4.37957 0
    endloop
  endfacet
  facet normal 0.122399 0.992481 -0
    outer loop
      vertex 1.9075 12.8593 0
      vertex 1.27422 12.9374 14
      vertex 1.9075 12.8593 14
    endloop
  endfacet
  facet normal 0.122399 0.992481 0
    outer loop
      vertex 1.27422 12.9374 14
      vertex 1.9075 12.8593 0
      vertex 1.27422 12.9374 0
    endloop
  endfacet
  facet normal 0.844827 -0.53504 0
    outer loop
      vertex 10.8091 -7.22241 14
      vertex 11.1505 -6.68334 0
      vertex 11.1505 -6.68334 14
    endloop
  endfacet
  facet normal 0.844827 -0.53504 0
    outer loop
      vertex 11.1505 -6.68334 0
      vertex 10.8091 -7.22241 14
      vertex 10.8091 -7.22241 0
    endloop
  endfacet
  facet normal -0.817591 0.575799 0
    outer loop
      vertex -10.8091 7.22241 0
      vertex -10.4417 7.74409 10
      vertex -10.4417 7.74409 0
    endloop
  endfacet
  facet normal -0.817591 0.575799 0
    outer loop
      vertex -10.4417 7.74409 10
      vertex -10.8091 7.22241 0
      vertex -10.8091 7.22241 10
    endloop
  endfacet
  facet normal 0.61527 0.788317 -0
    outer loop
      vertex 8.24711 10.0491 0
      vertex 7.74409 10.4417 14
      vertex 8.24711 10.0491 14
    endloop
  endfacet
  facet normal 0.61527 0.788317 0
    outer loop
      vertex 7.74409 10.4417 14
      vertex 8.24711 10.0491 0
      vertex 7.74409 10.4417 0
    endloop
  endfacet
  facet normal 0.0735033 0.997295 -0
    outer loop
      vertex 1.27422 12.9374 0
      vertex 0.637879 12.9843 14
      vertex 1.27422 12.9374 14
    endloop
  endfacet
  facet normal 0.0735033 0.997295 0
    outer loop
      vertex 0.637879 12.9843 14
      vertex 1.27422 12.9374 0
      vertex 0.637879 12.9843 0
    endloop
  endfacet
  facet normal 0.689537 0.724251 -0
    outer loop
      vertex 9.19239 9.19239 0
      vertex 8.73027 9.63236 14
      vertex 9.19239 9.19239 14
    endloop
  endfacet
  facet normal 0.689537 0.724251 0
    outer loop
      vertex 8.73027 9.63236 14
      vertex 9.19239 9.19239 0
      vertex 8.73027 9.63236 0
    endloop
  endfacet
  facet normal -0.985274 0.170985 0
    outer loop
      vertex -12.8593 1.9075 0
      vertex -12.7502 2.53617 10
      vertex -12.7502 2.53617 0
    endloop
  endfacet
  facet normal -0.985274 0.170985 0
    outer loop
      vertex -12.7502 2.53617 10
      vertex -12.8593 1.9075 0
      vertex -12.8593 1.9075 10
    endloop
  endfacet
  facet normal 0.975703 0.219097 0
    outer loop
      vertex 12.7502 2.53617 14
      vertex 12.6104 3.15874 0
      vertex 12.6104 3.15874 14
    endloop
  endfacet
  facet normal 0.975703 0.219097 0
    outer loop
      vertex 12.6104 3.15874 0
      vertex 12.7502 2.53617 14
      vertex 12.7502 2.53617 0
    endloop
  endfacet
  facet normal -0.949553 0.313608 0
    outer loop
      vertex -12.4402 3.7737 0
      vertex -12.2401 4.37957 10
      vertex -12.2401 4.37957 0
    endloop
  endfacet
  facet normal -0.949553 0.313608 0
    outer loop
      vertex -12.2401 4.37957 10
      vertex -12.4402 3.7737 0
      vertex -12.4402 3.7737 10
    endloop
  endfacet
  facet normal -0.219097 0.975703 0
    outer loop
      vertex -2.53617 12.7502 0
      vertex -3.15874 12.6104 10
      vertex -2.53617 12.7502 10
    endloop
  endfacet
  facet normal -0.219097 0.975703 0
    outer loop
      vertex -3.15874 12.6104 10
      vertex -2.53617 12.7502 0
      vertex -3.15874 12.6104 0
    endloop
  endfacet
  facet normal 0.359982 -0.932959 0
    outer loop
      vertex 4.37957 -12.2401 0
      vertex 4.97488 -12.0104 14
      vertex 4.37957 -12.2401 14
    endloop
  endfacet
  facet normal 0.359982 -0.932959 0
    outer loop
      vertex 4.97488 -12.0104 14
      vertex 4.37957 -12.2401 0
      vertex 4.97488 -12.0104 0
    endloop
  endfacet
  facet normal -0.997295 -0.0735033 0
    outer loop
      vertex -12.9374 -1.27422 0
      vertex -12.9843 -0.637879 10
      vertex -12.9843 -0.637879 0
    endloop
  endfacet
  facet normal -0.997295 -0.0735033 0
    outer loop
      vertex -12.9843 -0.637879 10
      vertex -12.9374 -1.27422 0
      vertex -12.9374 -1.27422 10
    endloop
  endfacet
  facet normal 0.219097 -0.975703 0
    outer loop
      vertex 2.53617 -12.7502 0
      vertex 3.15874 -12.6104 14
      vertex 2.53617 -12.7502 14
    endloop
  endfacet
  facet normal 0.219097 -0.975703 0
    outer loop
      vertex 3.15874 -12.6104 14
      vertex 2.53617 -12.7502 0
      vertex 3.15874 -12.6104 0
    endloop
  endfacet
  facet normal 0.405141 0.914254 -0
    outer loop
      vertex 5.55822 11.7519 0
      vertex 4.97488 12.0104 14
      vertex 5.55822 11.7519 14
    endloop
  endfacet
  facet normal 0.405141 0.914254 0
    outer loop
      vertex 4.97488 12.0104 14
      vertex 5.55822 11.7519 0
      vertex 4.97488 12.0104 0
    endloop
  endfacet
  facet normal 0.997295 -0.0735033 0
    outer loop
      vertex 12.9374 -1.27422 14
      vertex 12.9843 -0.637879 0
      vertex 12.9843 -0.637879 14
    endloop
  endfacet
  facet normal 0.997295 -0.0735033 0
    outer loop
      vertex 12.9843 -0.637879 0
      vertex 12.9374 -1.27422 14
      vertex 12.9374 -1.27422 0
    endloop
  endfacet
  facet normal -0.170985 0.985274 0
    outer loop
      vertex -1.9075 12.8593 0
      vertex -2.53617 12.7502 10
      vertex -1.9075 12.8593 10
    endloop
  endfacet
  facet normal -0.170985 0.985274 0
    outer loop
      vertex -2.53617 12.7502 10
      vertex -1.9075 12.8593 0
      vertex -2.53617 12.7502 0
    endloop
  endfacet
  facet normal 0.963769 0.266738 0
    outer loop
      vertex 12.6104 3.15874 14
      vertex 12.4402 3.7737 0
      vertex 12.4402 3.7737 14
    endloop
  endfacet
  facet normal 0.963769 0.266738 0
    outer loop
      vertex 12.4402 3.7737 0
      vertex 12.6104 3.15874 14
      vertex 12.6104 3.15874 0
    endloop
  endfacet
  facet normal -0.313608 -0.949553 0
    outer loop
      vertex -4.37957 -12.2401 0
      vertex -3.7737 -12.4402 10
      vertex -4.37957 -12.2401 10
    endloop
  endfacet
  facet normal -0.313608 -0.949553 -0
    outer loop
      vertex -3.7737 -12.4402 10
      vertex -4.37957 -12.2401 0
      vertex -3.7737 -12.4402 0
    endloop
  endfacet
  facet normal -0.788317 -0.61527 0
    outer loop
      vertex -10.0491 -8.24711 0
      vertex -10.4417 -7.74409 10
      vertex -10.4417 -7.74409 0
    endloop
  endfacet
  facet normal -0.788317 -0.61527 0
    outer loop
      vertex -10.4417 -7.74409 10
      vertex -10.0491 -8.24711 0
      vertex -10.0491 -8.24711 10
    endloop
  endfacet
  facet normal 0.0246054 -0.999697 0
    outer loop
      vertex 0 -13 10
      vertex 0.637879 -12.9843 14
      vertex 0 -13 14
    endloop
  endfacet
  facet normal 0.0246054 -0.999697 0
    outer loop
      vertex 0.637879 -12.9843 0
      vertex 0 -13 10
      vertex 0 -13 0
    endloop
  endfacet
  facet normal 0.0246054 -0.999697 0
    outer loop
      vertex 0 -13 10
      vertex 0.637879 -12.9843 0
      vertex 0.637879 -12.9843 14
    endloop
  endfacet
  facet normal 0.870091 0.492892 0
    outer loop
      vertex 11.465 6.12816 14
      vertex 11.1505 6.68334 0
      vertex 11.1505 6.68334 14
    endloop
  endfacet
  facet normal 0.870091 0.492892 0
    outer loop
      vertex 11.1505 6.68334 0
      vertex 11.465 6.12816 14
      vertex 11.465 6.12816 0
    endloop
  endfacet
  facet normal -0.449632 -0.893214 0
    outer loop
      vertex -6.12816 -11.465 0
      vertex -5.55822 -11.7519 10
      vertex -6.12816 -11.465 10
    endloop
  endfacet
  facet normal -0.449632 -0.893214 -0
    outer loop
      vertex -5.55822 -11.7519 10
      vertex -6.12816 -11.465 0
      vertex -5.55822 -11.7519 0
    endloop
  endfacet
  facet normal 0.893214 -0.449632 0
    outer loop
      vertex 11.465 -6.12816 14
      vertex 11.7519 -5.55822 0
      vertex 11.7519 -5.55822 14
    endloop
  endfacet
  facet normal 0.893214 -0.449632 0
    outer loop
      vertex 11.7519 -5.55822 0
      vertex 11.465 -6.12816 14
      vertex 11.465 -6.12816 0
    endloop
  endfacet
  facet normal 0.313608 -0.949553 0
    outer loop
      vertex 3.7737 -12.4402 0
      vertex 4.37957 -12.2401 14
      vertex 3.7737 -12.4402 14
    endloop
  endfacet
  facet normal 0.313608 -0.949553 0
    outer loop
      vertex 4.37957 -12.2401 14
      vertex 3.7737 -12.4402 0
      vertex 4.37957 -12.2401 0
    endloop
  endfacet
  facet normal 0.757237 0.65314 0
    outer loop
      vertex 10.0491 8.24711 14
      vertex 9.63236 8.73027 0
      vertex 9.63236 8.73027 14
    endloop
  endfacet
  facet normal 0.757237 0.65314 0
    outer loop
      vertex 9.63236 8.73027 0
      vertex 10.0491 8.24711 14
      vertex 10.0491 8.24711 0
    endloop
  endfacet
  facet normal -0.724251 0.689537 0
    outer loop
      vertex -9.63236 8.73027 0
      vertex -9.19239 9.19239 10
      vertex -9.19239 9.19239 0
    endloop
  endfacet
  facet normal -0.724251 0.689537 0
    outer loop
      vertex -9.19239 9.19239 10
      vertex -9.63236 8.73027 0
      vertex -9.63236 8.73027 10
    endloop
  endfacet
  facet normal 0.359982 0.932959 -0
    outer loop
      vertex 4.97488 12.0104 0
      vertex 4.37957 12.2401 14
      vertex 4.97488 12.0104 14
    endloop
  endfacet
  facet normal 0.359982 0.932959 0
    outer loop
      vertex 4.37957 12.2401 14
      vertex 4.97488 12.0104 0
      vertex 4.37957 12.2401 0
    endloop
  endfacet
  facet normal -0.997295 0.0735033 0
    outer loop
      vertex -12.9843 0.637879 0
      vertex -12.9374 1.27422 10
      vertex -12.9374 1.27422 0
    endloop
  endfacet
  facet normal -0.997295 0.0735033 0
    outer loop
      vertex -12.9374 1.27422 10
      vertex -12.9843 0.637879 0
      vertex -12.9843 0.637879 10
    endloop
  endfacet
  facet normal 0.914254 0.405141 0
    outer loop
      vertex 12.0104 4.97488 14
      vertex 11.7519 5.55822 0
      vertex 11.7519 5.55822 14
    endloop
  endfacet
  facet normal 0.914254 0.405141 0
    outer loop
      vertex 11.7519 5.55822 0
      vertex 12.0104 4.97488 14
      vertex 12.0104 4.97488 0
    endloop
  endfacet
  facet normal 0.963769 -0.266738 0
    outer loop
      vertex 12.4402 -3.7737 14
      vertex 12.6104 -3.15874 0
      vertex 12.6104 -3.15874 14
    endloop
  endfacet
  facet normal 0.963769 -0.266738 0
    outer loop
      vertex 12.6104 -3.15874 0
      vertex 12.4402 -3.7737 14
      vertex 12.4402 -3.7737 0
    endloop
  endfacet
  facet normal -0.914254 0.405141 0
    outer loop
      vertex -12.0104 4.97488 0
      vertex -11.7519 5.55822 10
      vertex -11.7519 5.55822 0
    endloop
  endfacet
  facet normal -0.914254 0.405141 0
    outer loop
      vertex -11.7519 5.55822 10
      vertex -12.0104 4.97488 0
      vertex -12.0104 4.97488 10
    endloop
  endfacet
  facet normal -0.492892 -0.870091 0
    outer loop
      vertex -6.68334 -11.1505 0
      vertex -6.12816 -11.465 10
      vertex -6.68334 -11.1505 10
    endloop
  endfacet
  facet normal -0.492892 -0.870091 -0
    outer loop
      vertex -6.12816 -11.465 10
      vertex -6.68334 -11.1505 0
      vertex -6.12816 -11.465 0
    endloop
  endfacet
  facet normal 0.65314 -0.757237 0
    outer loop
      vertex 8.24711 -10.0491 0
      vertex 8.73027 -9.63236 14
      vertex 8.24711 -10.0491 14
    endloop
  endfacet
  facet normal 0.65314 -0.757237 0
    outer loop
      vertex 8.73027 -9.63236 14
      vertex 8.24711 -10.0491 0
      vertex 8.73027 -9.63236 0
    endloop
  endfacet
  facet normal -0.817591 -0.575799 0
    outer loop
      vertex -10.4417 -7.74409 0
      vertex -10.8091 -7.22241 10
      vertex -10.8091 -7.22241 0
    endloop
  endfacet
  facet normal -0.817591 -0.575799 0
    outer loop
      vertex -10.8091 -7.22241 10
      vertex -10.4417 -7.74409 0
      vertex -10.4417 -7.74409 10
    endloop
  endfacet
  facet normal -0.0246054 0.999697 0
    outer loop
      vertex 0 13 0
      vertex -0.637879 12.9843 10
      vertex 0 13 10
    endloop
  endfacet
  facet normal -0.0246054 0.999697 0
    outer loop
      vertex -0.637879 12.9843 10
      vertex 0 13 0
      vertex -0.637879 12.9843 0
    endloop
  endfacet
  facet normal 0.817591 0.575799 0
    outer loop
      vertex 10.8091 7.22241 14
      vertex 10.4417 7.74409 0
      vertex 10.4417 7.74409 14
    endloop
  endfacet
  facet normal 0.817591 0.575799 0
    outer loop
      vertex 10.4417 7.74409 0
      vertex 10.8091 7.22241 14
      vertex 10.8091 7.22241 0
    endloop
  endfacet
  facet normal -0.689537 0.724251 0
    outer loop
      vertex -8.73027 9.63236 0
      vertex -9.19239 9.19239 10
      vertex -8.73027 9.63236 10
    endloop
  endfacet
  facet normal -0.689537 0.724251 0
    outer loop
      vertex -9.19239 9.19239 10
      vertex -8.73027 9.63236 0
      vertex -9.19239 9.19239 0
    endloop
  endfacet
  facet normal 0.449632 0.893214 -0
    outer loop
      vertex 6.12816 11.465 0
      vertex 5.55822 11.7519 14
      vertex 6.12816 11.465 14
    endloop
  endfacet
  facet normal 0.449632 0.893214 0
    outer loop
      vertex 5.55822 11.7519 14
      vertex 6.12816 11.465 0
      vertex 5.55822 11.7519 0
    endloop
  endfacet
  facet normal -0.992481 -0.122399 0
    outer loop
      vertex -12.8593 -1.9075 0
      vertex -12.9374 -1.27422 10
      vertex -12.9374 -1.27422 0
    endloop
  endfacet
  facet normal -0.992481 -0.122399 0
    outer loop
      vertex -12.9374 -1.27422 10
      vertex -12.8593 -1.9075 0
      vertex -12.8593 -1.9075 10
    endloop
  endfacet
  facet normal -0.449632 0.893214 0
    outer loop
      vertex -5.55822 11.7519 0
      vertex -6.12816 11.465 10
      vertex -5.55822 11.7519 10
    endloop
  endfacet
  facet normal -0.449632 0.893214 0
    outer loop
      vertex -6.12816 11.465 10
      vertex -5.55822 11.7519 0
      vertex -6.12816 11.465 0
    endloop
  endfacet
  facet normal -0.0735033 0.997295 0
    outer loop
      vertex -0.637879 12.9843 0
      vertex -1.27422 12.9374 10
      vertex -0.637879 12.9843 10
    endloop
  endfacet
  facet normal -0.0735033 0.997295 0
    outer loop
      vertex -1.27422 12.9374 10
      vertex -0.637879 12.9843 0
      vertex -1.27422 12.9374 0
    endloop
  endfacet
  facet normal 0.313608 0.949553 -0
    outer loop
      vertex 4.37957 12.2401 0
      vertex 3.7737 12.4402 14
      vertex 4.37957 12.2401 14
    endloop
  endfacet
  facet normal 0.313608 0.949553 0
    outer loop
      vertex 3.7737 12.4402 14
      vertex 4.37957 12.2401 0
      vertex 3.7737 12.4402 0
    endloop
  endfacet
  facet normal -0.870091 -0.492892 0
    outer loop
      vertex -11.1505 -6.68334 0
      vertex -11.465 -6.12816 10
      vertex -11.465 -6.12816 0
    endloop
  endfacet
  facet normal -0.870091 -0.492892 0
    outer loop
      vertex -11.465 -6.12816 10
      vertex -11.1505 -6.68334 0
      vertex -11.1505 -6.68334 10
    endloop
  endfacet
  facet normal 0.575799 0.817591 -0
    outer loop
      vertex 7.74409 10.4417 0
      vertex 7.22241 10.8091 14
      vertex 7.74409 10.4417 14
    endloop
  endfacet
  facet normal 0.575799 0.817591 0
    outer loop
      vertex 7.22241 10.8091 14
      vertex 7.74409 10.4417 0
      vertex 7.22241 10.8091 0
    endloop
  endfacet
  facet normal -0.788317 0.61527 0
    outer loop
      vertex -10.4417 7.74409 0
      vertex -10.0491 8.24711 10
      vertex -10.0491 8.24711 0
    endloop
  endfacet
  facet normal -0.788317 0.61527 0
    outer loop
      vertex -10.0491 8.24711 10
      vertex -10.4417 7.74409 0
      vertex -10.4417 7.74409 10
    endloop
  endfacet
  facet normal 0.0246054 0.999697 0
    outer loop
      vertex 0.637879 12.9843 14
      vertex 0 13 10
      vertex 0 13 14
    endloop
  endfacet
  facet normal 0.0246054 0.999697 -0
    outer loop
      vertex 0.637879 12.9843 0
      vertex 0 13 10
      vertex 0.637879 12.9843 14
    endloop
  endfacet
  facet normal 0.0246054 0.999697 0
    outer loop
      vertex 0 13 10
      vertex 0.637879 12.9843 0
      vertex 0 13 0
    endloop
  endfacet
  facet normal -0.122399 0.992481 0
    outer loop
      vertex -1.27422 12.9374 0
      vertex -1.9075 12.8593 10
      vertex -1.27422 12.9374 10
    endloop
  endfacet
  facet normal -0.122399 0.992481 0
    outer loop
      vertex -1.9075 12.8593 10
      vertex -1.27422 12.9374 0
      vertex -1.9075 12.8593 0
    endloop
  endfacet
  facet normal 0.53504 0.844827 -0
    outer loop
      vertex 7.22241 10.8091 0
      vertex 6.68334 11.1505 14
      vertex 7.22241 10.8091 14
    endloop
  endfacet
  facet normal 0.53504 0.844827 0
    outer loop
      vertex 6.68334 11.1505 14
      vertex 7.22241 10.8091 0
      vertex 6.68334 11.1505 0
    endloop
  endfacet
  facet normal 0.170985 -0.985274 0
    outer loop
      vertex 1.9075 -12.8593 0
      vertex 2.53617 -12.7502 14
      vertex 1.9075 -12.8593 14
    endloop
  endfacet
  facet normal 0.170985 -0.985274 0
    outer loop
      vertex 2.53617 -12.7502 14
      vertex 1.9075 -12.8593 0
      vertex 2.53617 -12.7502 0
    endloop
  endfacet
  facet normal -0.359982 0.932959 0
    outer loop
      vertex -4.37957 12.2401 0
      vertex -4.97488 12.0104 10
      vertex -4.37957 12.2401 10
    endloop
  endfacet
  facet normal -0.359982 0.932959 0
    outer loop
      vertex -4.97488 12.0104 10
      vertex -4.37957 12.2401 0
      vertex -4.97488 12.0104 0
    endloop
  endfacet
  facet normal 0.492892 0.870091 -0
    outer loop
      vertex 6.68334 11.1505 0
      vertex 6.12816 11.465 14
      vertex 6.68334 11.1505 14
    endloop
  endfacet
  facet normal 0.492892 0.870091 0
    outer loop
      vertex 6.12816 11.465 14
      vertex 6.68334 11.1505 0
      vertex 6.12816 11.465 0
    endloop
  endfacet
  facet normal -0.724251 -0.689537 0
    outer loop
      vertex -9.19239 -9.19239 0
      vertex -9.63236 -8.73027 10
      vertex -9.63236 -8.73027 0
    endloop
  endfacet
  facet normal -0.724251 -0.689537 0
    outer loop
      vertex -9.63236 -8.73027 10
      vertex -9.19239 -9.19239 0
      vertex -9.19239 -9.19239 10
    endloop
  endfacet
  facet normal 0.932959 0.359982 0
    outer loop
      vertex 12.2401 4.37957 14
      vertex 12.0104 4.97488 0
      vertex 12.0104 4.97488 14
    endloop
  endfacet
  facet normal 0.932959 0.359982 0
    outer loop
      vertex 12.0104 4.97488 0
      vertex 12.2401 4.37957 14
      vertex 12.2401 4.37957 0
    endloop
  endfacet
  facet normal -0.992481 0.122399 0
    outer loop
      vertex -12.9374 1.27422 0
      vertex -12.8593 1.9075 10
      vertex -12.8593 1.9075 0
    endloop
  endfacet
  facet normal -0.992481 0.122399 0
    outer loop
      vertex -12.8593 1.9075 10
      vertex -12.9374 1.27422 0
      vertex -12.9374 1.27422 10
    endloop
  endfacet
  facet normal -0.53504 -0.844827 0
    outer loop
      vertex -7.22241 -10.8091 0
      vertex -6.68334 -11.1505 10
      vertex -7.22241 -10.8091 10
    endloop
  endfacet
  facet normal -0.53504 -0.844827 -0
    outer loop
      vertex -6.68334 -11.1505 10
      vertex -7.22241 -10.8091 0
      vertex -6.68334 -11.1505 0
    endloop
  endfacet
  facet normal 0.788317 -0.61527 0
    outer loop
      vertex 10.0491 -8.24711 14
      vertex 10.4417 -7.74409 0
      vertex 10.4417 -7.74409 14
    endloop
  endfacet
  facet normal 0.788317 -0.61527 0
    outer loop
      vertex 10.4417 -7.74409 0
      vertex 10.0491 -8.24711 14
      vertex 10.0491 -8.24711 0
    endloop
  endfacet
  facet normal -0.999697 0.0246054 0
    outer loop
      vertex -13 0 0
      vertex -12.9843 0.637879 10
      vertex -12.9843 0.637879 0
    endloop
  endfacet
  facet normal -0.999697 0.0246054 0
    outer loop
      vertex -12.9843 0.637879 10
      vertex -13 0 0
      vertex -13 0 10
    endloop
  endfacet
  facet normal 0.575799 -0.817591 0
    outer loop
      vertex 7.22241 -10.8091 0
      vertex 7.74409 -10.4417 14
      vertex 7.22241 -10.8091 14
    endloop
  endfacet
  facet normal 0.575799 -0.817591 0
    outer loop
      vertex 7.74409 -10.4417 14
      vertex 7.22241 -10.8091 0
      vertex 7.74409 -10.4417 0
    endloop
  endfacet
  facet normal 0.788317 0.61527 0
    outer loop
      vertex 10.4417 7.74409 14
      vertex 10.0491 8.24711 0
      vertex 10.0491 8.24711 14
    endloop
  endfacet
  facet normal 0.788317 0.61527 0
    outer loop
      vertex 10.0491 8.24711 0
      vertex 10.4417 7.74409 14
      vertex 10.4417 7.74409 0
    endloop
  endfacet
  facet normal 0.724251 0.689537 0
    outer loop
      vertex 9.63236 8.73027 14
      vertex 9.19239 9.19239 0
      vertex 9.19239 9.19239 14
    endloop
  endfacet
  facet normal 0.724251 0.689537 0
    outer loop
      vertex 9.19239 9.19239 0
      vertex 9.63236 8.73027 14
      vertex 9.63236 8.73027 0
    endloop
  endfacet
  facet normal 0.53504 -0.844827 0
    outer loop
      vertex 6.68334 -11.1505 0
      vertex 7.22241 -10.8091 14
      vertex 6.68334 -11.1505 14
    endloop
  endfacet
  facet normal 0.53504 -0.844827 0
    outer loop
      vertex 7.22241 -10.8091 14
      vertex 6.68334 -11.1505 0
      vertex 7.22241 -10.8091 0
    endloop
  endfacet
  facet normal 0.985274 -0.170985 0
    outer loop
      vertex 12.7502 -2.53617 14
      vertex 12.8593 -1.9075 0
      vertex 12.8593 -1.9075 14
    endloop
  endfacet
  facet normal 0.985274 -0.170985 0
    outer loop
      vertex 12.8593 -1.9075 0
      vertex 12.7502 -2.53617 14
      vertex 12.7502 -2.53617 0
    endloop
  endfacet
  facet normal 0.122399 -0.992481 0
    outer loop
      vertex 1.27422 -12.9374 0
      vertex 1.9075 -12.8593 14
      vertex 1.27422 -12.9374 14
    endloop
  endfacet
  facet normal 0.122399 -0.992481 0
    outer loop
      vertex 1.9075 -12.8593 14
      vertex 1.27422 -12.9374 0
      vertex 1.9075 -12.8593 0
    endloop
  endfacet
  facet normal 0.266738 -0.963769 0
    outer loop
      vertex 3.15874 -12.6104 0
      vertex 3.7737 -12.4402 14
      vertex 3.15874 -12.6104 14
    endloop
  endfacet
  facet normal 0.266738 -0.963769 0
    outer loop
      vertex 3.7737 -12.4402 14
      vertex 3.15874 -12.6104 0
      vertex 3.7737 -12.4402 0
    endloop
  endfacet
  facet normal -0.870091 0.492892 0
    outer loop
      vertex -11.465 6.12816 0
      vertex -11.1505 6.68334 10
      vertex -11.1505 6.68334 0
    endloop
  endfacet
  facet normal -0.870091 0.492892 0
    outer loop
      vertex -11.1505 6.68334 10
      vertex -11.465 6.12816 0
      vertex -11.465 6.12816 10
    endloop
  endfacet
  facet normal -0.963769 0.266738 0
    outer loop
      vertex -12.6104 3.15874 0
      vertex -12.4402 3.7737 10
      vertex -12.4402 3.7737 0
    endloop
  endfacet
  facet normal -0.963769 0.266738 0
    outer loop
      vertex -12.4402 3.7737 10
      vertex -12.6104 3.15874 0
      vertex -12.6104 3.15874 10
    endloop
  endfacet
  facet normal -0.65314 -0.757237 0
    outer loop
      vertex -8.73027 -9.63236 0
      vertex -8.24711 -10.0491 10
      vertex -8.73027 -9.63236 10
    endloop
  endfacet
  facet normal -0.65314 -0.757237 -0
    outer loop
      vertex -8.24711 -10.0491 10
      vertex -8.73027 -9.63236 0
      vertex -8.24711 -10.0491 0
    endloop
  endfacet
  facet normal 0.492892 -0.870091 0
    outer loop
      vertex 6.12816 -11.465 0
      vertex 6.68334 -11.1505 14
      vertex 6.12816 -11.465 14
    endloop
  endfacet
  facet normal 0.492892 -0.870091 0
    outer loop
      vertex 6.68334 -11.1505 14
      vertex 6.12816 -11.465 0
      vertex 6.68334 -11.1505 0
    endloop
  endfacet
  facet normal -0.266738 -0.963769 0
    outer loop
      vertex -3.7737 -12.4402 0
      vertex -3.15874 -12.6104 10
      vertex -3.7737 -12.4402 10
    endloop
  endfacet
  facet normal -0.266738 -0.963769 -0
    outer loop
      vertex -3.15874 -12.6104 10
      vertex -3.7737 -12.4402 0
      vertex -3.15874 -12.6104 0
    endloop
  endfacet
  facet normal -0.0246054 -0.999697 0
    outer loop
      vertex -0.637879 -12.9843 0
      vertex 0 -13 10
      vertex -0.637879 -12.9843 10
    endloop
  endfacet
  facet normal -0.0246054 -0.999697 -0
    outer loop
      vertex 0 -13 10
      vertex -0.637879 -12.9843 0
      vertex 0 -13 0
    endloop
  endfacet
  facet normal -0.893214 0.449632 0
    outer loop
      vertex -11.7519 5.55822 0
      vertex -11.465 6.12816 10
      vertex -11.465 6.12816 0
    endloop
  endfacet
  facet normal -0.893214 0.449632 0
    outer loop
      vertex -11.465 6.12816 10
      vertex -11.7519 5.55822 0
      vertex -11.7519 5.55822 10
    endloop
  endfacet
  facet normal 0.219097 0.975703 -0
    outer loop
      vertex 3.15874 12.6104 0
      vertex 2.53617 12.7502 14
      vertex 3.15874 12.6104 14
    endloop
  endfacet
  facet normal 0.219097 0.975703 0
    outer loop
      vertex 2.53617 12.7502 14
      vertex 3.15874 12.6104 0
      vertex 2.53617 12.7502 0
    endloop
  endfacet
  facet normal -0.61527 0.788317 0
    outer loop
      vertex -7.74409 10.4417 0
      vertex -8.24711 10.0491 10
      vertex -7.74409 10.4417 10
    endloop
  endfacet
  facet normal -0.61527 0.788317 0
    outer loop
      vertex -8.24711 10.0491 10
      vertex -7.74409 10.4417 0
      vertex -8.24711 10.0491 0
    endloop
  endfacet
  facet normal -0.575799 0.817591 0
    outer loop
      vertex -7.22241 10.8091 0
      vertex -7.74409 10.4417 10
      vertex -7.22241 10.8091 10
    endloop
  endfacet
  facet normal -0.575799 0.817591 0
    outer loop
      vertex -7.74409 10.4417 10
      vertex -7.22241 10.8091 0
      vertex -7.74409 10.4417 0
    endloop
  endfacet
  facet normal -0.266738 0.963769 0
    outer loop
      vertex -3.15874 12.6104 0
      vertex -3.7737 12.4402 10
      vertex -3.15874 12.6104 10
    endloop
  endfacet
  facet normal -0.266738 0.963769 0
    outer loop
      vertex -3.7737 12.4402 10
      vertex -3.15874 12.6104 0
      vertex -3.7737 12.4402 0
    endloop
  endfacet
  facet normal -0.359982 -0.932959 0
    outer loop
      vertex -4.97488 -12.0104 0
      vertex -4.37957 -12.2401 10
      vertex -4.97488 -12.0104 10
    endloop
  endfacet
  facet normal -0.359982 -0.932959 -0
    outer loop
      vertex -4.37957 -12.2401 10
      vertex -4.97488 -12.0104 0
      vertex -4.37957 -12.2401 0
    endloop
  endfacet
  facet normal 0.817591 -0.575799 0
    outer loop
      vertex 10.4417 -7.74409 14
      vertex 10.8091 -7.22241 0
      vertex 10.8091 -7.22241 14
    endloop
  endfacet
  facet normal 0.817591 -0.575799 0
    outer loop
      vertex 10.8091 -7.22241 0
      vertex 10.4417 -7.74409 14
      vertex 10.4417 -7.74409 0
    endloop
  endfacet
  facet normal 0 0 -1
    outer loop
      vertex 12.9843 -0.637879 0
      vertex 12.9843 0.637879 0
      vertex 13 0 0
    endloop
  endfacet
  facet normal 0 0 -1
    outer loop
      vertex 12.9374 -1.27422 0
      vertex 12.9843 0.637879 0
      vertex 12.9843 -0.637879 0
    endloop
  endfacet
  facet normal 0 0 -1
    outer loop
      vertex 12.9374 -1.27422 0
      vertex 12.9374 1.27422 0
      vertex 12.9843 0.637879 0
    endloop
  endfacet
  facet normal 0 0 -1
    outer loop
      vertex 12.8593 -1.9075 0
      vertex 12.9374 1.27422 0
      vertex 12.9374 -1.27422 0
    endloop
  endfacet
  facet normal 0 0 -1
    outer loop
      vertex 12.8593 -1.9075 0
      vertex 12.8593 1.9075 0
      vertex 12.9374 1.27422 0
    endloop
  endfacet
  facet normal 0 0 -1
    outer loop
      vertex 12.7502 -2.53617 0
      vertex 12.8593 1.9075 0
      vertex 12.8593 -1.9075 0
    endloop
  endfacet
  facet normal 0 0 -1
    outer loop
      vertex 12.7502 -2.53617 0
      vertex 12.7502 2.53617 0
      vertex 12.8593 1.9075 0
    endloop
  endfacet
  facet normal 0 0 -1
    outer loop
      vertex 12.6104 -3.15874 0
      vertex 12.7502 2.53617 0
      vertex 12.7502 -2.53617 0
    endloop
  endfacet
  facet normal 0 0 -1
    outer loop
      vertex 12.6104 -3.15874 0
      vertex 12.6104 3.15874 0
      vertex 12.7502 2.53617 0
    endloop
  endfacet
  facet normal 0 0 -1
    outer loop
      vertex 12.4402 -3.7737 0
      vertex 12.6104 3.15874 0
      vertex 12.6104 -3.15874 0
    endloop
  endfacet
  facet normal 0 0 -1
    outer loop
      vertex 12.4402 -3.7737 0
      vertex 12.4402 3.7737 0
      vertex 12.6104 3.15874 0
    endloop
  endfacet
  facet normal 0 0 -1
    outer loop
      vertex 12.2401 -4.37957 0
      vertex 12.4402 3.7737 0
      vertex 12.4402 -3.7737 0
    endloop
  endfacet
  facet normal 0 0 -1
    outer loop
      vertex 12.2401 -4.37957 0
      vertex 12.2401 4.37957 0
      vertex 12.4402 3.7737 0
    endloop
  endfacet
  facet normal 0 0 -1
    outer loop
      vertex 12.0104 -4.97488 0
      vertex 12.2401 4.37957 0
      vertex 12.2401 -4.37957 0
    endloop
  endfacet
  facet normal 0 0 -1
    outer loop
      vertex 12.0104 -4.97488 0
      vertex 12.0104 4.97488 0
      vertex 12.2401 4.37957 0
    endloop
  endfacet
  facet normal 0 0 -1
    outer loop
      vertex 11.7519 -5.55822 0
      vertex 12.0104 4.97488 0
      vertex 12.0104 -4.97488 0
    endloop
  endfacet
  facet normal 0 0 -1
    outer loop
      vertex 11.7519 -5.55822 0
      vertex 11.7519 5.55822 0
      vertex 12.0104 4.97488 0
    endloop
  endfacet
  facet normal 0 0 -1
    outer loop
      vertex 11.465 -6.12816 0
      vertex 11.7519 5.55822 0
      vertex 11.7519 -5.55822 0
    endloop
  endfacet
  facet normal 0 0 -1
    outer loop
      vertex 11.465 -6.12816 0
      vertex 11.465 6.12816 0
      vertex 11.7519 5.55822 0
    endloop
  endfacet
  facet normal 0 0 -1
    outer loop
      vertex 11.1505 -6.68334 0
      vertex 11.465 6.12816 0
      vertex 11.465 -6.12816 0
    endloop
  endfacet
  facet normal 0 0 -1
    outer loop
      vertex 11.1505 -6.68334 0
      vertex 11.1505 6.68334 0
      vertex 11.465 6.12816 0
    endloop
  endfacet
  facet normal 0 0 -1
    outer loop
      vertex 10.8091 -7.22241 0
      vertex 11.1505 6.68334 0
      vertex 11.1505 -6.68334 0
    endloop
  endfacet
  facet normal 0 0 -1
    outer loop
      vertex 10.8091 -7.22241 0
      vertex 10.8091 7.22241 0
      vertex 11.1505 6.68334 0
    endloop
  endfacet
  facet normal 0 0 -1
    outer loop
      vertex 10.4417 -7.74409 0
      vertex 10.8091 7.22241 0
      vertex 10.8091 -7.22241 0
    endloop
  endfacet
  facet normal 0 0 -1
    outer loop
      vertex 10.4417 -7.74409 0
      vertex 10.4417 7.74409 0
      vertex 10.8091 7.22241 0
    endloop
  endfacet
  facet normal 0 0 -1
    outer loop
      vertex 10.0491 -8.24711 0
      vertex 10.4417 7.74409 0
      vertex 10.4417 -7.74409 0
    endloop
  endfacet
  facet normal 0 0 -1
    outer loop
      vertex 10.0491 -8.24711 0
      vertex 10.0491 8.24711 0
      vertex 10.4417 7.74409 0
    endloop
  endfacet
  facet normal 0 0 -1
    outer loop
      vertex 9.63236 -8.73027 0
      vertex 10.0491 8.24711 0
      vertex 10.0491 -8.24711 0
    endloop
  endfacet
  facet normal 0 0 -1
    outer loop
      vertex 9.63236 -8.73027 0
      vertex 9.63236 8.73027 0
      vertex 10.0491 8.24711 0
    endloop
  endfacet
  facet normal 0 0 -1
    outer loop
      vertex 9.19239 -9.19239 0
      vertex 9.63236 8.73027 0
      vertex 9.63236 -8.73027 0
    endloop
  endfacet
  facet normal 0 0 -1
    outer loop
      vertex 9.19239 -9.19239 0
      vertex 9.19239 9.19239 0
      vertex 9.63236 8.73027 0
    endloop
  endfacet
  facet normal 0 0 -1
    outer loop
      vertex 8.73027 -9.63236 0
      vertex 9.19239 9.19239 0
      vertex 9.19239 -9.19239 0
    endloop
  endfacet
  facet normal 0 0 -1
    outer loop
      vertex 8.73027 -9.63236 0
      vertex 8.73027 9.63236 0
      vertex 9.19239 9.19239 0
    endloop
  endfacet
  facet normal 0 0 -1
    outer loop
      vertex 8.24711 -10.0491 0
      vertex 8.73027 9.63236 0
      vertex 8.73027 -9.63236 0
    endloop
  endfacet
  facet normal 0 0 -1
    outer loop
      vertex 8.24711 -10.0491 0
      vertex 8.24711 10.0491 0
      vertex 8.73027 9.63236 0
    endloop
  endfacet
  facet normal 0 0 -1
    outer loop
      vertex 7.74409 -10.4417 0
      vertex 8.24711 10.0491 0
      vertex 8.24711 -10.0491 0
    endloop
  endfacet
  facet normal 0 0 -1
    outer loop
      vertex 7.74409 -10.4417 0
      vertex 7.74409 10.4417 0
      vertex 8.24711 10.0491 0
    endloop
  endfacet
  facet normal 0 0 -1
    outer loop
      vertex 7.22241 -10.8091 0
      vertex 7.74409 10.4417 0
      vertex 7.74409 -10.4417 0
    endloop
  endfacet
  facet normal 0 0 -1
    outer loop
      vertex 7.22241 -10.8091 0
      vertex 7.22241 10.8091 0
      vertex 7.74409 10.4417 0
    endloop
  endfacet
  facet normal 0 0 -1
    outer loop
      vertex 6.68334 -11.1505 0
      vertex 7.22241 10.8091 0
      vertex 7.22241 -10.8091 0
    endloop
  endfacet
  facet normal 0 0 -1
    outer loop
      vertex 6.68334 -11.1505 0
      vertex 6.68334 11.1505 0
      vertex 7.22241 10.8091 0
    endloop
  endfacet
  facet normal 0 0 -1
    outer loop
      vertex 6.12816 -11.465 0
      vertex 6.68334 11.1505 0
      vertex 6.68334 -11.1505 0
    endloop
  endfacet
  facet normal 0 0 -1
    outer loop
      vertex 6.12816 -11.465 0
      vertex 6.12816 11.465 0
      vertex 6.68334 11.1505 0
    endloop
  endfacet
  facet normal 0 0 -1
    outer loop
      vertex 5.55822 -11.7519 0
      vertex 6.12816 11.465 0
      vertex 6.12816 -11.465 0
    endloop
  endfacet
  facet normal 0 0 -1
    outer loop
      vertex 5.55822 -11.7519 0
      vertex 5.55822 11.7519 0
      vertex 6.12816 11.465 0
    endloop
  endfacet
  facet normal 0 0 -1
    outer loop
      vertex 4.97488 -12.0104 0
      vertex 5.55822 11.7519 0
      vertex 5.55822 -11.7519 0
    endloop
  endfacet
  facet normal 0 0 -1
    outer loop
      vertex 4.97488 -12.0104 0
      vertex 4.97488 12.0104 0
      vertex 5.55822 11.7519 0
    endloop
  endfacet
  facet normal 0 0 -1
    outer loop
      vertex 4.37957 -12.2401 0
      vertex 4.97488 12.0104 0
      vertex 4.97488 -12.0104 0
    endloop
  endfacet
  facet normal 0 0 -1
    outer loop
      vertex 4.37957 -12.2401 0
      vertex 4.37957 12.2401 0
      vertex 4.97488 12.0104 0
    endloop
  endfacet
  facet normal 0 0 -1
    outer loop
      vertex 3.7737 -12.4402 0
      vertex 4.37957 12.2401 0
      vertex 4.37957 -12.2401 0
    endloop
  endfacet
  facet normal 0 0 -1
    outer loop
      vertex 3.7737 -12.4402 0
      vertex 3.7737 12.4402 0
      vertex 4.37957 12.2401 0
    endloop
  endfacet
  facet normal 0 0 -1
    outer loop
      vertex 3.15874 -12.6104 0
      vertex 3.7737 12.4402 0
      vertex 3.7737 -12.4402 0
    endloop
  endfacet
  facet normal 0 0 -1
    outer loop
      vertex 3.15874 -12.6104 0
      vertex 3.15874 12.6104 0
      vertex 3.7737 12.4402 0
    endloop
  endfacet
  facet normal 0 0 -1
    outer loop
      vertex 2.53617 -12.7502 0
      vertex 3.15874 12.6104 0
      vertex 3.15874 -12.6104 0
    endloop
  endfacet
  facet normal 0 0 -1
    outer loop
      vertex 2.53617 -12.7502 0
      vertex 2.53617 12.7502 0
      vertex 3.15874 12.6104 0
    endloop
  endfacet
  facet normal 0 0 -1
    outer loop
      vertex 1.9075 -12.8593 0
      vertex 2.53617 12.7502 0
      vertex 2.53617 -12.7502 0
    endloop
  endfacet
  facet normal 0 0 -1
    outer loop
      vertex 1.9075 -12.8593 0
      vertex 1.9075 12.8593 0
      vertex 2.53617 12.7502 0
    endloop
  endfacet
  facet normal 0 0 -1
    outer loop
      vertex 1.27422 -12.9374 0
      vertex 1.9075 12.8593 0
      vertex 1.9075 -12.8593 0
    endloop
  endfacet
  facet normal 0 0 -1
    outer loop
      vertex 1.27422 -12.9374 0
      vertex 1.27422 12.9374 0
      vertex 1.9075 12.8593 0
    endloop
  endfacet
  facet normal 0 0 -1
    outer loop
      vertex 0.637879 -12.9843 0
      vertex 1.27422 12.9374 0
      vertex 1.27422 -12.9374 0
    endloop
  endfacet
  facet normal 0 0 -1
    outer loop
      vertex 0.637879 -12.9843 0
      vertex 0.637879 12.9843 0
      vertex 1.27422 12.9374 0
    endloop
  endfacet
  facet normal 0 0 -1
    outer loop
      vertex 0 -13 0
      vertex 0.637879 12.9843 0
      vertex 0.637879 -12.9843 0
    endloop
  endfacet
  facet normal 0 0 -1
    outer loop
      vertex 0 -13 0
      vertex 0 13 0
      vertex 0.637879 12.9843 0
    endloop
  endfacet
  facet normal 0 0 -1
    outer loop
      vertex -0.637879 -12.9843 0
      vertex 0 13 0
      vertex 0 -13 0
    endloop
  endfacet
  facet normal 0 0 -1
    outer loop
      vertex -0.637879 -12.9843 0
      vertex -0.637879 12.9843 0
      vertex 0 13 0
    endloop
  endfacet
  facet normal 0 0 -1
    outer loop
      vertex -1.27422 -12.9374 0
      vertex -0.637879 12.9843 0
      vertex -0.637879 -12.9843 0
    endloop
  endfacet
  facet normal 0 0 -1
    outer loop
      vertex -1.27422 -12.9374 0
      vertex -1.27422 12.9374 0
      vertex -0.637879 12.9843 0
    endloop
  endfacet
  facet normal 0 0 -1
    outer loop
      vertex -1.9075 -12.8593 0
      vertex -1.27422 12.9374 0
      vertex -1.27422 -12.9374 0
    endloop
  endfacet
  facet normal 0 0 -1
    outer loop
      vertex -1.9075 -12.8593 0
      vertex -1.9075 12.8593 0
      vertex -1.27422 12.9374 0
    endloop
  endfacet
  facet normal 0 0 -1
    outer loop
      vertex -2.53617 -12.7502 0
      vertex -1.9075 12.8593 0
      vertex -1.9075 -12.8593 0
    endloop
  endfacet
  facet normal 0 0 -1
    outer loop
      vertex -2.53617 -12.7502 0
      vertex -2.53617 12.7502 0
      vertex -1.9075 12.8593 0
    endloop
  endfacet
  facet normal 0 0 -1
    outer loop
      vertex -3.15874 -12.6104 0
      vertex -2.53617 12.7502 0
      vertex -2.53617 -12.7502 0
    endloop
  endfacet
  facet normal 0 0 -1
    outer loop
      vertex -3.15874 -12.6104 0
      vertex -3.15874 12.6104 0
      vertex -2.53617 12.7502 0
    endloop
  endfacet
  facet normal 0 0 -1
    outer loop
      vertex -3.7737 -12.4402 0
      vertex -3.15874 12.6104 0
      vertex -3.15874 -12.6104 0
    endloop
  endfacet
  facet normal 0 0 -1
    outer loop
      vertex -3.7737 -12.4402 0
      vertex -3.7737 12.4402 0
      vertex -3.15874 12.6104 0
    endloop
  endfacet
  facet normal 0 0 -1
    outer loop
      vertex -4.37957 -12.2401 0
      vertex -3.7737 12.4402 0
      vertex -3.7737 -12.4402 0
    endloop
  endfacet
  facet normal 0 0 -1
    outer loop
      vertex -4.37957 -12.2401 0
      vertex -4.37957 12.2401 0
      vertex -3.7737 12.4402 0
    endloop
  endfacet
  facet normal 0 0 -1
    outer loop
      vertex -4.97488 -12.0104 0
      vertex -4.37957 12.2401 0
      vertex -4.37957 -12.2401 0
    endloop
  endfacet
  facet normal 0 0 -1
    outer loop
      vertex -4.97488 -12.0104 0
      vertex -4.97488 12.0104 0
      vertex -4.37957 12.2401 0
    endloop
  endfacet
  facet normal 0 0 -1
    outer loop
      vertex -5.55822 -11.7519 0
      vertex -4.97488 12.0104 0
      vertex -4.97488 -12.0104 0
    endloop
  endfacet
  facet normal 0 0 -1
    outer loop
      vertex -5.55822 -11.7519 0
      vertex -5.55822 11.7519 0
      vertex -4.97488 12.0104 0
    endloop
  endfacet
  facet normal 0 0 -1
    outer loop
      vertex -6.12816 -11.465 0
      vertex -5.55822 11.7519 0
      vertex -5.55822 -11.7519 0
    endloop
  endfacet
  facet normal 0 0 -1
    outer loop
      vertex -6.12816 -11.465 0
      vertex -6.12816 11.465 0
      vertex -5.55822 11.7519 0
    endloop
  endfacet
  facet normal 0 0 -1
    outer loop
      vertex -6.68334 -11.1505 0
      vertex -6.12816 11.465 0
      vertex -6.12816 -11.465 0
    endloop
  endfacet
  facet normal 0 0 -1
    outer loop
      vertex -6.68334 -11.1505 0
      vertex -6.68334 11.1505 0
      vertex -6.12816 11.465 0
    endloop
  endfacet
  facet normal 0 0 -1
    outer loop
      vertex -7.22241 -10.8091 0
      vertex -6.68334 11.1505 0
      vertex -6.68334 -11.1505 0
    endloop
  endfacet
  facet normal 0 0 -1
    outer loop
      vertex -7.22241 -10.8091 0
      vertex -7.22241 10.8091 0
      vertex -6.68334 11.1505 0
    endloop
  endfacet
  facet normal 0 0 -1
    outer loop
      vertex -7.74409 -10.4417 0
      vertex -7.22241 10.8091 0
      vertex -7.22241 -10.8091 0
    endloop
  endfacet
  facet normal 0 0 -1
    outer loop
      vertex -7.74409 -10.4417 0
      vertex -7.74409 10.4417 0
      vertex -7.22241 10.8091 0
    endloop
  endfacet
  facet normal 0 0 -1
    outer loop
      vertex -8.24711 -10.0491 0
      vertex -7.74409 10.4417 0
      vertex -7.74409 -10.4417 0
    endloop
  endfacet
  facet normal 0 0 -1
    outer loop
      vertex -8.24711 -10.0491 0
      vertex -8.24711 10.0491 0
      vertex -7.74409 10.4417 0
    endloop
  endfacet
  facet normal 0 0 -1
    outer loop
      vertex -8.73027 -9.63236 0
      vertex -8.24711 10.0491 0
      vertex -8.24711 -10.0491 0
    endloop
  endfacet
  facet normal 0 0 -1
    outer loop
      vertex -8.73027 -9.63236 0
      vertex -8.73027 9.63236 0
      vertex -8.24711 10.0491 0
    endloop
  endfacet
  facet normal 0 0 -1
    outer loop
      vertex -9.19239 -9.19239 0
      vertex -8.73027 9.63236 0
      vertex -8.73027 -9.63236 0
    endloop
  endfacet
  facet normal 0 0 -1
    outer loop
      vertex -9.19239 -9.19239 0
      vertex -9.19239 9.19239 0
      vertex -8.73027 9.63236 0
    endloop
  endfacet
  facet normal 0 0 -1
    outer loop
      vertex -9.63236 -8.73027 0
      vertex -9.19239 9.19239 0
      vertex -9.19239 -9.19239 0
    endloop
  endfacet
  facet normal 0 0 -1
    outer loop
      vertex -9.63236 -8.73027 0
      vertex -9.63236 8.73027 0
      vertex -9.19239 9.19239 0
    endloop
  endfacet
  facet normal 0 0 -1
    outer loop
      vertex -10.0491 -8.24711 0
      vertex -9.63236 8.73027 0
      vertex -9.63236 -8.73027 0
    endloop
  endfacet
  facet normal 0 0 -1
    outer loop
      vertex -10.0491 -8.24711 0
      vertex -10.0491 8.24711 0
      vertex -9.63236 8.73027 0
    endloop
  endfacet
  facet normal 0 0 -1
    outer loop
      vertex -10.4417 -7.74409 0
      vertex -10.0491 8.24711 0
      vertex -10.0491 -8.24711 0
    endloop
  endfacet
  facet normal 0 0 -1
    outer loop
      vertex -10.4417 -7.74409 0
      vertex -10.4417 7.74409 0
      vertex -10.0491 8.24711 0
    endloop
  endfacet
  facet normal 0 0 -1
    outer loop
      vertex -10.8091 -7.22241 0
      vertex -10.4417 7.74409 0
      vertex -10.4417 -7.74409 0
    endloop
  endfacet
  facet normal 0 0 -1
    outer loop
      vertex -10.8091 -7.22241 0
      vertex -10.8091 7.22241 0
      vertex -10.4417 7.74409 0
    endloop
  endfacet
  facet normal 0 0 -1
    outer loop
      vertex -11.1505 -6.68334 0
      vertex -10.8091 7.22241 0
      vertex -10.8091 -7.22241 0
    endloop
  endfacet
  facet normal 0 0 -1
    outer loop
      vertex -11.1505 -6.68334 0
      vertex -11.1505 6.68334 0
      vertex -10.8091 7.22241 0
    endloop
  endfacet
  facet normal 0 0 -1
    outer loop
      vertex -11.465 -6.12816 0
      vertex -11.1505 6.68334 0
      vertex -11.1505 -6.68334 0
    endloop
  endfacet
  facet normal 0 0 -1
    outer loop
      vertex -11.465 -6.12816 0
      vertex -11.465 6.12816 0
      vertex -11.1505 6.68334 0
    endloop
  endfacet
  facet normal 0 0 -1
    outer loop
      vertex -11.7519 -5.55822 0
      vertex -11.465 6.12816 0
      vertex -11.465 -6.12816 0
    endloop
  endfacet
  facet normal 0 0 -1
    outer loop
      vertex -11.7519 -5.55822 0
      vertex -11.7519 5.55822 0
      vertex -11.465 6.12816 0
    endloop
  endfacet
  facet normal 0 0 -1
    outer loop
      vertex -12.0104 -4.97488 0
      vertex -11.7519 5.55822 0
      vertex -11.7519 -5.55822 0
    endloop
  endfacet
  facet normal 0 0 -1
    outer loop
      vertex -12.0104 -4.97488 0
      vertex -12.0104 4.97488 0
      vertex -11.7519 5.55822 0
    endloop
  endfacet
  facet normal 0 0 -1
    outer loop
      vertex -12.2401 -4.37957 0
      vertex -12.0104 4.97488 0
      vertex -12.0104 -4.97488 0
    endloop
  endfacet
  facet normal 0 0 -1
    outer loop
      vertex -12.2401 -4.37957 0
      vertex -12.2401 4.37957 0
      vertex -12.0104 4.97488 0
    endloop
  endfacet
  facet normal 0 0 -1
    outer loop
      vertex -12.4402 -3.7737 0
      vertex -12.2401 4.37957 0
      vertex -12.2401 -4.37957 0
    endloop
  endfacet
  facet normal 0 0 -1
    outer loop
      vertex -12.4402 -3.7737 0
      vertex -12.4402 3.7737 0
      vertex -12.2401 4.37957 0
    endloop
  endfacet
  facet normal 0 0 -1
    outer loop
      vertex -12.6104 -3.15874 0
      vertex -12.4402 3.7737 0
      vertex -12.4402 -3.7737 0
    endloop
  endfacet
  facet normal 0 0 -1
    outer loop
      vertex -12.6104 -3.15874 0
      vertex -12.6104 3.15874 0
      vertex -12.4402 3.7737 0
    endloop
  endfacet
  facet normal 0 0 -1
    outer loop
      vertex -12.7502 -2.53617 0
      vertex -12.6104 3.15874 0
      vertex -12.6104 -3.15874 0
    endloop
  endfacet
  facet normal 0 0 -1
    outer loop
      vertex -12.7502 -2.53617 0
      vertex -12.7502 2.53617 0
      vertex -12.6104 3.15874 0
    endloop
  endfacet
  facet normal 0 0 -1
    outer loop
      vertex -12.8593 -1.9075 0
      vertex -12.7502 2.53617 0
      vertex -12.7502 -2.53617 0
    endloop
  endfacet
  facet normal 0 0 -1
    outer loop
      vertex -12.8593 -1.9075 0
      vertex -12.8593 1.9075 0
      vertex -12.7502 2.53617 0
    endloop
  endfacet
  facet normal 0 0 -1
    outer loop
      vertex -12.9374 -1.27422 0
      vertex -12.8593 1.9075 0
      vertex -12.8593 -1.9075 0
    endloop
  endfacet
  facet normal 0 0 -1
    outer loop
      vertex -12.9374 -1.27422 0
      vertex -12.9374 1.27422 0
      vertex -12.8593 1.9075 0
    endloop
  endfacet
  facet normal 0 0 -1
    outer loop
      vertex -12.9843 -0.637879 0
      vertex -12.9374 1.27422 0
      vertex -12.9374 -1.27422 0
    endloop
  endfacet
  facet normal 0 0 -1
    outer loop
      vertex -12.9843 -0.637879 0
      vertex -12.9843 0.637879 0
      vertex -12.9374 1.27422 0
    endloop
  endfacet
  facet normal 0 -0 -1
    outer loop
      vertex -12.9843 0.637879 0
      vertex -12.9843 -0.637879 0
      vertex -13 0 0
    endloop
  endfacet
  facet normal 0.266738 0.963769 -0
    outer loop
      vertex 3.7737 12.4402 0
      vertex 3.15874 12.6104 14
      vertex 3.7737 12.4402 14
    endloop
  endfacet
  facet normal 0.266738 0.963769 0
    outer loop
      vertex 3.15874 12.6104 14
      vertex 3.7737 12.4402 0
      vertex 3.15874 12.6104 0
    endloop
  endfacet
  facet normal -0.575799 -0.817591 0
    outer loop
      vertex -7.74409 -10.4417 0
      vertex -7.22241 -10.8091 10
      vertex -7.74409 -10.4417 10
    endloop
  endfacet
  facet normal -0.575799 -0.817591 -0
    outer loop
      vertex -7.22241 -10.8091 10
      vertex -7.74409 -10.4417 0
      vertex -7.22241 -10.8091 0
    endloop
  endfacet
  facet normal 0.405141 -0.914254 0
    outer loop
      vertex 4.97488 -12.0104 0
      vertex 5.55822 -11.7519 14
      vertex 4.97488 -12.0104 14
    endloop
  endfacet
  facet normal 0.405141 -0.914254 0
    outer loop
      vertex 5.55822 -11.7519 14
      vertex 4.97488 -12.0104 0
      vertex 5.55822 -11.7519 0
    endloop
  endfacet
  facet normal 0.870091 -0.492892 0
    outer loop
      vertex 11.1505 -6.68334 14
      vertex 11.465 -6.12816 0
      vertex 11.465 -6.12816 14
    endloop
  endfacet
  facet normal 0.870091 -0.492892 0
    outer loop
      vertex 11.465 -6.12816 0
      vertex 11.1505 -6.68334 14
      vertex 11.1505 -6.68334 0
    endloop
  endfacet
  facet normal -0.963769 -0.266738 0
    outer loop
      vertex -12.4402 -3.7737 0
      vertex -12.6104 -3.15874 10
      vertex -12.6104 -3.15874 0
    endloop
  endfacet
  facet normal -0.963769 -0.266738 0
    outer loop
      vertex -12.6104 -3.15874 10
      vertex -12.4402 -3.7737 0
      vertex -12.4402 -3.7737 10
    endloop
  endfacet
  facet normal -0.975703 -0.219097 0
    outer loop
      vertex -12.6104 -3.15874 0
      vertex -12.7502 -2.53617 10
      vertex -12.7502 -2.53617 0
    endloop
  endfacet
  facet normal -0.975703 -0.219097 0
    outer loop
      vertex -12.7502 -2.53617 10
      vertex -12.6104 -3.15874 0
      vertex -12.6104 -3.15874 10
    endloop
  endfacet
  facet normal -0.914254 -0.405141 0
    outer loop
      vertex -11.7519 -5.55822 0
      vertex -12.0104 -4.97488 10
      vertex -12.0104 -4.97488 0
    endloop
  endfacet
  facet normal -0.914254 -0.405141 0
    outer loop
      vertex -12.0104 -4.97488 10
      vertex -11.7519 -5.55822 0
      vertex -11.7519 -5.55822 10
    endloop
  endfacet
  facet normal 0.61527 -0.788317 0
    outer loop
      vertex 7.74409 -10.4417 0
      vertex 8.24711 -10.0491 14
      vertex 7.74409 -10.4417 14
    endloop
  endfacet
  facet normal 0.61527 -0.788317 0
    outer loop
      vertex 8.24711 -10.0491 14
      vertex 7.74409 -10.4417 0
      vertex 8.24711 -10.0491 0
    endloop
  endfacet
  facet normal -0.61527 -0.788317 0
    outer loop
      vertex -8.24711 -10.0491 0
      vertex -7.74409 -10.4417 10
      vertex -8.24711 -10.0491 10
    endloop
  endfacet
  facet normal -0.61527 -0.788317 -0
    outer loop
      vertex -7.74409 -10.4417 10
      vertex -8.24711 -10.0491 0
      vertex -7.74409 -10.4417 0
    endloop
  endfacet
  facet normal -0.893214 -0.449632 0
    outer loop
      vertex -11.465 -6.12816 0
      vertex -11.7519 -5.55822 10
      vertex -11.7519 -5.55822 0
    endloop
  endfacet
  facet normal -0.893214 -0.449632 0
    outer loop
      vertex -11.7519 -5.55822 10
      vertex -11.465 -6.12816 0
      vertex -11.465 -6.12816 10
    endloop
  endfacet
  facet normal -0.405141 -0.914254 0
    outer loop
      vertex -5.55822 -11.7519 0
      vertex -4.97488 -12.0104 10
      vertex -5.55822 -11.7519 10
    endloop
  endfacet
  facet normal -0.405141 -0.914254 -0
    outer loop
      vertex -4.97488 -12.0104 10
      vertex -5.55822 -11.7519 0
      vertex -4.97488 -12.0104 0
    endloop
  endfacet
  facet normal -0 0 -1
    outer loop
      vertex -12.9843 -0.637879 10
      vertex -54 -13 10
      vertex -13 0 10
    endloop
  endfacet
  facet normal -0 0 -1
    outer loop
      vertex -12.9374 -1.27422 10
      vertex -54 -13 10
      vertex -12.9843 -0.637879 10
    endloop
  endfacet
  facet normal -0 0 -1
    outer loop
      vertex -12.8593 -1.9075 10
      vertex -54 -13 10
      vertex -12.9374 -1.27422 10
    endloop
  endfacet
  facet normal -0 0 -1
    outer loop
      vertex -12.7502 -2.53617 10
      vertex -54 -13 10
      vertex -12.8593 -1.9075 10
    endloop
  endfacet
  facet normal -0 0 -1
    outer loop
      vertex -12.6104 -3.15874 10
      vertex -54 -13 10
      vertex -12.7502 -2.53617 10
    endloop
  endfacet
  facet normal -0 0 -1
    outer loop
      vertex -12.4402 -3.7737 10
      vertex -54 -13 10
      vertex -12.6104 -3.15874 10
    endloop
  endfacet
  facet normal -0 0 -1
    outer loop
      vertex -12.2401 -4.37957 10
      vertex -54 -13 10
      vertex -12.4402 -3.7737 10
    endloop
  endfacet
  facet normal -0 0 -1
    outer loop
      vertex -12.0104 -4.97488 10
      vertex -54 -13 10
      vertex -12.2401 -4.37957 10
    endloop
  endfacet
  facet normal -0 0 -1
    outer loop
      vertex -11.7519 -5.55822 10
      vertex -54 -13 10
      vertex -12.0104 -4.97488 10
    endloop
  endfacet
  facet normal -0 0 -1
    outer loop
      vertex -11.465 -6.12816 10
      vertex -54 -13 10
      vertex -11.7519 -5.55822 10
    endloop
  endfacet
  facet normal -0 0 -1
    outer loop
      vertex -11.1505 -6.68334 10
      vertex -54 -13 10
      vertex -11.465 -6.12816 10
    endloop
  endfacet
  facet normal -0 0 -1
    outer loop
      vertex -10.8091 -7.22241 10
      vertex -54 -13 10
      vertex -11.1505 -6.68334 10
    endloop
  endfacet
  facet normal -0 0 -1
    outer loop
      vertex -10.4417 -7.74409 10
      vertex -54 -13 10
      vertex -10.8091 -7.22241 10
    endloop
  endfacet
  facet normal -0 0 -1
    outer loop
      vertex -10.0491 -8.24711 10
      vertex -54 -13 10
      vertex -10.4417 -7.74409 10
    endloop
  endfacet
  facet normal -0 0 -1
    outer loop
      vertex -9.63236 -8.73027 10
      vertex -54 -13 10
      vertex -10.0491 -8.24711 10
    endloop
  endfacet
  facet normal -0 0 -1
    outer loop
      vertex -9.19239 -9.19239 10
      vertex -54 -13 10
      vertex -9.63236 -8.73027 10
    endloop
  endfacet
  facet normal -0 0 -1
    outer loop
      vertex -8.73027 -9.63236 10
      vertex -54 -13 10
      vertex -9.19239 -9.19239 10
    endloop
  endfacet
  facet normal -0 0 -1
    outer loop
      vertex -8.24711 -10.0491 10
      vertex -54 -13 10
      vertex -8.73027 -9.63236 10
    endloop
  endfacet
  facet normal -0 0 -1
    outer loop
      vertex -7.74409 -10.4417 10
      vertex -54 -13 10
      vertex -8.24711 -10.0491 10
    endloop
  endfacet
  facet normal -0 0 -1
    outer loop
      vertex -7.22241 -10.8091 10
      vertex -54 -13 10
      vertex -7.74409 -10.4417 10
    endloop
  endfacet
  facet normal -0 0 -1
    outer loop
      vertex -6.68334 -11.1505 10
      vertex -54 -13 10
      vertex -7.22241 -10.8091 10
    endloop
  endfacet
  facet normal -0 0 -1
    outer loop
      vertex -6.12816 -11.465 10
      vertex -54 -13 10
      vertex -6.68334 -11.1505 10
    endloop
  endfacet
  facet normal -0 0 -1
    outer loop
      vertex -5.55822 -11.7519 10
      vertex -54 -13 10
      vertex -6.12816 -11.465 10
    endloop
  endfacet
  facet normal -0 0 -1
    outer loop
      vertex -4.97488 -12.0104 10
      vertex -54 -13 10
      vertex -5.55822 -11.7519 10
    endloop
  endfacet
  facet normal -0 0 -1
    outer loop
      vertex -4.37957 -12.2401 10
      vertex -54 -13 10
      vertex -4.97488 -12.0104 10
    endloop
  endfacet
  facet normal -0 0 -1
    outer loop
      vertex -3.7737 -12.4402 10
      vertex -54 -13 10
      vertex -4.37957 -12.2401 10
    endloop
  endfacet
  facet normal -0 0 -1
    outer loop
      vertex -3.15874 -12.6104 10
      vertex -54 -13 10
      vertex -3.7737 -12.4402 10
    endloop
  endfacet
  facet normal -0 0 -1
    outer loop
      vertex -2.53617 -12.7502 10
      vertex -54 -13 10
      vertex -3.15874 -12.6104 10
    endloop
  endfacet
  facet normal -0 0 -1
    outer loop
      vertex -1.9075 -12.8593 10
      vertex -54 -13 10
      vertex -2.53617 -12.7502 10
    endloop
  endfacet
  facet normal -0 0 -1
    outer loop
      vertex -1.27422 -12.9374 10
      vertex -54 -13 10
      vertex -1.9075 -12.8593 10
    endloop
  endfacet
  facet normal -0 0 -1
    outer loop
      vertex -0.637879 -12.9843 10
      vertex -54 -13 10
      vertex -1.27422 -12.9374 10
    endloop
  endfacet
  facet normal 0 0 -1
    outer loop
      vertex -54 -13 10
      vertex -0.637879 -12.9843 10
      vertex 0 -13 10
    endloop
  endfacet
  facet normal 0 0 -1
    outer loop
      vertex -54 13 10
      vertex -13 0 10
      vertex -54 -13 10
    endloop
  endfacet
  facet normal 0 0 -1
    outer loop
      vertex -13 0 10
      vertex -54 13 10
      vertex -12.9843 0.637879 10
    endloop
  endfacet
  facet normal 0 0 -1
    outer loop
      vertex -12.9843 0.637879 10
      vertex -54 13 10
      vertex -12.9374 1.27422 10
    endloop
  endfacet
  facet normal 0 0 -1
    outer loop
      vertex -12.9374 1.27422 10
      vertex -54 13 10
      vertex -12.8593 1.9075 10
    endloop
  endfacet
  facet normal 0 0 -1
    outer loop
      vertex -12.8593 1.9075 10
      vertex -54 13 10
      vertex -12.7502 2.53617 10
    endloop
  endfacet
  facet normal 0 0 -1
    outer loop
      vertex -12.7502 2.53617 10
      vertex -54 13 10
      vertex -12.6104 3.15874 10
    endloop
  endfacet
  facet normal 0 0 -1
    outer loop
      vertex -12.6104 3.15874 10
      vertex -54 13 10
      vertex -12.4402 3.7737 10
    endloop
  endfacet
  facet normal 0 0 -1
    outer loop
      vertex -12.4402 3.7737 10
      vertex -54 13 10
      vertex -12.2401 4.37957 10
    endloop
  endfacet
  facet normal 0 0 -1
    outer loop
      vertex -12.2401 4.37957 10
      vertex -54 13 10
      vertex -12.0104 4.97488 10
    endloop
  endfacet
  facet normal 0 0 -1
    outer loop
      vertex -12.0104 4.97488 10
      vertex -54 13 10
      vertex -11.7519 5.55822 10
    endloop
  endfacet
  facet normal 0 0 -1
    outer loop
      vertex -11.7519 5.55822 10
      vertex -54 13 10
      vertex -11.465 6.12816 10
    endloop
  endfacet
  facet normal 0 0 -1
    outer loop
      vertex -11.465 6.12816 10
      vertex -54 13 10
      vertex -11.1505 6.68334 10
    endloop
  endfacet
  facet normal 0 0 -1
    outer loop
      vertex -11.1505 6.68334 10
      vertex -54 13 10
      vertex -10.8091 7.22241 10
    endloop
  endfacet
  facet normal 0 0 -1
    outer loop
      vertex -10.8091 7.22241 10
      vertex -54 13 10
      vertex -10.4417 7.74409 10
    endloop
  endfacet
  facet normal 0 0 -1
    outer loop
      vertex -10.4417 7.74409 10
      vertex -54 13 10
      vertex -10.0491 8.24711 10
    endloop
  endfacet
  facet normal 0 0 -1
    outer loop
      vertex -10.0491 8.24711 10
      vertex -54 13 10
      vertex -9.63236 8.73027 10
    endloop
  endfacet
  facet normal 0 0 -1
    outer loop
      vertex -9.63236 8.73027 10
      vertex -54 13 10
      vertex -9.19239 9.19239 10
    endloop
  endfacet
  facet normal 0 0 -1
    outer loop
      vertex -9.19239 9.19239 10
      vertex -54 13 10
      vertex -8.73027 9.63236 10
    endloop
  endfacet
  facet normal 0 0 -1
    outer loop
      vertex -8.73027 9.63236 10
      vertex -54 13 10
      vertex -8.24711 10.0491 10
    endloop
  endfacet
  facet normal 0 0 -1
    outer loop
      vertex -8.24711 10.0491 10
      vertex -54 13 10
      vertex -7.74409 10.4417 10
    endloop
  endfacet
  facet normal 0 0 -1
    outer loop
      vertex -7.74409 10.4417 10
      vertex -54 13 10
      vertex -7.22241 10.8091 10
    endloop
  endfacet
  facet normal 0 0 -1
    outer loop
      vertex -7.22241 10.8091 10
      vertex -54 13 10
      vertex -6.68334 11.1505 10
    endloop
  endfacet
  facet normal 0 0 -1
    outer loop
      vertex -0.637879 12.9843 10
      vertex -54 13 10
      vertex 0 13 10
    endloop
  endfacet
  facet normal 0 0 -1
    outer loop
      vertex -1.27422 12.9374 10
      vertex -54 13 10
      vertex -0.637879 12.9843 10
    endloop
  endfacet
  facet normal 0 0 -1
    outer loop
      vertex -1.9075 12.8593 10
      vertex -54 13 10
      vertex -1.27422 12.9374 10
    endloop
  endfacet
  facet normal 0 0 -1
    outer loop
      vertex -2.53617 12.7502 10
      vertex -54 13 10
      vertex -1.9075 12.8593 10
    endloop
  endfacet
  facet normal 0 0 -1
    outer loop
      vertex -3.15874 12.6104 10
      vertex -54 13 10
      vertex -2.53617 12.7502 10
    endloop
  endfacet
  facet normal 0 0 -1
    outer loop
      vertex -3.7737 12.4402 10
      vertex -54 13 10
      vertex -3.15874 12.6104 10
    endloop
  endfacet
  facet normal 0 0 -1
    outer loop
      vertex -4.37957 12.2401 10
      vertex -54 13 10
      vertex -3.7737 12.4402 10
    endloop
  endfacet
  facet normal 0 0 -1
    outer loop
      vertex -4.97488 12.0104 10
      vertex -54 13 10
      vertex -4.37957 12.2401 10
    endloop
  endfacet
  facet normal 0 0 -1
    outer loop
      vertex -5.55822 11.7519 10
      vertex -54 13 10
      vertex -4.97488 12.0104 10
    endloop
  endfacet
  facet normal 0 0 -1
    outer loop
      vertex -6.12816 11.465 10
      vertex -54 13 10
      vertex -5.55822 11.7519 10
    endloop
  endfacet
  facet normal 0 0 -1
    outer loop
      vertex -6.68334 11.1505 10
      vertex -54 13 10
      vertex -6.12816 11.465 10
    endloop
  endfacet
endsolid OpenSCAD_Model
