<?xml version="1.0" encoding="UTF-8" standalone="no"?>
<svg width="51.88mm" height="129.54mm"
 viewBox="0 0 5188 12954"
 xmlns="http://www.w3.org/2000/svg" xmlns:xlink="http://www.w3.org/1999/xlink"  version="1.2" baseProfile="tiny">
<title>Proteus Design Suite SVG export</title>
<desc>Created by Proteus Design Suite</desc>
<defs>
</defs>
<g fill="none" stroke="black" stroke-width="1" fill-rule="evenodd" stroke-linecap="square" stroke-linejoin="bevel" >

<g fill="#000000" fill-opacity="1" stroke="none" transform="matrix(1,0,0,1,0,0)"
font-family="MS Shell Dlg 2" font-size="291.042" font-weight="400" font-style="normal" 
>
<path vector-effect="non-scaling-stroke" fill-rule="evenodd" d="M0,0 L5188,0 L5188,12954 L0,12954 L0,0"/>
</g>

<g fill="#ffffff" fill-opacity="1" stroke="none" transform="matrix(1,0,0,1,0,0)"
font-family="MS Shell Dlg 2" font-size="291.042" font-weight="400" font-style="normal" 
>
<path vector-effect="non-scaling-stroke" fill-rule="evenodd" d="M3995,6789 C3995,6844.78 3949.78,6890 3894,6890 C3838.22,6890 3793,6844.78 3793,6789 C3793,6733.22 3838.22,6688 3894,6688 C3949.78,6688 3995,6733.22 3995,6789 "/>
</g>

<g fill="#ffffff" fill-opacity="1" stroke="none" transform="matrix(1,0,0,1,0,0)"
font-family="MS Shell Dlg 2" font-size="291.042" font-weight="400" font-style="normal" 
>
<path vector-effect="non-scaling-stroke" fill-rule="evenodd" d="M3995,7039 C3995,7094.78 3949.78,7140 3894,7140 C3838.22,7140 3793,7094.78 3793,7039 C3793,6983.22 3838.22,6938 3894,6938 C3949.78,6938 3995,6983.22 3995,7039 "/>
</g>

<g fill="#ffffff" fill-opacity="1" stroke="none" transform="matrix(1,0,0,1,0,0)"
font-family="MS Shell Dlg 2" font-size="291.042" font-weight="400" font-style="normal" 
>
<path vector-effect="non-scaling-stroke" fill-rule="evenodd" d="M3995,7289 C3995,7344.78 3949.78,7390 3894,7390 C3838.22,7390 3793,7344.78 3793,7289 C3793,7233.22 3838.22,7188 3894,7188 C3949.78,7188 3995,7233.22 3995,7289 "/>
</g>

<g fill="#ffffff" fill-opacity="1" stroke="none" transform="matrix(1,0,0,1,0,0)"
font-family="MS Shell Dlg 2" font-size="291.042" font-weight="400" font-style="normal" 
>
<path vector-effect="non-scaling-stroke" fill-rule="evenodd" d="M3995,7539 C3995,7594.78 3949.78,7640 3894,7640 C3838.22,7640 3793,7594.78 3793,7539 C3793,7483.22 3838.22,7438 3894,7438 C3949.78,7438 3995,7483.22 3995,7539 "/>
</g>

<g fill="#ffffff" fill-opacity="1" stroke="none" transform="matrix(1,0,0,1,0,0)"
font-family="MS Shell Dlg 2" font-size="291.042" font-weight="400" font-style="normal" 
>
<path vector-effect="non-scaling-stroke" fill-rule="evenodd" d="M3995,7789 C3995,7844.78 3949.78,7890 3894,7890 C3838.22,7890 3793,7844.78 3793,7789 C3793,7733.22 3838.22,7688 3894,7688 C3949.78,7688 3995,7733.22 3995,7789 "/>
</g>

<g fill="#ffffff" fill-opacity="1" stroke="none" transform="matrix(1,0,0,1,0,0)"
font-family="MS Shell Dlg 2" font-size="291.042" font-weight="400" font-style="normal" 
>
<path vector-effect="non-scaling-stroke" fill-rule="evenodd" d="M3995,8039 C3995,8094.78 3949.78,8140 3894,8140 C3838.22,8140 3793,8094.78 3793,8039 C3793,7983.22 3838.22,7938 3894,7938 C3949.78,7938 3995,7983.22 3995,8039 "/>
</g>

<g fill="#ffffff" fill-opacity="1" stroke="none" transform="matrix(1,0,0,1,0,0)"
font-family="MS Shell Dlg 2" font-size="291.042" font-weight="400" font-style="normal" 
>
<path vector-effect="non-scaling-stroke" fill-rule="evenodd" d="M3995,8289 C3995,8344.78 3949.78,8390 3894,8390 C3838.22,8390 3793,8344.78 3793,8289 C3793,8233.22 3838.22,8188 3894,8188 C3949.78,8188 3995,8233.22 3995,8289 "/>
</g>

<g fill="#ffffff" fill-opacity="1" stroke="none" transform="matrix(1,0,0,1,0,0)"
font-family="MS Shell Dlg 2" font-size="291.042" font-weight="400" font-style="normal" 
>
<path vector-effect="non-scaling-stroke" fill-rule="evenodd" d="M3995,8539 C3995,8594.78 3949.78,8640 3894,8640 C3838.22,8640 3793,8594.78 3793,8539 C3793,8483.22 3838.22,8438 3894,8438 C3949.78,8438 3995,8483.22 3995,8539 "/>
</g>

<g fill="#ffffff" fill-opacity="1" stroke="none" transform="matrix(1,0,0,1,0,0)"
font-family="MS Shell Dlg 2" font-size="291.042" font-weight="400" font-style="normal" 
>
<path vector-effect="non-scaling-stroke" fill-rule="evenodd" d="M3995,8789 C3995,8844.78 3949.78,8890 3894,8890 C3838.22,8890 3793,8844.78 3793,8789 C3793,8733.22 3838.22,8688 3894,8688 C3949.78,8688 3995,8733.22 3995,8789 "/>
</g>

<g fill="#ffffff" fill-opacity="1" stroke="none" transform="matrix(1,0,0,1,0,0)"
font-family="MS Shell Dlg 2" font-size="291.042" font-weight="400" font-style="normal" 
>
<path vector-effect="non-scaling-stroke" fill-rule="evenodd" d="M3995,9039 C3995,9094.78 3949.78,9140 3894,9140 C3838.22,9140 3793,9094.78 3793,9039 C3793,8983.22 3838.22,8938 3894,8938 C3949.78,8938 3995,8983.22 3995,9039 "/>
</g>

<g fill="#ffffff" fill-opacity="1" stroke="none" transform="matrix(1,0,0,1,0,0)"
font-family="MS Shell Dlg 2" font-size="291.042" font-weight="400" font-style="normal" 
>
<path vector-effect="non-scaling-stroke" fill-rule="evenodd" d="M3995,9289 C3995,9344.78 3949.78,9390 3894,9390 C3838.22,9390 3793,9344.78 3793,9289 C3793,9233.22 3838.22,9188 3894,9188 C3949.78,9188 3995,9233.22 3995,9289 "/>
</g>

<g fill="#ffffff" fill-opacity="1" stroke="none" transform="matrix(1,0,0,1,0,0)"
font-family="MS Shell Dlg 2" font-size="291.042" font-weight="400" font-style="normal" 
>
<path vector-effect="non-scaling-stroke" fill-rule="evenodd" d="M3995,9539 C3995,9594.78 3949.78,9640 3894,9640 C3838.22,9640 3793,9594.78 3793,9539 C3793,9483.22 3838.22,9438 3894,9438 C3949.78,9438 3995,9483.22 3995,9539 "/>
</g>

<g fill="#ffffff" fill-opacity="1" stroke="none" transform="matrix(1,0,0,1,0,0)"
font-family="MS Shell Dlg 2" font-size="291.042" font-weight="400" font-style="normal" 
>
<path vector-effect="non-scaling-stroke" fill-rule="evenodd" d="M3995,9789 C3995,9844.78 3949.78,9890 3894,9890 C3838.22,9890 3793,9844.78 3793,9789 C3793,9733.22 3838.22,9688 3894,9688 C3949.78,9688 3995,9733.22 3995,9789 "/>
</g>

<g fill="#ffffff" fill-opacity="1" stroke="none" transform="matrix(1,0,0,1,0,0)"
font-family="MS Shell Dlg 2" font-size="291.042" font-weight="400" font-style="normal" 
>
<path vector-effect="non-scaling-stroke" fill-rule="evenodd" d="M3995,10039 C3995,10094.8 3949.78,10140 3894,10140 C3838.22,10140 3793,10094.8 3793,10039 C3793,9983.22 3838.22,9938 3894,9938 C3949.78,9938 3995,9983.22 3995,10039 "/>
</g>

<g fill="#ffffff" fill-opacity="1" stroke="none" transform="matrix(1,0,0,1,0,0)"
font-family="MS Shell Dlg 2" font-size="291.042" font-weight="400" font-style="normal" 
>
<path vector-effect="non-scaling-stroke" fill-rule="evenodd" d="M3995,10289 C3995,10344.8 3949.78,10390 3894,10390 C3838.22,10390 3793,10344.8 3793,10289 C3793,10233.2 3838.22,10188 3894,10188 C3949.78,10188 3995,10233.2 3995,10289 "/>
</g>

<g fill="#ffffff" fill-opacity="1" stroke="none" transform="matrix(1,0,0,1,0,0)"
font-family="MS Shell Dlg 2" font-size="291.042" font-weight="400" font-style="normal" 
>
<path vector-effect="non-scaling-stroke" fill-rule="evenodd" d="M3995,10539 C3995,10594.8 3949.78,10640 3894,10640 C3838.22,10640 3793,10594.8 3793,10539 C3793,10483.2 3838.22,10438 3894,10438 C3949.78,10438 3995,10483.2 3995,10539 "/>
</g>

<g fill="#ffffff" fill-opacity="1" stroke="none" transform="matrix(1,0,0,1,0,0)"
font-family="MS Shell Dlg 2" font-size="291.042" font-weight="400" font-style="normal" 
>
<path vector-effect="non-scaling-stroke" fill-rule="evenodd" d="M3995,10789 C3995,10844.8 3949.78,10890 3894,10890 C3838.22,10890 3793,10844.8 3793,10789 C3793,10733.2 3838.22,10688 3894,10688 C3949.78,10688 3995,10733.2 3995,10789 "/>
</g>

<g fill="#ffffff" fill-opacity="1" stroke="none" transform="matrix(1,0,0,1,0,0)"
font-family="MS Shell Dlg 2" font-size="291.042" font-weight="400" font-style="normal" 
>
<path vector-effect="non-scaling-stroke" fill-rule="evenodd" d="M3995,11039 C3995,11094.8 3949.78,11140 3894,11140 C3838.22,11140 3793,11094.8 3793,11039 C3793,10983.2 3838.22,10938 3894,10938 C3949.78,10938 3995,10983.2 3995,11039 "/>
</g>

<g fill="#ffffff" fill-opacity="1" stroke="none" transform="matrix(1,0,0,1,0,0)"
font-family="MS Shell Dlg 2" font-size="291.042" font-weight="400" font-style="normal" 
>
<path vector-effect="non-scaling-stroke" fill-rule="evenodd" d="M3995,11289 C3995,11344.8 3949.78,11390 3894,11390 C3838.22,11390 3793,11344.8 3793,11289 C3793,11233.2 3838.22,11188 3894,11188 C3949.78,11188 3995,11233.2 3995,11289 "/>
</g>

<g fill="#ffffff" fill-opacity="1" stroke="none" transform="matrix(1,0,0,1,0,0)"
font-family="MS Shell Dlg 2" font-size="291.042" font-weight="400" font-style="normal" 
>
<path vector-effect="non-scaling-stroke" fill-rule="evenodd" d="M3995,11539 C3995,11594.8 3949.78,11640 3894,11640 C3838.22,11640 3793,11594.8 3793,11539 C3793,11483.2 3838.22,11438 3894,11438 C3949.78,11438 3995,11483.2 3995,11539 "/>
</g>

<g fill="#ffffff" fill-opacity="1" stroke="none" transform="matrix(1,0,0,1,0,0)"
font-family="MS Shell Dlg 2" font-size="291.042" font-weight="400" font-style="normal" 
>
<path vector-effect="non-scaling-stroke" fill-rule="evenodd" d="M3995,11789 C3995,11844.8 3949.78,11890 3894,11890 C3838.22,11890 3793,11844.8 3793,11789 C3793,11733.2 3838.22,11688 3894,11688 C3949.78,11688 3995,11733.2 3995,11789 "/>
</g>

<g fill="#ffffff" fill-opacity="1" stroke="none" transform="matrix(1,0,0,1,0,0)"
font-family="MS Shell Dlg 2" font-size="291.042" font-weight="400" font-style="normal" 
>
<path vector-effect="non-scaling-stroke" fill-rule="evenodd" d="M2445,6789 C2445,6844.78 2399.78,6890 2344,6890 C2288.22,6890 2243,6844.78 2243,6789 C2243,6733.22 2288.22,6688 2344,6688 C2399.78,6688 2445,6733.22 2445,6789 "/>
</g>

<g fill="#ffffff" fill-opacity="1" stroke="none" transform="matrix(1,0,0,1,0,0)"
font-family="MS Shell Dlg 2" font-size="291.042" font-weight="400" font-style="normal" 
>
<path vector-effect="non-scaling-stroke" fill-rule="evenodd" d="M2445,7039 C2445,7094.78 2399.78,7140 2344,7140 C2288.22,7140 2243,7094.78 2243,7039 C2243,6983.22 2288.22,6938 2344,6938 C2399.78,6938 2445,6983.22 2445,7039 "/>
</g>

<g fill="#ffffff" fill-opacity="1" stroke="none" transform="matrix(1,0,0,1,0,0)"
font-family="MS Shell Dlg 2" font-size="291.042" font-weight="400" font-style="normal" 
>
<path vector-effect="non-scaling-stroke" fill-rule="evenodd" d="M2445,7289 C2445,7344.78 2399.78,7390 2344,7390 C2288.22,7390 2243,7344.78 2243,7289 C2243,7233.22 2288.22,7188 2344,7188 C2399.78,7188 2445,7233.22 2445,7289 "/>
</g>

<g fill="#ffffff" fill-opacity="1" stroke="none" transform="matrix(1,0,0,1,0,0)"
font-family="MS Shell Dlg 2" font-size="291.042" font-weight="400" font-style="normal" 
>
<path vector-effect="non-scaling-stroke" fill-rule="evenodd" d="M2445,7539 C2445,7594.78 2399.78,7640 2344,7640 C2288.22,7640 2243,7594.78 2243,7539 C2243,7483.22 2288.22,7438 2344,7438 C2399.78,7438 2445,7483.22 2445,7539 "/>
</g>

<g fill="#ffffff" fill-opacity="1" stroke="none" transform="matrix(1,0,0,1,0,0)"
font-family="MS Shell Dlg 2" font-size="291.042" font-weight="400" font-style="normal" 
>
<path vector-effect="non-scaling-stroke" fill-rule="evenodd" d="M2445,7789 C2445,7844.78 2399.78,7890 2344,7890 C2288.22,7890 2243,7844.78 2243,7789 C2243,7733.22 2288.22,7688 2344,7688 C2399.78,7688 2445,7733.22 2445,7789 "/>
</g>

<g fill="#ffffff" fill-opacity="1" stroke="none" transform="matrix(1,0,0,1,0,0)"
font-family="MS Shell Dlg 2" font-size="291.042" font-weight="400" font-style="normal" 
>
<path vector-effect="non-scaling-stroke" fill-rule="evenodd" d="M2445,8039 C2445,8094.78 2399.78,8140 2344,8140 C2288.22,8140 2243,8094.78 2243,8039 C2243,7983.22 2288.22,7938 2344,7938 C2399.78,7938 2445,7983.22 2445,8039 "/>
</g>

<g fill="#ffffff" fill-opacity="1" stroke="none" transform="matrix(1,0,0,1,0,0)"
font-family="MS Shell Dlg 2" font-size="291.042" font-weight="400" font-style="normal" 
>
<path vector-effect="non-scaling-stroke" fill-rule="evenodd" d="M2445,8289 C2445,8344.78 2399.78,8390 2344,8390 C2288.22,8390 2243,8344.78 2243,8289 C2243,8233.22 2288.22,8188 2344,8188 C2399.78,8188 2445,8233.22 2445,8289 "/>
</g>

<g fill="#ffffff" fill-opacity="1" stroke="none" transform="matrix(1,0,0,1,0,0)"
font-family="MS Shell Dlg 2" font-size="291.042" font-weight="400" font-style="normal" 
>
<path vector-effect="non-scaling-stroke" fill-rule="evenodd" d="M2445,8539 C2445,8594.78 2399.78,8640 2344,8640 C2288.22,8640 2243,8594.78 2243,8539 C2243,8483.22 2288.22,8438 2344,8438 C2399.78,8438 2445,8483.22 2445,8539 "/>
</g>

<g fill="#ffffff" fill-opacity="1" stroke="none" transform="matrix(1,0,0,1,0,0)"
font-family="MS Shell Dlg 2" font-size="291.042" font-weight="400" font-style="normal" 
>
<path vector-effect="non-scaling-stroke" fill-rule="evenodd" d="M2445,8789 C2445,8844.78 2399.78,8890 2344,8890 C2288.22,8890 2243,8844.78 2243,8789 C2243,8733.22 2288.22,8688 2344,8688 C2399.78,8688 2445,8733.22 2445,8789 "/>
</g>

<g fill="#ffffff" fill-opacity="1" stroke="none" transform="matrix(1,0,0,1,0,0)"
font-family="MS Shell Dlg 2" font-size="291.042" font-weight="400" font-style="normal" 
>
<path vector-effect="non-scaling-stroke" fill-rule="evenodd" d="M2445,9039 C2445,9094.78 2399.78,9140 2344,9140 C2288.22,9140 2243,9094.78 2243,9039 C2243,8983.22 2288.22,8938 2344,8938 C2399.78,8938 2445,8983.22 2445,9039 "/>
</g>

<g fill="#ffffff" fill-opacity="1" stroke="none" transform="matrix(1,0,0,1,0,0)"
font-family="MS Shell Dlg 2" font-size="291.042" font-weight="400" font-style="normal" 
>
<path vector-effect="non-scaling-stroke" fill-rule="evenodd" d="M2445,9289 C2445,9344.78 2399.78,9390 2344,9390 C2288.22,9390 2243,9344.78 2243,9289 C2243,9233.22 2288.22,9188 2344,9188 C2399.78,9188 2445,9233.22 2445,9289 "/>
</g>

<g fill="#ffffff" fill-opacity="1" stroke="none" transform="matrix(1,0,0,1,0,0)"
font-family="MS Shell Dlg 2" font-size="291.042" font-weight="400" font-style="normal" 
>
<path vector-effect="non-scaling-stroke" fill-rule="evenodd" d="M2445,10039 C2445,10094.8 2399.78,10140 2344,10140 C2288.22,10140 2243,10094.8 2243,10039 C2243,9983.22 2288.22,9938 2344,9938 C2399.78,9938 2445,9983.22 2445,10039 "/>
</g>

<g fill="#ffffff" fill-opacity="1" stroke="none" transform="matrix(1,0,0,1,0,0)"
font-family="MS Shell Dlg 2" font-size="291.042" font-weight="400" font-style="normal" 
>
<path vector-effect="non-scaling-stroke" fill-rule="evenodd" d="M2445,10289 C2445,10344.8 2399.78,10390 2344,10390 C2288.22,10390 2243,10344.8 2243,10289 C2243,10233.2 2288.22,10188 2344,10188 C2399.78,10188 2445,10233.2 2445,10289 "/>
</g>

<g fill="#ffffff" fill-opacity="1" stroke="none" transform="matrix(1,0,0,1,0,0)"
font-family="MS Shell Dlg 2" font-size="291.042" font-weight="400" font-style="normal" 
>
<path vector-effect="non-scaling-stroke" fill-rule="evenodd" d="M2445,10539 C2445,10594.8 2399.78,10640 2344,10640 C2288.22,10640 2243,10594.8 2243,10539 C2243,10483.2 2288.22,10438 2344,10438 C2399.78,10438 2445,10483.2 2445,10539 "/>
</g>

<g fill="#ffffff" fill-opacity="1" stroke="none" transform="matrix(1,0,0,1,0,0)"
font-family="MS Shell Dlg 2" font-size="291.042" font-weight="400" font-style="normal" 
>
<path vector-effect="non-scaling-stroke" fill-rule="evenodd" d="M2445,10789 C2445,10844.8 2399.78,10890 2344,10890 C2288.22,10890 2243,10844.8 2243,10789 C2243,10733.2 2288.22,10688 2344,10688 C2399.78,10688 2445,10733.2 2445,10789 "/>
</g>

<g fill="#ffffff" fill-opacity="1" stroke="none" transform="matrix(1,0,0,1,0,0)"
font-family="MS Shell Dlg 2" font-size="291.042" font-weight="400" font-style="normal" 
>
<path vector-effect="non-scaling-stroke" fill-rule="evenodd" d="M2445,11039 C2445,11094.8 2399.78,11140 2344,11140 C2288.22,11140 2243,11094.8 2243,11039 C2243,10983.2 2288.22,10938 2344,10938 C2399.78,10938 2445,10983.2 2445,11039 "/>
</g>

<g fill="#ffffff" fill-opacity="1" stroke="none" transform="matrix(1,0,0,1,0,0)"
font-family="MS Shell Dlg 2" font-size="291.042" font-weight="400" font-style="normal" 
>
<path vector-effect="non-scaling-stroke" fill-rule="evenodd" d="M2445,11289 C2445,11344.8 2399.78,11390 2344,11390 C2288.22,11390 2243,11344.8 2243,11289 C2243,11233.2 2288.22,11188 2344,11188 C2399.78,11188 2445,11233.2 2445,11289 "/>
</g>

<g fill="#ffffff" fill-opacity="1" stroke="none" transform="matrix(1,0,0,1,0,0)"
font-family="MS Shell Dlg 2" font-size="291.042" font-weight="400" font-style="normal" 
>
<path vector-effect="non-scaling-stroke" fill-rule="evenodd" d="M2445,11539 C2445,11594.8 2399.78,11640 2344,11640 C2288.22,11640 2243,11594.8 2243,11539 C2243,11483.2 2288.22,11438 2344,11438 C2399.78,11438 2445,11483.2 2445,11539 "/>
</g>

<g fill="#ffffff" fill-opacity="1" stroke="none" transform="matrix(1,0,0,1,0,0)"
font-family="MS Shell Dlg 2" font-size="291.042" font-weight="400" font-style="normal" 
>
<path vector-effect="non-scaling-stroke" fill-rule="evenodd" d="M2445,11789 C2445,11844.8 2399.78,11890 2344,11890 C2288.22,11890 2243,11844.8 2243,11789 C2243,11733.2 2288.22,11688 2344,11688 C2399.78,11688 2445,11733.2 2445,11789 "/>
</g>

<g fill="#ffffff" fill-opacity="1" stroke="none" transform="matrix(1,0,0,1,0,0)"
font-family="MS Shell Dlg 2" font-size="291.042" font-weight="400" font-style="normal" 
>
<path vector-effect="non-scaling-stroke" fill-rule="evenodd" d="M1041,7039 C1041,7094.78 995.781,7140 940,7140 C884.219,7140 839,7094.78 839,7039 C839,6983.22 884.219,6938 940,6938 C995.781,6938 1041,6983.22 1041,7039 "/>
</g>

<g fill="#ffffff" fill-opacity="1" stroke="none" transform="matrix(1,0,0,1,0,0)"
font-family="MS Shell Dlg 2" font-size="291.042" font-weight="400" font-style="normal" 
>
<path vector-effect="non-scaling-stroke" fill-rule="evenodd" d="M1295,7039 C1295,7094.78 1249.78,7140 1194,7140 C1138.22,7140 1093,7094.78 1093,7039 C1093,6983.22 1138.22,6938 1194,6938 C1249.78,6938 1295,6983.22 1295,7039 "/>
</g>

<g fill="#ffffff" fill-opacity="1" stroke="none" transform="matrix(1,0,0,1,0,0)"
font-family="MS Shell Dlg 2" font-size="291.042" font-weight="400" font-style="normal" 
>
<path vector-effect="non-scaling-stroke" fill-rule="evenodd" d="M3645,5343 C3645,5398.78 3599.78,5444 3544,5444 C3488.22,5444 3443,5398.78 3443,5343 C3443,5287.22 3488.22,5242 3544,5242 C3599.78,5242 3645,5287.22 3645,5343 "/>
</g>

<g fill="#ffffff" fill-opacity="1" stroke="none" transform="matrix(1,0,0,1,0,0)"
font-family="MS Shell Dlg 2" font-size="291.042" font-weight="400" font-style="normal" 
>
<path vector-effect="non-scaling-stroke" fill-rule="evenodd" d="M3645,5139 C3645,5194.78 3599.78,5240 3544,5240 C3488.22,5240 3443,5194.78 3443,5139 C3443,5083.22 3488.22,5038 3544,5038 C3599.78,5038 3645,5083.22 3645,5139 "/>
</g>

<g fill="#ffffff" fill-opacity="1" stroke="none" transform="matrix(1,0,0,1,0,0)"
font-family="MS Shell Dlg 2" font-size="291.042" font-weight="400" font-style="normal" 
>
<path vector-effect="non-scaling-stroke" fill-rule="evenodd" d="M3645,4936 C3645,4991.78 3599.78,5037 3544,5037 C3488.22,5037 3443,4991.78 3443,4936 C3443,4880.22 3488.22,4835 3544,4835 C3599.78,4835 3645,4880.22 3645,4936 "/>
</g>

<g fill="#ffffff" fill-opacity="1" stroke="none" transform="matrix(1,0,0,1,0,0)"
font-family="MS Shell Dlg 2" font-size="291.042" font-weight="400" font-style="normal" 
>
<path vector-effect="non-scaling-stroke" fill-rule="evenodd" d="M1283,5343 C1283,5392.15 1243.15,5432 1194,5432 C1144.85,5432 1105,5392.15 1105,5343 C1105,5293.85 1144.85,5254 1194,5254 C1243.15,5254 1283,5293.85 1283,5343 "/>
</g>

<g fill="#ffffff" fill-opacity="1" stroke="none" transform="matrix(1,0,0,1,0,0)"
font-family="MS Shell Dlg 2" font-size="291.042" font-weight="400" font-style="normal" 
>
<path vector-effect="non-scaling-stroke" fill-rule="evenodd" d="M1283,5139 C1283,5188.15 1243.15,5228 1194,5228 C1144.85,5228 1105,5188.15 1105,5139 C1105,5089.85 1144.85,5050 1194,5050 C1243.15,5050 1283,5089.85 1283,5139 "/>
</g>

<g fill="#ffffff" fill-opacity="1" stroke="none" transform="matrix(1,0,0,1,0,0)"
font-family="MS Shell Dlg 2" font-size="291.042" font-weight="400" font-style="normal" 
>
<path vector-effect="non-scaling-stroke" fill-rule="evenodd" d="M1283,4936 C1283,4985.15 1243.15,5025 1194,5025 C1144.85,5025 1105,4985.15 1105,4936 C1105,4886.85 1144.85,4847 1194,4847 C1243.15,4847 1283,4886.85 1283,4936 "/>
</g>

<g fill="#ffffff" fill-opacity="1" stroke="none" transform="matrix(1,0,0,1,0,0)"
font-family="MS Shell Dlg 2" font-size="291.042" font-weight="400" font-style="normal" 
>
<path vector-effect="non-scaling-stroke" fill-rule="evenodd" d="M3698,3989 C3698,4044.78 3652.78,4090 3597,4090 C3541.22,4090 3496,4044.78 3496,3989 C3496,3933.22 3541.22,3888 3597,3888 C3652.78,3888 3698,3933.22 3698,3989 "/>
</g>

<g fill="#ffffff" fill-opacity="1" stroke="none" transform="matrix(1,0,0,1,0,0)"
font-family="MS Shell Dlg 2" font-size="291.042" font-weight="400" font-style="normal" 
>
<path vector-effect="non-scaling-stroke" fill-rule="evenodd" d="M3495,3989 C3495,4044.78 3449.78,4090 3394,4090 C3338.22,4090 3293,4044.78 3293,3989 C3293,3933.22 3338.22,3888 3394,3888 C3449.78,3888 3495,3933.22 3495,3989 "/>
</g>

<g fill="#ffffff" fill-opacity="1" stroke="none" transform="matrix(1,0,0,1,0,0)"
font-family="MS Shell Dlg 2" font-size="291.042" font-weight="400" font-style="normal" 
>
<path vector-effect="non-scaling-stroke" fill-rule="evenodd" d="M3292,3989 C3292,4044.78 3246.78,4090 3191,4090 C3135.22,4090 3090,4044.78 3090,3989 C3090,3933.22 3135.22,3888 3191,3888 C3246.78,3888 3292,3933.22 3292,3989 "/>
</g>

<g fill="#ffffff" fill-opacity="1" stroke="none" transform="matrix(1,0,0,1,0,0)"
font-family="MS Shell Dlg 2" font-size="291.042" font-weight="400" font-style="normal" 
>
<path vector-effect="non-scaling-stroke" fill-rule="evenodd" d="M1145,4089 C1145,4144.78 1099.78,4190 1044,4190 C988.219,4190 943,4144.78 943,4089 C943,4033.22 988.219,3988 1044,3988 C1099.78,3988 1145,4033.22 1145,4089 "/>
</g>

<g fill="#ffffff" fill-opacity="1" stroke="none" transform="matrix(1,0,0,1,0,0)"
font-family="MS Shell Dlg 2" font-size="291.042" font-weight="400" font-style="normal" 
>
<path vector-effect="non-scaling-stroke" fill-rule="evenodd" d="M1348,4089 C1348,4144.78 1302.78,4190 1247,4190 C1191.22,4190 1146,4144.78 1146,4089 C1146,4033.22 1191.22,3988 1247,3988 C1302.78,3988 1348,4033.22 1348,4089 "/>
</g>

<g fill="#ffffff" fill-opacity="1" stroke="none" transform="matrix(1,0,0,1,0,0)"
font-family="MS Shell Dlg 2" font-size="291.042" font-weight="400" font-style="normal" 
>
<path vector-effect="non-scaling-stroke" fill-rule="evenodd" d="M1551,4089 C1551,4144.78 1505.78,4190 1450,4190 C1394.22,4190 1349,4144.78 1349,4089 C1349,4033.22 1394.22,3988 1450,3988 C1505.78,3988 1551,4033.22 1551,4089 "/>
</g>

<g fill="#ffffff" fill-opacity="1" stroke="none" transform="matrix(1,0,0,1,0,0)"
font-family="MS Shell Dlg 2" font-size="291.042" font-weight="400" font-style="normal" 
>
<path vector-effect="non-scaling-stroke" fill-rule="evenodd" d="M1041,8789 C1041,8844.78 995.781,8890 940,8890 C884.219,8890 839,8844.78 839,8789 C839,8733.22 884.219,8688 940,8688 C995.781,8688 1041,8733.22 1041,8789 "/>
</g>

<g fill="#ffffff" fill-opacity="1" stroke="none" transform="matrix(1,0,0,1,0,0)"
font-family="MS Shell Dlg 2" font-size="291.042" font-weight="400" font-style="normal" 
>
<path vector-effect="non-scaling-stroke" fill-rule="evenodd" d="M1295,8789 C1295,8844.78 1249.78,8890 1194,8890 C1138.22,8890 1093,8844.78 1093,8789 C1093,8733.22 1138.22,8688 1194,8688 C1249.78,8688 1295,8733.22 1295,8789 "/>
</g>

<g fill="#ffffff" fill-opacity="1" stroke="none" transform="matrix(1,0,0,1,0,0)"
font-family="MS Shell Dlg 2" font-size="291.042" font-weight="400" font-style="normal" 
>
<path vector-effect="non-scaling-stroke" fill-rule="evenodd" d="M1545,9639 C1545,9694.78 1499.78,9740 1444,9740 C1388.22,9740 1343,9694.78 1343,9639 C1343,9583.22 1388.22,9538 1444,9538 C1499.78,9538 1545,9583.22 1545,9639 "/>
</g>

<g fill="#ffffff" fill-opacity="1" stroke="none" transform="matrix(1,0,0,1,0,0)"
font-family="MS Shell Dlg 2" font-size="291.042" font-weight="400" font-style="normal" 
>
<path vector-effect="non-scaling-stroke" fill-rule="evenodd" d="M2041,8289 C2041,8344.78 1995.78,8390 1940,8390 C1884.22,8390 1839,8344.78 1839,8289 C1839,8233.22 1884.22,8188 1940,8188 C1995.78,8188 2041,8233.22 2041,8289 "/>
</g>

<g fill="#ffffff" fill-opacity="1" stroke="none" transform="matrix(1,0,0,1,0,0)"
font-family="MS Shell Dlg 2" font-size="291.042" font-weight="400" font-style="normal" 
>
<path vector-effect="non-scaling-stroke" fill-rule="evenodd" d="M1025,8289 C1025,8344.78 979.781,8390 924,8390 C868.219,8390 823,8344.78 823,8289 C823,8233.22 868.219,8188 924,8188 C979.781,8188 1025,8233.22 1025,8289 "/>
</g>

<g fill="#ffffff" fill-opacity="1" stroke="none" transform="matrix(1,0,0,1,0,0)"
font-family="MS Shell Dlg 2" font-size="291.042" font-weight="400" font-style="normal" 
>
<path vector-effect="non-scaling-stroke" fill-rule="evenodd" d="M2045,7539 C2045,7594.78 1999.78,7640 1944,7640 C1888.22,7640 1843,7594.78 1843,7539 C1843,7483.22 1888.22,7438 1944,7438 C1999.78,7438 2045,7483.22 2045,7539 "/>
</g>

<g fill="#ffffff" fill-opacity="1" stroke="none" transform="matrix(1,0,0,1,0,0)"
font-family="MS Shell Dlg 2" font-size="291.042" font-weight="400" font-style="normal" 
>
<path vector-effect="non-scaling-stroke" fill-rule="evenodd" d="M1029,7539 C1029,7594.78 983.781,7640 928,7640 C872.219,7640 827,7594.78 827,7539 C827,7483.22 872.219,7438 928,7438 C983.781,7438 1029,7483.22 1029,7539 "/>
</g>

<g fill="#ffffff" fill-opacity="1" stroke="none" transform="matrix(1,0,0,1,0,0)"
font-family="MS Shell Dlg 2" font-size="291.042" font-weight="400" font-style="normal" 
>
<path vector-effect="non-scaling-stroke" fill-rule="evenodd" d="M2458,8039 C2458,8101.96 2406.96,8153 2344,8153 C2281.04,8153 2230,8101.96 2230,8039 C2230,7976.04 2281.04,7925 2344,7925 C2406.96,7925 2458,7976.04 2458,8039 "/>
</g>

<g fill="#ffffff" fill-opacity="1" stroke="none" transform="matrix(1,0,0,1,0,0)"
font-family="MS Shell Dlg 2" font-size="291.042" font-weight="400" font-style="normal" 
>
<path vector-effect="non-scaling-stroke" fill-rule="evenodd" d="M2458,7789 C2458,7851.96 2406.96,7903 2344,7903 C2281.04,7903 2230,7851.96 2230,7789 C2230,7726.04 2281.04,7675 2344,7675 C2406.96,7675 2458,7726.04 2458,7789 "/>
</g>

<g fill="#ffffff" fill-opacity="1" stroke="none" transform="matrix(1,0,0,1,0,0)"
font-family="MS Shell Dlg 2" font-size="291.042" font-weight="400" font-style="normal" 
>
<path vector-effect="non-scaling-stroke" fill-rule="evenodd" d="M2445,9789 C2445,9844.78 2399.78,9890 2344,9890 C2288.22,9890 2243,9844.78 2243,9789 C2243,9733.22 2288.22,9688 2344,9688 C2399.78,9688 2445,9733.22 2445,9789 "/>
</g>

<g fill="#ffffff" fill-opacity="1" stroke="none" transform="matrix(1,0,0,1,0,0)"
font-family="MS Shell Dlg 2" font-size="291.042" font-weight="400" font-style="normal" 
>
<path vector-effect="non-scaling-stroke" fill-rule="evenodd" d="M4008,8039 C4008,8101.96 3956.96,8153 3894,8153 C3831.04,8153 3780,8101.96 3780,8039 C3780,7976.04 3831.04,7925 3894,7925 C3956.96,7925 4008,7976.04 4008,8039 "/>
</g>

<g fill="#ffffff" fill-opacity="1" stroke="none" transform="matrix(1,0,0,1,0,0)"
font-family="MS Shell Dlg 2" font-size="291.042" font-weight="400" font-style="normal" 
>
<path vector-effect="non-scaling-stroke" fill-rule="evenodd" d="M4008,8289 C4008,8351.96 3956.96,8403 3894,8403 C3831.04,8403 3780,8351.96 3780,8289 C3780,8226.04 3831.04,8175 3894,8175 C3956.96,8175 4008,8226.04 4008,8289 "/>
</g>

<g fill="#ffffff" fill-opacity="1" stroke="none" transform="matrix(1,0,0,1,0,0)"
font-family="MS Shell Dlg 2" font-size="291.042" font-weight="400" font-style="normal" 
>
<path vector-effect="non-scaling-stroke" fill-rule="evenodd" d="M2445,9539 C2445,9594.78 2399.78,9640 2344,9640 C2288.22,9640 2243,9594.78 2243,9539 C2243,9483.22 2288.22,9438 2344,9438 C2399.78,9438 2445,9483.22 2445,9539 "/>
</g>

<g fill="#ffffff" fill-opacity="1" stroke="none" transform="matrix(1,0,0,1,0,0)"
font-family="MS Shell Dlg 2" font-size="291.042" font-weight="400" font-style="normal" 
>
<path vector-effect="non-scaling-stroke" fill-rule="evenodd" d="M2445,9789 C2445,9844.78 2399.78,9890 2344,9890 C2288.22,9890 2243,9844.78 2243,9789 C2243,9733.22 2288.22,9688 2344,9688 C2399.78,9688 2445,9733.22 2445,9789 "/>
</g>

<g fill="#ffffff" fill-opacity="1" stroke="none" transform="matrix(1,0,0,1,0,0)"
font-family="MS Shell Dlg 2" font-size="291.042" font-weight="400" font-style="normal" 
>
<path vector-effect="non-scaling-stroke" fill-rule="evenodd" d="M2458,9539 C2458,9601.96 2406.96,9653 2344,9653 C2281.04,9653 2230,9601.96 2230,9539 C2230,9476.04 2281.04,9425 2344,9425 C2406.96,9425 2458,9476.04 2458,9539 "/>
</g>

<g fill="#ffffff" fill-opacity="1" stroke="none" transform="matrix(1,0,0,1,0,0)"
font-family="MS Shell Dlg 2" font-size="291.042" font-weight="400" font-style="normal" 
>
<path vector-effect="non-scaling-stroke" fill-rule="evenodd" d="M2458,10539 C2458,10602 2406.96,10653 2344,10653 C2281.04,10653 2230,10602 2230,10539 C2230,10476 2281.04,10425 2344,10425 C2406.96,10425 2458,10476 2458,10539 "/>
</g>

<g fill="#ffffff" fill-opacity="1" stroke="none" transform="matrix(1,0,0,1,0,0)"
font-family="MS Shell Dlg 2" font-size="291.042" font-weight="400" font-style="normal" 
>
<path vector-effect="non-scaling-stroke" fill-rule="evenodd" d="M2458,10789 C2458,10852 2406.96,10903 2344,10903 C2281.04,10903 2230,10852 2230,10789 C2230,10726 2281.04,10675 2344,10675 C2406.96,10675 2458,10726 2458,10789 "/>
</g>

<g fill="#ffffff" fill-opacity="1" stroke="none" transform="matrix(1,0,0,1,0,0)"
font-family="MS Shell Dlg 2" font-size="291.042" font-weight="400" font-style="normal" 
>
<path vector-effect="non-scaling-stroke" fill-rule="evenodd" d="M1558,10089 C1558,10152 1506.96,10203 1444,10203 C1381.04,10203 1330,10152 1330,10089 C1330,10026 1381.04,9975 1444,9975 C1506.96,9975 1558,10026 1558,10089 "/>
</g>

<g fill="#ffffff" fill-opacity="1" stroke="none" transform="matrix(1,0,0,1,0,0)"
font-family="MS Shell Dlg 2" font-size="291.042" font-weight="400" font-style="normal" 
>
<path vector-effect="non-scaling-stroke" fill-rule="evenodd" d="M4145,3989 C4145,4044.78 4099.78,4090 4044,4090 C3988.22,4090 3943,4044.78 3943,3989 C3943,3933.22 3988.22,3888 4044,3888 C4099.78,3888 4145,3933.22 4145,3989 "/>
</g>

<g fill="#ffffff" fill-opacity="1" stroke="none" transform="matrix(1,0,0,1,0,0)"
font-family="MS Shell Dlg 2" font-size="291.042" font-weight="400" font-style="normal" 
>
<path vector-effect="non-scaling-stroke" fill-rule="evenodd" d="M4145,3589 C4145,3644.78 4099.78,3690 4044,3690 C3988.22,3690 3943,3644.78 3943,3589 C3943,3533.22 3988.22,3488 4044,3488 C4099.78,3488 4145,3533.22 4145,3589 "/>
</g>

<g fill="#ffffff" fill-opacity="1" stroke="none" transform="matrix(1,0,0,1,0,0)"
font-family="MS Shell Dlg 2" font-size="291.042" font-weight="400" font-style="normal" 
>
<path vector-effect="non-scaling-stroke" fill-rule="evenodd" d="M1045,11989 C1045,12044.8 999.781,12090 944,12090 C888.219,12090 843,12044.8 843,11989 C843,11933.2 888.219,11888 944,11888 C999.781,11888 1045,11933.2 1045,11989 "/>
</g>

<g fill="#ffffff" fill-opacity="1" stroke="none" transform="matrix(1,0,0,1,0,0)"
font-family="MS Shell Dlg 2" font-size="291.042" font-weight="400" font-style="normal" 
>
<path vector-effect="non-scaling-stroke" fill-rule="evenodd" d="M1045,12489 C1045,12544.8 999.781,12590 944,12590 C888.219,12590 843,12544.8 843,12489 C843,12433.2 888.219,12388 944,12388 C999.781,12388 1045,12433.2 1045,12489 "/>
</g>

<g fill="#ffffff" fill-opacity="1" stroke="none" transform="matrix(1,0,0,1,0,0)"
font-family="MS Shell Dlg 2" font-size="291.042" font-weight="400" font-style="normal" 
>
<path vector-effect="non-scaling-stroke" fill-rule="evenodd" d="M2629,5989 C2629,6044.78 2583.78,6090 2528,6090 C2472.22,6090 2427,6044.78 2427,5989 C2427,5933.22 2472.22,5888 2528,5888 C2583.78,5888 2629,5933.22 2629,5989 "/>
</g>

<g fill="#ffffff" fill-opacity="1" stroke="none" transform="matrix(1,0,0,1,0,0)"
font-family="MS Shell Dlg 2" font-size="291.042" font-weight="400" font-style="normal" 
>
<path vector-effect="non-scaling-stroke" fill-rule="evenodd" d="M3645,5989 C3645,6044.78 3599.78,6090 3544,6090 C3488.22,6090 3443,6044.78 3443,5989 C3443,5933.22 3488.22,5888 3544,5888 C3599.78,5888 3645,5933.22 3645,5989 "/>
</g>

<g fill="#ffffff" fill-opacity="1" stroke="none" transform="matrix(1,0,0,1,0,0)"
font-family="MS Shell Dlg 2" font-size="291.042" font-weight="400" font-style="normal" 
>
<path vector-effect="non-scaling-stroke" fill-rule="evenodd" d="M2045,5989 C2045,6044.78 1999.78,6090 1944,6090 C1888.22,6090 1843,6044.78 1843,5989 C1843,5933.22 1888.22,5888 1944,5888 C1999.78,5888 2045,5933.22 2045,5989 "/>
</g>

<g fill="#ffffff" fill-opacity="1" stroke="none" transform="matrix(1,0,0,1,0,0)"
font-family="MS Shell Dlg 2" font-size="291.042" font-weight="400" font-style="normal" 
>
<path vector-effect="non-scaling-stroke" fill-rule="evenodd" d="M1029,5989 C1029,6044.78 983.781,6090 928,6090 C872.219,6090 827,6044.78 827,5989 C827,5933.22 872.219,5888 928,5888 C983.781,5888 1029,5933.22 1029,5989 "/>
</g>

<g fill="#ffffff" fill-opacity="1" stroke="none" transform="matrix(1,0,0,1,0,0)"
font-family="MS Shell Dlg 2" font-size="291.042" font-weight="400" font-style="normal" 
>
<path vector-effect="non-scaling-stroke" fill-rule="evenodd" d="M2745,2473 C2745,2528.78 2699.78,2574 2644,2574 C2588.22,2574 2543,2528.78 2543,2473 C2543,2417.22 2588.22,2372 2644,2372 C2699.78,2372 2745,2417.22 2745,2473 "/>
</g>

<g fill="#ffffff" fill-opacity="1" stroke="none" transform="matrix(1,0,0,1,0,0)"
font-family="MS Shell Dlg 2" font-size="291.042" font-weight="400" font-style="normal" 
>
<path vector-effect="non-scaling-stroke" fill-rule="evenodd" d="M2745,3489 C2745,3544.78 2699.78,3590 2644,3590 C2588.22,3590 2543,3544.78 2543,3489 C2543,3433.22 2588.22,3388 2644,3388 C2699.78,3388 2745,3433.22 2745,3489 "/>
</g>

<g fill="#ffffff" fill-opacity="1" stroke="none" transform="matrix(1,0,0,1,0,0)"
font-family="MS Shell Dlg 2" font-size="291.042" font-weight="400" font-style="normal" 
>
<path vector-effect="non-scaling-stroke" fill-rule="evenodd" d="M1845,2489 C1845,2544.78 1799.78,2590 1744,2590 C1688.22,2590 1643,2544.78 1643,2489 C1643,2433.22 1688.22,2388 1744,2388 C1799.78,2388 1845,2433.22 1845,2489 "/>
</g>

<g fill="#ffffff" fill-opacity="1" stroke="none" transform="matrix(1,0,0,1,0,0)"
font-family="MS Shell Dlg 2" font-size="291.042" font-weight="400" font-style="normal" 
>
<path vector-effect="non-scaling-stroke" fill-rule="evenodd" d="M1845,3505 C1845,3560.78 1799.78,3606 1744,3606 C1688.22,3606 1643,3560.78 1643,3505 C1643,3449.22 1688.22,3404 1744,3404 C1799.78,3404 1845,3449.22 1845,3505 "/>
</g>

<g fill="#ffffff" fill-opacity="1" stroke="none" transform="matrix(1,0,0,1,0,0)"
font-family="MS Shell Dlg 2" font-size="291.042" font-weight="400" font-style="normal" 
>
<path vector-effect="non-scaling-stroke" fill-rule="evenodd" d="M3245,2473 C3245,2528.78 3199.78,2574 3144,2574 C3088.22,2574 3043,2528.78 3043,2473 C3043,2417.22 3088.22,2372 3144,2372 C3199.78,2372 3245,2417.22 3245,2473 "/>
</g>

<g fill="#ffffff" fill-opacity="1" stroke="none" transform="matrix(1,0,0,1,0,0)"
font-family="MS Shell Dlg 2" font-size="291.042" font-weight="400" font-style="normal" 
>
<path vector-effect="non-scaling-stroke" fill-rule="evenodd" d="M3245,3489 C3245,3544.78 3199.78,3590 3144,3590 C3088.22,3590 3043,3544.78 3043,3489 C3043,3433.22 3088.22,3388 3144,3388 C3199.78,3388 3245,3433.22 3245,3489 "/>
</g>

<g fill="#ffffff" fill-opacity="1" stroke="none" transform="matrix(1,0,0,1,0,0)"
font-family="MS Shell Dlg 2" font-size="291.042" font-weight="400" font-style="normal" 
>
<path vector-effect="non-scaling-stroke" fill-rule="evenodd" d="M1445,2473 C1445,2528.78 1399.78,2574 1344,2574 C1288.22,2574 1243,2528.78 1243,2473 C1243,2417.22 1288.22,2372 1344,2372 C1399.78,2372 1445,2417.22 1445,2473 "/>
</g>

<g fill="#ffffff" fill-opacity="1" stroke="none" transform="matrix(1,0,0,1,0,0)"
font-family="MS Shell Dlg 2" font-size="291.042" font-weight="400" font-style="normal" 
>
<path vector-effect="non-scaling-stroke" fill-rule="evenodd" d="M1445,3489 C1445,3544.78 1399.78,3590 1344,3590 C1288.22,3590 1243,3544.78 1243,3489 C1243,3433.22 1288.22,3388 1344,3388 C1399.78,3388 1445,3433.22 1445,3489 "/>
</g>

<g fill="#ffffff" fill-opacity="1" stroke="none" transform="matrix(1,0,0,1,0,0)"
font-family="MS Shell Dlg 2" font-size="291.042" font-weight="400" font-style="normal" 
>
<path vector-effect="non-scaling-stroke" fill-rule="evenodd" d="M1058,10989 C1058,11052 1006.96,11103 944,11103 C881.04,11103 830,11052 830,10989 C830,10926 881.04,10875 944,10875 C1006.96,10875 1058,10926 1058,10989 "/>
</g>

<g fill="#ffffff" fill-opacity="1" stroke="none" transform="matrix(1,0,0,1,0,0)"
font-family="MS Shell Dlg 2" font-size="291.042" font-weight="400" font-style="normal" 
>
<path vector-effect="non-scaling-stroke" fill-rule="evenodd" d="M1058,10589 C1058,10652 1006.96,10703 944,10703 C881.04,10703 830,10652 830,10589 C830,10526 881.04,10475 944,10475 C1006.96,10475 1058,10526 1058,10589 "/>
</g>

<g fill="#ffffff" fill-opacity="1" stroke="none" transform="matrix(1,0,0,1,0,0)"
font-family="MS Shell Dlg 2" font-size="291.042" font-weight="400" font-style="normal" 
>
<path vector-effect="non-scaling-stroke" fill-rule="evenodd" d="M2458,11539 C2458,11602 2406.96,11653 2344,11653 C2281.04,11653 2230,11602 2230,11539 C2230,11476 2281.04,11425 2344,11425 C2406.96,11425 2458,11476 2458,11539 "/>
</g>

<g fill="#ffffff" fill-opacity="1" stroke="none" transform="matrix(1,0,0,1,0,0)"
font-family="MS Shell Dlg 2" font-size="291.042" font-weight="400" font-style="normal" 
>
<path vector-effect="non-scaling-stroke" fill-rule="evenodd" d="M2458,11289 C2458,11352 2406.96,11403 2344,11403 C2281.04,11403 2230,11352 2230,11289 C2230,11226 2281.04,11175 2344,11175 C2406.96,11175 2458,11226 2458,11289 "/>
</g>

<g fill="#ffffff" fill-opacity="1" stroke="none" transform="matrix(1,0,0,1,0,0)"
font-family="MS Shell Dlg 2" font-size="291.042" font-weight="400" font-style="normal" 
>
<path vector-effect="non-scaling-stroke" fill-rule="evenodd" d="M1445,2089 C1445,2144.78 1399.78,2190 1344,2190 C1288.22,2190 1243,2144.78 1243,2089 C1243,2033.22 1288.22,1988 1344,1988 C1399.78,1988 1445,2033.22 1445,2089 "/>
</g>

<g fill="#ffffff" fill-opacity="1" stroke="none" transform="matrix(1,0,0,1,0,0)"
font-family="MS Shell Dlg 2" font-size="291.042" font-weight="400" font-style="normal" 
>
<path vector-effect="non-scaling-stroke" fill-rule="evenodd" d="M1045,2489 C1045,2544.78 999.781,2590 944,2590 C888.219,2590 843,2544.78 843,2489 C843,2433.22 888.219,2388 944,2388 C999.781,2388 1045,2433.22 1045,2489 "/>
</g>

<g fill="#ffffff" fill-opacity="1" stroke="none" transform="matrix(1,0,0,1,0,0)"
font-family="MS Shell Dlg 2" font-size="291.042" font-weight="400" font-style="normal" 
>
<path vector-effect="non-scaling-stroke" fill-rule="evenodd" d="M3845,2789 C3845,2844.78 3799.78,2890 3744,2890 C3688.22,2890 3643,2844.78 3643,2789 C3643,2733.22 3688.22,2688 3744,2688 C3799.78,2688 3845,2733.22 3845,2789 "/>
</g>

<g fill="#ffffff" fill-opacity="1" stroke="none" transform="matrix(1,0,0,1,0,0)"
font-family="MS Shell Dlg 2" font-size="291.042" font-weight="400" font-style="normal" 
>
<path vector-effect="non-scaling-stroke" fill-rule="evenodd" d="M4145,3189 C4145,3244.78 4099.78,3290 4044,3290 C3988.22,3290 3943,3244.78 3943,3189 C3943,3133.22 3988.22,3088 4044,3088 C4099.78,3088 4145,3133.22 4145,3189 "/>
</g>

<g fill="#ffffff" fill-opacity="1" stroke="none" transform="matrix(1,0,0,1,0,0)"
font-family="MS Shell Dlg 2" font-size="291.042" font-weight="400" font-style="normal" 
>
<path vector-effect="non-scaling-stroke" fill-rule="evenodd" d="M1045,2089 C1045,2144.78 999.781,2190 944,2190 C888.219,2190 843,2144.78 843,2089 C843,2033.22 888.219,1988 944,1988 C999.781,1988 1045,2033.22 1045,2089 "/>
</g>

<g fill="#ffffff" fill-opacity="1" stroke="none" transform="matrix(1,0,0,1,0,0)"
font-family="MS Shell Dlg 2" font-size="291.042" font-weight="400" font-style="normal" 
>
<path vector-effect="non-scaling-stroke" fill-rule="evenodd" d="M1845,2089 C1845,2144.78 1799.78,2190 1744,2190 C1688.22,2190 1643,2144.78 1643,2089 C1643,2033.22 1688.22,1988 1744,1988 C1799.78,1988 1845,2033.22 1845,2089 "/>
</g>

<g fill="none" stroke="#ffffff" stroke-opacity="1" stroke-width="20" stroke-linecap="round" stroke-linejoin="bevel" transform="matrix(1,0,0,1,0,0)"
font-family="MS Shell Dlg 2" font-size="291.042" font-weight="400" font-style="normal" 
>
<path vector-effect="none" fill-rule="evenodd" d="M694,1889 L4444,1889 L4444,12689 L694,12689 L694,1889"/>
</g>

<g fill="none" stroke="#ffffff" stroke-opacity="1" stroke-width="20" stroke-linecap="round" stroke-linejoin="bevel" transform="matrix(1,0,0,1,0,0)"
font-family="MS Shell Dlg 2" font-size="291.042" font-weight="400" font-style="normal" 
>
<path vector-effect="none" fill-rule="evenodd" d="M694,1889 L4444,1889 L4444,12689 L694,12689 L694,1889"/>
</g>
</g>
</svg>
