<?xml version="1.0" encoding="UTF-8" standalone="no"?>
<svg width="51.88mm" height="129.54mm"
 viewBox="0 0 5188 12954"
 xmlns="http://www.w3.org/2000/svg" xmlns:xlink="http://www.w3.org/1999/xlink"  version="1.2" baseProfile="tiny">
<title>Proteus Design Suite SVG export</title>
<desc>Created by Proteus Design Suite</desc>
<defs>
</defs>
<g fill="none" stroke="black" stroke-width="1" fill-rule="evenodd" stroke-linecap="square" stroke-linejoin="bevel" >

<g fill="#000000" fill-opacity="1" stroke="none" transform="matrix(1,0,0,1,0,0)"
font-family="MS Shell Dlg 2" font-size="291.042" font-weight="400" font-style="normal" 
>
<path vector-effect="non-scaling-stroke" fill-rule="evenodd" d="M0,0 L5188,0 L5188,12954 L0,12954 L0,0"/>
</g>

<g fill="#ffffff" fill-opacity="1" stroke="none" transform="matrix(1,0,0,1,0,0)"
font-family="MS Shell Dlg 2" font-size="291.042" font-weight="400" font-style="normal" 
>
<path vector-effect="non-scaling-stroke" fill-rule="evenodd" d="M1395,6789 C1395,6844.78 1349.78,6890 1294,6890 C1238.22,6890 1193,6844.78 1193,6789 C1193,6733.22 1238.22,6688 1294,6688 C1349.78,6688 1395,6733.22 1395,6789 "/>
</g>

<g fill="#ffffff" fill-opacity="1" stroke="none" transform="matrix(1,0,0,1,0,0)"
font-family="MS Shell Dlg 2" font-size="291.042" font-weight="400" font-style="normal" 
>
<path vector-effect="non-scaling-stroke" fill-rule="evenodd" d="M1395,7039 C1395,7094.78 1349.78,7140 1294,7140 C1238.22,7140 1193,7094.78 1193,7039 C1193,6983.22 1238.22,6938 1294,6938 C1349.78,6938 1395,6983.22 1395,7039 "/>
</g>

<g fill="#ffffff" fill-opacity="1" stroke="none" transform="matrix(1,0,0,1,0,0)"
font-family="MS Shell Dlg 2" font-size="291.042" font-weight="400" font-style="normal" 
>
<path vector-effect="non-scaling-stroke" fill-rule="evenodd" d="M1395,7289 C1395,7344.78 1349.78,7390 1294,7390 C1238.22,7390 1193,7344.78 1193,7289 C1193,7233.22 1238.22,7188 1294,7188 C1349.78,7188 1395,7233.22 1395,7289 "/>
</g>

<g fill="#ffffff" fill-opacity="1" stroke="none" transform="matrix(1,0,0,1,0,0)"
font-family="MS Shell Dlg 2" font-size="291.042" font-weight="400" font-style="normal" 
>
<path vector-effect="non-scaling-stroke" fill-rule="evenodd" d="M1395,7539 C1395,7594.78 1349.78,7640 1294,7640 C1238.22,7640 1193,7594.78 1193,7539 C1193,7483.22 1238.22,7438 1294,7438 C1349.78,7438 1395,7483.22 1395,7539 "/>
</g>

<g fill="#ffffff" fill-opacity="1" stroke="none" transform="matrix(1,0,0,1,0,0)"
font-family="MS Shell Dlg 2" font-size="291.042" font-weight="400" font-style="normal" 
>
<path vector-effect="non-scaling-stroke" fill-rule="evenodd" d="M1395,7789 C1395,7844.78 1349.78,7890 1294,7890 C1238.22,7890 1193,7844.78 1193,7789 C1193,7733.22 1238.22,7688 1294,7688 C1349.78,7688 1395,7733.22 1395,7789 "/>
</g>

<g fill="#ffffff" fill-opacity="1" stroke="none" transform="matrix(1,0,0,1,0,0)"
font-family="MS Shell Dlg 2" font-size="291.042" font-weight="400" font-style="normal" 
>
<path vector-effect="non-scaling-stroke" fill-rule="evenodd" d="M1395,8039 C1395,8094.78 1349.78,8140 1294,8140 C1238.22,8140 1193,8094.78 1193,8039 C1193,7983.22 1238.22,7938 1294,7938 C1349.78,7938 1395,7983.22 1395,8039 "/>
</g>

<g fill="#ffffff" fill-opacity="1" stroke="none" transform="matrix(1,0,0,1,0,0)"
font-family="MS Shell Dlg 2" font-size="291.042" font-weight="400" font-style="normal" 
>
<path vector-effect="non-scaling-stroke" fill-rule="evenodd" d="M1395,8289 C1395,8344.78 1349.78,8390 1294,8390 C1238.22,8390 1193,8344.78 1193,8289 C1193,8233.22 1238.22,8188 1294,8188 C1349.78,8188 1395,8233.22 1395,8289 "/>
</g>

<g fill="#ffffff" fill-opacity="1" stroke="none" transform="matrix(1,0,0,1,0,0)"
font-family="MS Shell Dlg 2" font-size="291.042" font-weight="400" font-style="normal" 
>
<path vector-effect="non-scaling-stroke" fill-rule="evenodd" d="M1395,8539 C1395,8594.78 1349.78,8640 1294,8640 C1238.22,8640 1193,8594.78 1193,8539 C1193,8483.22 1238.22,8438 1294,8438 C1349.78,8438 1395,8483.22 1395,8539 "/>
</g>

<g fill="#ffffff" fill-opacity="1" stroke="none" transform="matrix(1,0,0,1,0,0)"
font-family="MS Shell Dlg 2" font-size="291.042" font-weight="400" font-style="normal" 
>
<path vector-effect="non-scaling-stroke" fill-rule="evenodd" d="M1395,8789 C1395,8844.78 1349.78,8890 1294,8890 C1238.22,8890 1193,8844.78 1193,8789 C1193,8733.22 1238.22,8688 1294,8688 C1349.78,8688 1395,8733.22 1395,8789 "/>
</g>

<g fill="#ffffff" fill-opacity="1" stroke="none" transform="matrix(1,0,0,1,0,0)"
font-family="MS Shell Dlg 2" font-size="291.042" font-weight="400" font-style="normal" 
>
<path vector-effect="non-scaling-stroke" fill-rule="evenodd" d="M1395,9039 C1395,9094.78 1349.78,9140 1294,9140 C1238.22,9140 1193,9094.78 1193,9039 C1193,8983.22 1238.22,8938 1294,8938 C1349.78,8938 1395,8983.22 1395,9039 "/>
</g>

<g fill="#ffffff" fill-opacity="1" stroke="none" transform="matrix(1,0,0,1,0,0)"
font-family="MS Shell Dlg 2" font-size="291.042" font-weight="400" font-style="normal" 
>
<path vector-effect="non-scaling-stroke" fill-rule="evenodd" d="M1395,9289 C1395,9344.78 1349.78,9390 1294,9390 C1238.22,9390 1193,9344.78 1193,9289 C1193,9233.22 1238.22,9188 1294,9188 C1349.78,9188 1395,9233.22 1395,9289 "/>
</g>

<g fill="#ffffff" fill-opacity="1" stroke="none" transform="matrix(1,0,0,1,0,0)"
font-family="MS Shell Dlg 2" font-size="291.042" font-weight="400" font-style="normal" 
>
<path vector-effect="non-scaling-stroke" fill-rule="evenodd" d="M1395,9539 C1395,9594.78 1349.78,9640 1294,9640 C1238.22,9640 1193,9594.78 1193,9539 C1193,9483.22 1238.22,9438 1294,9438 C1349.78,9438 1395,9483.22 1395,9539 "/>
</g>

<g fill="#ffffff" fill-opacity="1" stroke="none" transform="matrix(1,0,0,1,0,0)"
font-family="MS Shell Dlg 2" font-size="291.042" font-weight="400" font-style="normal" 
>
<path vector-effect="non-scaling-stroke" fill-rule="evenodd" d="M1395,9789 C1395,9844.78 1349.78,9890 1294,9890 C1238.22,9890 1193,9844.78 1193,9789 C1193,9733.22 1238.22,9688 1294,9688 C1349.78,9688 1395,9733.22 1395,9789 "/>
</g>

<g fill="#ffffff" fill-opacity="1" stroke="none" transform="matrix(1,0,0,1,0,0)"
font-family="MS Shell Dlg 2" font-size="291.042" font-weight="400" font-style="normal" 
>
<path vector-effect="non-scaling-stroke" fill-rule="evenodd" d="M1395,10039 C1395,10094.8 1349.78,10140 1294,10140 C1238.22,10140 1193,10094.8 1193,10039 C1193,9983.22 1238.22,9938 1294,9938 C1349.78,9938 1395,9983.22 1395,10039 "/>
</g>

<g fill="#ffffff" fill-opacity="1" stroke="none" transform="matrix(1,0,0,1,0,0)"
font-family="MS Shell Dlg 2" font-size="291.042" font-weight="400" font-style="normal" 
>
<path vector-effect="non-scaling-stroke" fill-rule="evenodd" d="M1395,10289 C1395,10344.8 1349.78,10390 1294,10390 C1238.22,10390 1193,10344.8 1193,10289 C1193,10233.2 1238.22,10188 1294,10188 C1349.78,10188 1395,10233.2 1395,10289 "/>
</g>

<g fill="#ffffff" fill-opacity="1" stroke="none" transform="matrix(1,0,0,1,0,0)"
font-family="MS Shell Dlg 2" font-size="291.042" font-weight="400" font-style="normal" 
>
<path vector-effect="non-scaling-stroke" fill-rule="evenodd" d="M1395,10539 C1395,10594.8 1349.78,10640 1294,10640 C1238.22,10640 1193,10594.8 1193,10539 C1193,10483.2 1238.22,10438 1294,10438 C1349.78,10438 1395,10483.2 1395,10539 "/>
</g>

<g fill="#ffffff" fill-opacity="1" stroke="none" transform="matrix(1,0,0,1,0,0)"
font-family="MS Shell Dlg 2" font-size="291.042" font-weight="400" font-style="normal" 
>
<path vector-effect="non-scaling-stroke" fill-rule="evenodd" d="M1395,10789 C1395,10844.8 1349.78,10890 1294,10890 C1238.22,10890 1193,10844.8 1193,10789 C1193,10733.2 1238.22,10688 1294,10688 C1349.78,10688 1395,10733.2 1395,10789 "/>
</g>

<g fill="#ffffff" fill-opacity="1" stroke="none" transform="matrix(1,0,0,1,0,0)"
font-family="MS Shell Dlg 2" font-size="291.042" font-weight="400" font-style="normal" 
>
<path vector-effect="non-scaling-stroke" fill-rule="evenodd" d="M1395,11039 C1395,11094.8 1349.78,11140 1294,11140 C1238.22,11140 1193,11094.8 1193,11039 C1193,10983.2 1238.22,10938 1294,10938 C1349.78,10938 1395,10983.2 1395,11039 "/>
</g>

<g fill="#ffffff" fill-opacity="1" stroke="none" transform="matrix(1,0,0,1,0,0)"
font-family="MS Shell Dlg 2" font-size="291.042" font-weight="400" font-style="normal" 
>
<path vector-effect="non-scaling-stroke" fill-rule="evenodd" d="M1395,11289 C1395,11344.8 1349.78,11390 1294,11390 C1238.22,11390 1193,11344.8 1193,11289 C1193,11233.2 1238.22,11188 1294,11188 C1349.78,11188 1395,11233.2 1395,11289 "/>
</g>

<g fill="#ffffff" fill-opacity="1" stroke="none" transform="matrix(1,0,0,1,0,0)"
font-family="MS Shell Dlg 2" font-size="291.042" font-weight="400" font-style="normal" 
>
<path vector-effect="non-scaling-stroke" fill-rule="evenodd" d="M1395,11539 C1395,11594.8 1349.78,11640 1294,11640 C1238.22,11640 1193,11594.8 1193,11539 C1193,11483.2 1238.22,11438 1294,11438 C1349.78,11438 1395,11483.2 1395,11539 "/>
</g>

<g fill="#ffffff" fill-opacity="1" stroke="none" transform="matrix(1,0,0,1,0,0)"
font-family="MS Shell Dlg 2" font-size="291.042" font-weight="400" font-style="normal" 
>
<path vector-effect="non-scaling-stroke" fill-rule="evenodd" d="M1395,11789 C1395,11844.8 1349.78,11890 1294,11890 C1238.22,11890 1193,11844.8 1193,11789 C1193,11733.2 1238.22,11688 1294,11688 C1349.78,11688 1395,11733.2 1395,11789 "/>
</g>

<g fill="#ffffff" fill-opacity="1" stroke="none" transform="matrix(1,0,0,1,0,0)"
font-family="MS Shell Dlg 2" font-size="291.042" font-weight="400" font-style="normal" 
>
<path vector-effect="non-scaling-stroke" fill-rule="evenodd" d="M2945,6789 C2945,6844.78 2899.78,6890 2844,6890 C2788.22,6890 2743,6844.78 2743,6789 C2743,6733.22 2788.22,6688 2844,6688 C2899.78,6688 2945,6733.22 2945,6789 "/>
</g>

<g fill="#ffffff" fill-opacity="1" stroke="none" transform="matrix(1,0,0,1,0,0)"
font-family="MS Shell Dlg 2" font-size="291.042" font-weight="400" font-style="normal" 
>
<path vector-effect="non-scaling-stroke" fill-rule="evenodd" d="M2945,7039 C2945,7094.78 2899.78,7140 2844,7140 C2788.22,7140 2743,7094.78 2743,7039 C2743,6983.22 2788.22,6938 2844,6938 C2899.78,6938 2945,6983.22 2945,7039 "/>
</g>

<g fill="#ffffff" fill-opacity="1" stroke="none" transform="matrix(1,0,0,1,0,0)"
font-family="MS Shell Dlg 2" font-size="291.042" font-weight="400" font-style="normal" 
>
<path vector-effect="non-scaling-stroke" fill-rule="evenodd" d="M2945,7289 C2945,7344.78 2899.78,7390 2844,7390 C2788.22,7390 2743,7344.78 2743,7289 C2743,7233.22 2788.22,7188 2844,7188 C2899.78,7188 2945,7233.22 2945,7289 "/>
</g>

<g fill="#ffffff" fill-opacity="1" stroke="none" transform="matrix(1,0,0,1,0,0)"
font-family="MS Shell Dlg 2" font-size="291.042" font-weight="400" font-style="normal" 
>
<path vector-effect="non-scaling-stroke" fill-rule="evenodd" d="M2945,7539 C2945,7594.78 2899.78,7640 2844,7640 C2788.22,7640 2743,7594.78 2743,7539 C2743,7483.22 2788.22,7438 2844,7438 C2899.78,7438 2945,7483.22 2945,7539 "/>
</g>

<g fill="#ffffff" fill-opacity="1" stroke="none" transform="matrix(1,0,0,1,0,0)"
font-family="MS Shell Dlg 2" font-size="291.042" font-weight="400" font-style="normal" 
>
<path vector-effect="non-scaling-stroke" fill-rule="evenodd" d="M2945,7789 C2945,7844.78 2899.78,7890 2844,7890 C2788.22,7890 2743,7844.78 2743,7789 C2743,7733.22 2788.22,7688 2844,7688 C2899.78,7688 2945,7733.22 2945,7789 "/>
</g>

<g fill="#ffffff" fill-opacity="1" stroke="none" transform="matrix(1,0,0,1,0,0)"
font-family="MS Shell Dlg 2" font-size="291.042" font-weight="400" font-style="normal" 
>
<path vector-effect="non-scaling-stroke" fill-rule="evenodd" d="M2945,8039 C2945,8094.78 2899.78,8140 2844,8140 C2788.22,8140 2743,8094.78 2743,8039 C2743,7983.22 2788.22,7938 2844,7938 C2899.78,7938 2945,7983.22 2945,8039 "/>
</g>

<g fill="#ffffff" fill-opacity="1" stroke="none" transform="matrix(1,0,0,1,0,0)"
font-family="MS Shell Dlg 2" font-size="291.042" font-weight="400" font-style="normal" 
>
<path vector-effect="non-scaling-stroke" fill-rule="evenodd" d="M2945,8289 C2945,8344.78 2899.78,8390 2844,8390 C2788.22,8390 2743,8344.78 2743,8289 C2743,8233.22 2788.22,8188 2844,8188 C2899.78,8188 2945,8233.22 2945,8289 "/>
</g>

<g fill="#ffffff" fill-opacity="1" stroke="none" transform="matrix(1,0,0,1,0,0)"
font-family="MS Shell Dlg 2" font-size="291.042" font-weight="400" font-style="normal" 
>
<path vector-effect="non-scaling-stroke" fill-rule="evenodd" d="M2945,8539 C2945,8594.78 2899.78,8640 2844,8640 C2788.22,8640 2743,8594.78 2743,8539 C2743,8483.22 2788.22,8438 2844,8438 C2899.78,8438 2945,8483.22 2945,8539 "/>
</g>

<g fill="#ffffff" fill-opacity="1" stroke="none" transform="matrix(1,0,0,1,0,0)"
font-family="MS Shell Dlg 2" font-size="291.042" font-weight="400" font-style="normal" 
>
<path vector-effect="non-scaling-stroke" fill-rule="evenodd" d="M2945,8789 C2945,8844.78 2899.78,8890 2844,8890 C2788.22,8890 2743,8844.78 2743,8789 C2743,8733.22 2788.22,8688 2844,8688 C2899.78,8688 2945,8733.22 2945,8789 "/>
</g>

<g fill="#ffffff" fill-opacity="1" stroke="none" transform="matrix(1,0,0,1,0,0)"
font-family="MS Shell Dlg 2" font-size="291.042" font-weight="400" font-style="normal" 
>
<path vector-effect="non-scaling-stroke" fill-rule="evenodd" d="M2945,9039 C2945,9094.78 2899.78,9140 2844,9140 C2788.22,9140 2743,9094.78 2743,9039 C2743,8983.22 2788.22,8938 2844,8938 C2899.78,8938 2945,8983.22 2945,9039 "/>
</g>

<g fill="#ffffff" fill-opacity="1" stroke="none" transform="matrix(1,0,0,1,0,0)"
font-family="MS Shell Dlg 2" font-size="291.042" font-weight="400" font-style="normal" 
>
<path vector-effect="non-scaling-stroke" fill-rule="evenodd" d="M2945,9289 C2945,9344.78 2899.78,9390 2844,9390 C2788.22,9390 2743,9344.78 2743,9289 C2743,9233.22 2788.22,9188 2844,9188 C2899.78,9188 2945,9233.22 2945,9289 "/>
</g>

<g fill="#ffffff" fill-opacity="1" stroke="none" transform="matrix(1,0,0,1,0,0)"
font-family="MS Shell Dlg 2" font-size="291.042" font-weight="400" font-style="normal" 
>
<path vector-effect="non-scaling-stroke" fill-rule="evenodd" d="M2945,10039 C2945,10094.8 2899.78,10140 2844,10140 C2788.22,10140 2743,10094.8 2743,10039 C2743,9983.22 2788.22,9938 2844,9938 C2899.78,9938 2945,9983.22 2945,10039 "/>
</g>

<g fill="#ffffff" fill-opacity="1" stroke="none" transform="matrix(1,0,0,1,0,0)"
font-family="MS Shell Dlg 2" font-size="291.042" font-weight="400" font-style="normal" 
>
<path vector-effect="non-scaling-stroke" fill-rule="evenodd" d="M2945,10289 C2945,10344.8 2899.78,10390 2844,10390 C2788.22,10390 2743,10344.8 2743,10289 C2743,10233.2 2788.22,10188 2844,10188 C2899.78,10188 2945,10233.2 2945,10289 "/>
</g>

<g fill="#ffffff" fill-opacity="1" stroke="none" transform="matrix(1,0,0,1,0,0)"
font-family="MS Shell Dlg 2" font-size="291.042" font-weight="400" font-style="normal" 
>
<path vector-effect="non-scaling-stroke" fill-rule="evenodd" d="M2945,10539 C2945,10594.8 2899.78,10640 2844,10640 C2788.22,10640 2743,10594.8 2743,10539 C2743,10483.2 2788.22,10438 2844,10438 C2899.78,10438 2945,10483.2 2945,10539 "/>
</g>

<g fill="#ffffff" fill-opacity="1" stroke="none" transform="matrix(1,0,0,1,0,0)"
font-family="MS Shell Dlg 2" font-size="291.042" font-weight="400" font-style="normal" 
>
<path vector-effect="non-scaling-stroke" fill-rule="evenodd" d="M2945,10789 C2945,10844.8 2899.78,10890 2844,10890 C2788.22,10890 2743,10844.8 2743,10789 C2743,10733.2 2788.22,10688 2844,10688 C2899.78,10688 2945,10733.2 2945,10789 "/>
</g>

<g fill="#ffffff" fill-opacity="1" stroke="none" transform="matrix(1,0,0,1,0,0)"
font-family="MS Shell Dlg 2" font-size="291.042" font-weight="400" font-style="normal" 
>
<path vector-effect="non-scaling-stroke" fill-rule="evenodd" d="M2945,11039 C2945,11094.8 2899.78,11140 2844,11140 C2788.22,11140 2743,11094.8 2743,11039 C2743,10983.2 2788.22,10938 2844,10938 C2899.78,10938 2945,10983.2 2945,11039 "/>
</g>

<g fill="#ffffff" fill-opacity="1" stroke="none" transform="matrix(1,0,0,1,0,0)"
font-family="MS Shell Dlg 2" font-size="291.042" font-weight="400" font-style="normal" 
>
<path vector-effect="non-scaling-stroke" fill-rule="evenodd" d="M2945,11289 C2945,11344.8 2899.78,11390 2844,11390 C2788.22,11390 2743,11344.8 2743,11289 C2743,11233.2 2788.22,11188 2844,11188 C2899.78,11188 2945,11233.2 2945,11289 "/>
</g>

<g fill="#ffffff" fill-opacity="1" stroke="none" transform="matrix(1,0,0,1,0,0)"
font-family="MS Shell Dlg 2" font-size="291.042" font-weight="400" font-style="normal" 
>
<path vector-effect="non-scaling-stroke" fill-rule="evenodd" d="M2945,11539 C2945,11594.8 2899.78,11640 2844,11640 C2788.22,11640 2743,11594.8 2743,11539 C2743,11483.2 2788.22,11438 2844,11438 C2899.78,11438 2945,11483.2 2945,11539 "/>
</g>

<g fill="#ffffff" fill-opacity="1" stroke="none" transform="matrix(1,0,0,1,0,0)"
font-family="MS Shell Dlg 2" font-size="291.042" font-weight="400" font-style="normal" 
>
<path vector-effect="non-scaling-stroke" fill-rule="evenodd" d="M2945,11789 C2945,11844.8 2899.78,11890 2844,11890 C2788.22,11890 2743,11844.8 2743,11789 C2743,11733.2 2788.22,11688 2844,11688 C2899.78,11688 2945,11733.2 2945,11789 "/>
</g>

<g fill="#ffffff" fill-opacity="1" stroke="none" transform="matrix(1,0,0,1,0,0)"
font-family="MS Shell Dlg 2" font-size="291.042" font-weight="400" font-style="normal" 
>
<path vector-effect="non-scaling-stroke" fill-rule="evenodd" d="M4349,7039 C4349,7094.78 4303.78,7140 4248,7140 C4192.22,7140 4147,7094.78 4147,7039 C4147,6983.22 4192.22,6938 4248,6938 C4303.78,6938 4349,6983.22 4349,7039 "/>
</g>

<g fill="#ffffff" fill-opacity="1" stroke="none" transform="matrix(1,0,0,1,0,0)"
font-family="MS Shell Dlg 2" font-size="291.042" font-weight="400" font-style="normal" 
>
<path vector-effect="non-scaling-stroke" fill-rule="evenodd" d="M4095,7039 C4095,7094.78 4049.78,7140 3994,7140 C3938.22,7140 3893,7094.78 3893,7039 C3893,6983.22 3938.22,6938 3994,6938 C4049.78,6938 4095,6983.22 4095,7039 "/>
</g>

<g fill="#ffffff" fill-opacity="1" stroke="none" transform="matrix(1,0,0,1,0,0)"
font-family="MS Shell Dlg 2" font-size="291.042" font-weight="400" font-style="normal" 
>
<path vector-effect="non-scaling-stroke" fill-rule="evenodd" d="M1745,5343 C1745,5398.78 1699.78,5444 1644,5444 C1588.22,5444 1543,5398.78 1543,5343 C1543,5287.22 1588.22,5242 1644,5242 C1699.78,5242 1745,5287.22 1745,5343 "/>
</g>

<g fill="#ffffff" fill-opacity="1" stroke="none" transform="matrix(1,0,0,1,0,0)"
font-family="MS Shell Dlg 2" font-size="291.042" font-weight="400" font-style="normal" 
>
<path vector-effect="non-scaling-stroke" fill-rule="evenodd" d="M1745,5139 C1745,5194.78 1699.78,5240 1644,5240 C1588.22,5240 1543,5194.78 1543,5139 C1543,5083.22 1588.22,5038 1644,5038 C1699.78,5038 1745,5083.22 1745,5139 "/>
</g>

<g fill="#ffffff" fill-opacity="1" stroke="none" transform="matrix(1,0,0,1,0,0)"
font-family="MS Shell Dlg 2" font-size="291.042" font-weight="400" font-style="normal" 
>
<path vector-effect="non-scaling-stroke" fill-rule="evenodd" d="M1745,4936 C1745,4991.78 1699.78,5037 1644,5037 C1588.22,5037 1543,4991.78 1543,4936 C1543,4880.22 1588.22,4835 1644,4835 C1699.78,4835 1745,4880.22 1745,4936 "/>
</g>

<g fill="#ffffff" fill-opacity="1" stroke="none" transform="matrix(1,0,0,1,0,0)"
font-family="MS Shell Dlg 2" font-size="291.042" font-weight="400" font-style="normal" 
>
<path vector-effect="non-scaling-stroke" fill-rule="evenodd" d="M4083,5343 C4083,5392.15 4043.15,5432 3994,5432 C3944.85,5432 3905,5392.15 3905,5343 C3905,5293.85 3944.85,5254 3994,5254 C4043.15,5254 4083,5293.85 4083,5343 "/>
</g>

<g fill="#ffffff" fill-opacity="1" stroke="none" transform="matrix(1,0,0,1,0,0)"
font-family="MS Shell Dlg 2" font-size="291.042" font-weight="400" font-style="normal" 
>
<path vector-effect="non-scaling-stroke" fill-rule="evenodd" d="M4083,5139 C4083,5188.15 4043.15,5228 3994,5228 C3944.85,5228 3905,5188.15 3905,5139 C3905,5089.85 3944.85,5050 3994,5050 C4043.15,5050 4083,5089.85 4083,5139 "/>
</g>

<g fill="#ffffff" fill-opacity="1" stroke="none" transform="matrix(1,0,0,1,0,0)"
font-family="MS Shell Dlg 2" font-size="291.042" font-weight="400" font-style="normal" 
>
<path vector-effect="non-scaling-stroke" fill-rule="evenodd" d="M4083,4936 C4083,4985.15 4043.15,5025 3994,5025 C3944.85,5025 3905,4985.15 3905,4936 C3905,4886.85 3944.85,4847 3994,4847 C4043.15,4847 4083,4886.85 4083,4936 "/>
</g>

<g fill="#ffffff" fill-opacity="1" stroke="none" transform="matrix(1,0,0,1,0,0)"
font-family="MS Shell Dlg 2" font-size="291.042" font-weight="400" font-style="normal" 
>
<path vector-effect="non-scaling-stroke" fill-rule="evenodd" d="M1692,3989 C1692,4044.78 1646.78,4090 1591,4090 C1535.22,4090 1490,4044.78 1490,3989 C1490,3933.22 1535.22,3888 1591,3888 C1646.78,3888 1692,3933.22 1692,3989 "/>
</g>

<g fill="#ffffff" fill-opacity="1" stroke="none" transform="matrix(1,0,0,1,0,0)"
font-family="MS Shell Dlg 2" font-size="291.042" font-weight="400" font-style="normal" 
>
<path vector-effect="non-scaling-stroke" fill-rule="evenodd" d="M1895,3989 C1895,4044.78 1849.78,4090 1794,4090 C1738.22,4090 1693,4044.78 1693,3989 C1693,3933.22 1738.22,3888 1794,3888 C1849.78,3888 1895,3933.22 1895,3989 "/>
</g>

<g fill="#ffffff" fill-opacity="1" stroke="none" transform="matrix(1,0,0,1,0,0)"
font-family="MS Shell Dlg 2" font-size="291.042" font-weight="400" font-style="normal" 
>
<path vector-effect="non-scaling-stroke" fill-rule="evenodd" d="M2098,3989 C2098,4044.78 2052.78,4090 1997,4090 C1941.22,4090 1896,4044.78 1896,3989 C1896,3933.22 1941.22,3888 1997,3888 C2052.78,3888 2098,3933.22 2098,3989 "/>
</g>

<g fill="#ffffff" fill-opacity="1" stroke="none" transform="matrix(1,0,0,1,0,0)"
font-family="MS Shell Dlg 2" font-size="291.042" font-weight="400" font-style="normal" 
>
<path vector-effect="non-scaling-stroke" fill-rule="evenodd" d="M4245,4089 C4245,4144.78 4199.78,4190 4144,4190 C4088.22,4190 4043,4144.78 4043,4089 C4043,4033.22 4088.22,3988 4144,3988 C4199.78,3988 4245,4033.22 4245,4089 "/>
</g>

<g fill="#ffffff" fill-opacity="1" stroke="none" transform="matrix(1,0,0,1,0,0)"
font-family="MS Shell Dlg 2" font-size="291.042" font-weight="400" font-style="normal" 
>
<path vector-effect="non-scaling-stroke" fill-rule="evenodd" d="M4042,4089 C4042,4144.78 3996.78,4190 3941,4190 C3885.22,4190 3840,4144.78 3840,4089 C3840,4033.22 3885.22,3988 3941,3988 C3996.78,3988 4042,4033.22 4042,4089 "/>
</g>

<g fill="#ffffff" fill-opacity="1" stroke="none" transform="matrix(1,0,0,1,0,0)"
font-family="MS Shell Dlg 2" font-size="291.042" font-weight="400" font-style="normal" 
>
<path vector-effect="non-scaling-stroke" fill-rule="evenodd" d="M3839,4089 C3839,4144.78 3793.78,4190 3738,4190 C3682.22,4190 3637,4144.78 3637,4089 C3637,4033.22 3682.22,3988 3738,3988 C3793.78,3988 3839,4033.22 3839,4089 "/>
</g>

<g fill="#ffffff" fill-opacity="1" stroke="none" transform="matrix(1,0,0,1,0,0)"
font-family="MS Shell Dlg 2" font-size="291.042" font-weight="400" font-style="normal" 
>
<path vector-effect="non-scaling-stroke" fill-rule="evenodd" d="M4349,8789 C4349,8844.78 4303.78,8890 4248,8890 C4192.22,8890 4147,8844.78 4147,8789 C4147,8733.22 4192.22,8688 4248,8688 C4303.78,8688 4349,8733.22 4349,8789 "/>
</g>

<g fill="#ffffff" fill-opacity="1" stroke="none" transform="matrix(1,0,0,1,0,0)"
font-family="MS Shell Dlg 2" font-size="291.042" font-weight="400" font-style="normal" 
>
<path vector-effect="non-scaling-stroke" fill-rule="evenodd" d="M4095,8789 C4095,8844.78 4049.78,8890 3994,8890 C3938.22,8890 3893,8844.78 3893,8789 C3893,8733.22 3938.22,8688 3994,8688 C4049.78,8688 4095,8733.22 4095,8789 "/>
</g>

<g fill="#ffffff" fill-opacity="1" stroke="none" transform="matrix(1,0,0,1,0,0)"
font-family="MS Shell Dlg 2" font-size="291.042" font-weight="400" font-style="normal" 
>
<path vector-effect="non-scaling-stroke" fill-rule="evenodd" d="M3845,9639 C3845,9694.78 3799.78,9740 3744,9740 C3688.22,9740 3643,9694.78 3643,9639 C3643,9583.22 3688.22,9538 3744,9538 C3799.78,9538 3845,9583.22 3845,9639 "/>
</g>

<g fill="#ffffff" fill-opacity="1" stroke="none" transform="matrix(1,0,0,1,0,0)"
font-family="MS Shell Dlg 2" font-size="291.042" font-weight="400" font-style="normal" 
>
<path vector-effect="non-scaling-stroke" fill-rule="evenodd" d="M3349,8289 C3349,8344.78 3303.78,8390 3248,8390 C3192.22,8390 3147,8344.78 3147,8289 C3147,8233.22 3192.22,8188 3248,8188 C3303.78,8188 3349,8233.22 3349,8289 "/>
</g>

<g fill="#ffffff" fill-opacity="1" stroke="none" transform="matrix(1,0,0,1,0,0)"
font-family="MS Shell Dlg 2" font-size="291.042" font-weight="400" font-style="normal" 
>
<path vector-effect="non-scaling-stroke" fill-rule="evenodd" d="M4365,8289 C4365,8344.78 4319.78,8390 4264,8390 C4208.22,8390 4163,8344.78 4163,8289 C4163,8233.22 4208.22,8188 4264,8188 C4319.78,8188 4365,8233.22 4365,8289 "/>
</g>

<g fill="#ffffff" fill-opacity="1" stroke="none" transform="matrix(1,0,0,1,0,0)"
font-family="MS Shell Dlg 2" font-size="291.042" font-weight="400" font-style="normal" 
>
<path vector-effect="non-scaling-stroke" fill-rule="evenodd" d="M3345,7539 C3345,7594.78 3299.78,7640 3244,7640 C3188.22,7640 3143,7594.78 3143,7539 C3143,7483.22 3188.22,7438 3244,7438 C3299.78,7438 3345,7483.22 3345,7539 "/>
</g>

<g fill="#ffffff" fill-opacity="1" stroke="none" transform="matrix(1,0,0,1,0,0)"
font-family="MS Shell Dlg 2" font-size="291.042" font-weight="400" font-style="normal" 
>
<path vector-effect="non-scaling-stroke" fill-rule="evenodd" d="M4361,7539 C4361,7594.78 4315.78,7640 4260,7640 C4204.22,7640 4159,7594.78 4159,7539 C4159,7483.22 4204.22,7438 4260,7438 C4315.78,7438 4361,7483.22 4361,7539 "/>
</g>

<g fill="#ffffff" fill-opacity="1" stroke="none" transform="matrix(1,0,0,1,0,0)"
font-family="MS Shell Dlg 2" font-size="291.042" font-weight="400" font-style="normal" 
>
<path vector-effect="non-scaling-stroke" fill-rule="evenodd" d="M2958,8039 C2958,8101.96 2906.96,8153 2844,8153 C2781.04,8153 2730,8101.96 2730,8039 C2730,7976.04 2781.04,7925 2844,7925 C2906.96,7925 2958,7976.04 2958,8039 "/>
</g>

<g fill="#ffffff" fill-opacity="1" stroke="none" transform="matrix(1,0,0,1,0,0)"
font-family="MS Shell Dlg 2" font-size="291.042" font-weight="400" font-style="normal" 
>
<path vector-effect="non-scaling-stroke" fill-rule="evenodd" d="M2958,7789 C2958,7851.96 2906.96,7903 2844,7903 C2781.04,7903 2730,7851.96 2730,7789 C2730,7726.04 2781.04,7675 2844,7675 C2906.96,7675 2958,7726.04 2958,7789 "/>
</g>

<g fill="#ffffff" fill-opacity="1" stroke="none" transform="matrix(1,0,0,1,0,0)"
font-family="MS Shell Dlg 2" font-size="291.042" font-weight="400" font-style="normal" 
>
<path vector-effect="non-scaling-stroke" fill-rule="evenodd" d="M2945,9789 C2945,9844.78 2899.78,9890 2844,9890 C2788.22,9890 2743,9844.78 2743,9789 C2743,9733.22 2788.22,9688 2844,9688 C2899.78,9688 2945,9733.22 2945,9789 "/>
</g>

<g fill="#ffffff" fill-opacity="1" stroke="none" transform="matrix(1,0,0,1,0,0)"
font-family="MS Shell Dlg 2" font-size="291.042" font-weight="400" font-style="normal" 
>
<path vector-effect="non-scaling-stroke" fill-rule="evenodd" d="M1408,8039 C1408,8101.96 1356.96,8153 1294,8153 C1231.04,8153 1180,8101.96 1180,8039 C1180,7976.04 1231.04,7925 1294,7925 C1356.96,7925 1408,7976.04 1408,8039 "/>
</g>

<g fill="#ffffff" fill-opacity="1" stroke="none" transform="matrix(1,0,0,1,0,0)"
font-family="MS Shell Dlg 2" font-size="291.042" font-weight="400" font-style="normal" 
>
<path vector-effect="non-scaling-stroke" fill-rule="evenodd" d="M1408,8289 C1408,8351.96 1356.96,8403 1294,8403 C1231.04,8403 1180,8351.96 1180,8289 C1180,8226.04 1231.04,8175 1294,8175 C1356.96,8175 1408,8226.04 1408,8289 "/>
</g>

<g fill="#ffffff" fill-opacity="1" stroke="none" transform="matrix(1,0,0,1,0,0)"
font-family="MS Shell Dlg 2" font-size="291.042" font-weight="400" font-style="normal" 
>
<path vector-effect="non-scaling-stroke" fill-rule="evenodd" d="M2945,9539 C2945,9594.78 2899.78,9640 2844,9640 C2788.22,9640 2743,9594.78 2743,9539 C2743,9483.22 2788.22,9438 2844,9438 C2899.78,9438 2945,9483.22 2945,9539 "/>
</g>

<g fill="#ffffff" fill-opacity="1" stroke="none" transform="matrix(1,0,0,1,0,0)"
font-family="MS Shell Dlg 2" font-size="291.042" font-weight="400" font-style="normal" 
>
<path vector-effect="non-scaling-stroke" fill-rule="evenodd" d="M2945,9789 C2945,9844.78 2899.78,9890 2844,9890 C2788.22,9890 2743,9844.78 2743,9789 C2743,9733.22 2788.22,9688 2844,9688 C2899.78,9688 2945,9733.22 2945,9789 "/>
</g>

<g fill="#ffffff" fill-opacity="1" stroke="none" transform="matrix(1,0,0,1,0,0)"
font-family="MS Shell Dlg 2" font-size="291.042" font-weight="400" font-style="normal" 
>
<path vector-effect="non-scaling-stroke" fill-rule="evenodd" d="M2958,9539 C2958,9601.96 2906.96,9653 2844,9653 C2781.04,9653 2730,9601.96 2730,9539 C2730,9476.04 2781.04,9425 2844,9425 C2906.96,9425 2958,9476.04 2958,9539 "/>
</g>

<g fill="#ffffff" fill-opacity="1" stroke="none" transform="matrix(1,0,0,1,0,0)"
font-family="MS Shell Dlg 2" font-size="291.042" font-weight="400" font-style="normal" 
>
<path vector-effect="non-scaling-stroke" fill-rule="evenodd" d="M2958,10539 C2958,10602 2906.96,10653 2844,10653 C2781.04,10653 2730,10602 2730,10539 C2730,10476 2781.04,10425 2844,10425 C2906.96,10425 2958,10476 2958,10539 "/>
</g>

<g fill="#ffffff" fill-opacity="1" stroke="none" transform="matrix(1,0,0,1,0,0)"
font-family="MS Shell Dlg 2" font-size="291.042" font-weight="400" font-style="normal" 
>
<path vector-effect="non-scaling-stroke" fill-rule="evenodd" d="M2958,10789 C2958,10852 2906.96,10903 2844,10903 C2781.04,10903 2730,10852 2730,10789 C2730,10726 2781.04,10675 2844,10675 C2906.96,10675 2958,10726 2958,10789 "/>
</g>

<g fill="#ffffff" fill-opacity="1" stroke="none" transform="matrix(1,0,0,1,0,0)"
font-family="MS Shell Dlg 2" font-size="291.042" font-weight="400" font-style="normal" 
>
<path vector-effect="non-scaling-stroke" fill-rule="evenodd" d="M3858,10089 C3858,10152 3806.96,10203 3744,10203 C3681.04,10203 3630,10152 3630,10089 C3630,10026 3681.04,9975 3744,9975 C3806.96,9975 3858,10026 3858,10089 "/>
</g>

<g fill="#ffffff" fill-opacity="1" stroke="none" transform="matrix(1,0,0,1,0,0)"
font-family="MS Shell Dlg 2" font-size="291.042" font-weight="400" font-style="normal" 
>
<path vector-effect="non-scaling-stroke" fill-rule="evenodd" d="M1245,3989 C1245,4044.78 1199.78,4090 1144,4090 C1088.22,4090 1043,4044.78 1043,3989 C1043,3933.22 1088.22,3888 1144,3888 C1199.78,3888 1245,3933.22 1245,3989 "/>
</g>

<g fill="#ffffff" fill-opacity="1" stroke="none" transform="matrix(1,0,0,1,0,0)"
font-family="MS Shell Dlg 2" font-size="291.042" font-weight="400" font-style="normal" 
>
<path vector-effect="non-scaling-stroke" fill-rule="evenodd" d="M1245,3589 C1245,3644.78 1199.78,3690 1144,3690 C1088.22,3690 1043,3644.78 1043,3589 C1043,3533.22 1088.22,3488 1144,3488 C1199.78,3488 1245,3533.22 1245,3589 "/>
</g>

<g fill="#ffffff" fill-opacity="1" stroke="none" transform="matrix(1,0,0,1,0,0)"
font-family="MS Shell Dlg 2" font-size="291.042" font-weight="400" font-style="normal" 
>
<path vector-effect="non-scaling-stroke" fill-rule="evenodd" d="M4345,11989 C4345,12044.8 4299.78,12090 4244,12090 C4188.22,12090 4143,12044.8 4143,11989 C4143,11933.2 4188.22,11888 4244,11888 C4299.78,11888 4345,11933.2 4345,11989 "/>
</g>

<g fill="#ffffff" fill-opacity="1" stroke="none" transform="matrix(1,0,0,1,0,0)"
font-family="MS Shell Dlg 2" font-size="291.042" font-weight="400" font-style="normal" 
>
<path vector-effect="non-scaling-stroke" fill-rule="evenodd" d="M4345,12489 C4345,12544.8 4299.78,12590 4244,12590 C4188.22,12590 4143,12544.8 4143,12489 C4143,12433.2 4188.22,12388 4244,12388 C4299.78,12388 4345,12433.2 4345,12489 "/>
</g>

<g fill="#ffffff" fill-opacity="1" stroke="none" transform="matrix(1,0,0,1,0,0)"
font-family="MS Shell Dlg 2" font-size="291.042" font-weight="400" font-style="normal" 
>
<path vector-effect="non-scaling-stroke" fill-rule="evenodd" d="M2761,5989 C2761,6044.78 2715.78,6090 2660,6090 C2604.22,6090 2559,6044.78 2559,5989 C2559,5933.22 2604.22,5888 2660,5888 C2715.78,5888 2761,5933.22 2761,5989 "/>
</g>

<g fill="#ffffff" fill-opacity="1" stroke="none" transform="matrix(1,0,0,1,0,0)"
font-family="MS Shell Dlg 2" font-size="291.042" font-weight="400" font-style="normal" 
>
<path vector-effect="non-scaling-stroke" fill-rule="evenodd" d="M1745,5989 C1745,6044.78 1699.78,6090 1644,6090 C1588.22,6090 1543,6044.78 1543,5989 C1543,5933.22 1588.22,5888 1644,5888 C1699.78,5888 1745,5933.22 1745,5989 "/>
</g>

<g fill="#ffffff" fill-opacity="1" stroke="none" transform="matrix(1,0,0,1,0,0)"
font-family="MS Shell Dlg 2" font-size="291.042" font-weight="400" font-style="normal" 
>
<path vector-effect="non-scaling-stroke" fill-rule="evenodd" d="M3345,5989 C3345,6044.78 3299.78,6090 3244,6090 C3188.22,6090 3143,6044.78 3143,5989 C3143,5933.22 3188.22,5888 3244,5888 C3299.78,5888 3345,5933.22 3345,5989 "/>
</g>

<g fill="#ffffff" fill-opacity="1" stroke="none" transform="matrix(1,0,0,1,0,0)"
font-family="MS Shell Dlg 2" font-size="291.042" font-weight="400" font-style="normal" 
>
<path vector-effect="non-scaling-stroke" fill-rule="evenodd" d="M4361,5989 C4361,6044.78 4315.78,6090 4260,6090 C4204.22,6090 4159,6044.78 4159,5989 C4159,5933.22 4204.22,5888 4260,5888 C4315.78,5888 4361,5933.22 4361,5989 "/>
</g>

<g fill="#ffffff" fill-opacity="1" stroke="none" transform="matrix(1,0,0,1,0,0)"
font-family="MS Shell Dlg 2" font-size="291.042" font-weight="400" font-style="normal" 
>
<path vector-effect="non-scaling-stroke" fill-rule="evenodd" d="M2645,2473 C2645,2528.78 2599.78,2574 2544,2574 C2488.22,2574 2443,2528.78 2443,2473 C2443,2417.22 2488.22,2372 2544,2372 C2599.78,2372 2645,2417.22 2645,2473 "/>
</g>

<g fill="#ffffff" fill-opacity="1" stroke="none" transform="matrix(1,0,0,1,0,0)"
font-family="MS Shell Dlg 2" font-size="291.042" font-weight="400" font-style="normal" 
>
<path vector-effect="non-scaling-stroke" fill-rule="evenodd" d="M2645,3489 C2645,3544.78 2599.78,3590 2544,3590 C2488.22,3590 2443,3544.78 2443,3489 C2443,3433.22 2488.22,3388 2544,3388 C2599.78,3388 2645,3433.22 2645,3489 "/>
</g>

<g fill="#ffffff" fill-opacity="1" stroke="none" transform="matrix(1,0,0,1,0,0)"
font-family="MS Shell Dlg 2" font-size="291.042" font-weight="400" font-style="normal" 
>
<path vector-effect="non-scaling-stroke" fill-rule="evenodd" d="M3545,2489 C3545,2544.78 3499.78,2590 3444,2590 C3388.22,2590 3343,2544.78 3343,2489 C3343,2433.22 3388.22,2388 3444,2388 C3499.78,2388 3545,2433.22 3545,2489 "/>
</g>

<g fill="#ffffff" fill-opacity="1" stroke="none" transform="matrix(1,0,0,1,0,0)"
font-family="MS Shell Dlg 2" font-size="291.042" font-weight="400" font-style="normal" 
>
<path vector-effect="non-scaling-stroke" fill-rule="evenodd" d="M3545,3505 C3545,3560.78 3499.78,3606 3444,3606 C3388.22,3606 3343,3560.78 3343,3505 C3343,3449.22 3388.22,3404 3444,3404 C3499.78,3404 3545,3449.22 3545,3505 "/>
</g>

<g fill="#ffffff" fill-opacity="1" stroke="none" transform="matrix(1,0,0,1,0,0)"
font-family="MS Shell Dlg 2" font-size="291.042" font-weight="400" font-style="normal" 
>
<path vector-effect="non-scaling-stroke" fill-rule="evenodd" d="M2145,2473 C2145,2528.78 2099.78,2574 2044,2574 C1988.22,2574 1943,2528.78 1943,2473 C1943,2417.22 1988.22,2372 2044,2372 C2099.78,2372 2145,2417.22 2145,2473 "/>
</g>

<g fill="#ffffff" fill-opacity="1" stroke="none" transform="matrix(1,0,0,1,0,0)"
font-family="MS Shell Dlg 2" font-size="291.042" font-weight="400" font-style="normal" 
>
<path vector-effect="non-scaling-stroke" fill-rule="evenodd" d="M2145,3489 C2145,3544.78 2099.78,3590 2044,3590 C1988.22,3590 1943,3544.78 1943,3489 C1943,3433.22 1988.22,3388 2044,3388 C2099.78,3388 2145,3433.22 2145,3489 "/>
</g>

<g fill="#ffffff" fill-opacity="1" stroke="none" transform="matrix(1,0,0,1,0,0)"
font-family="MS Shell Dlg 2" font-size="291.042" font-weight="400" font-style="normal" 
>
<path vector-effect="non-scaling-stroke" fill-rule="evenodd" d="M3945,2473 C3945,2528.78 3899.78,2574 3844,2574 C3788.22,2574 3743,2528.78 3743,2473 C3743,2417.22 3788.22,2372 3844,2372 C3899.78,2372 3945,2417.22 3945,2473 "/>
</g>

<g fill="#ffffff" fill-opacity="1" stroke="none" transform="matrix(1,0,0,1,0,0)"
font-family="MS Shell Dlg 2" font-size="291.042" font-weight="400" font-style="normal" 
>
<path vector-effect="non-scaling-stroke" fill-rule="evenodd" d="M3945,3489 C3945,3544.78 3899.78,3590 3844,3590 C3788.22,3590 3743,3544.78 3743,3489 C3743,3433.22 3788.22,3388 3844,3388 C3899.78,3388 3945,3433.22 3945,3489 "/>
</g>

<g fill="#ffffff" fill-opacity="1" stroke="none" transform="matrix(1,0,0,1,0,0)"
font-family="MS Shell Dlg 2" font-size="291.042" font-weight="400" font-style="normal" 
>
<path vector-effect="non-scaling-stroke" fill-rule="evenodd" d="M4358,10989 C4358,11052 4306.96,11103 4244,11103 C4181.04,11103 4130,11052 4130,10989 C4130,10926 4181.04,10875 4244,10875 C4306.96,10875 4358,10926 4358,10989 "/>
</g>

<g fill="#ffffff" fill-opacity="1" stroke="none" transform="matrix(1,0,0,1,0,0)"
font-family="MS Shell Dlg 2" font-size="291.042" font-weight="400" font-style="normal" 
>
<path vector-effect="non-scaling-stroke" fill-rule="evenodd" d="M4358,10589 C4358,10652 4306.96,10703 4244,10703 C4181.04,10703 4130,10652 4130,10589 C4130,10526 4181.04,10475 4244,10475 C4306.96,10475 4358,10526 4358,10589 "/>
</g>

<g fill="#ffffff" fill-opacity="1" stroke="none" transform="matrix(1,0,0,1,0,0)"
font-family="MS Shell Dlg 2" font-size="291.042" font-weight="400" font-style="normal" 
>
<path vector-effect="non-scaling-stroke" fill-rule="evenodd" d="M2958,11539 C2958,11602 2906.96,11653 2844,11653 C2781.04,11653 2730,11602 2730,11539 C2730,11476 2781.04,11425 2844,11425 C2906.96,11425 2958,11476 2958,11539 "/>
</g>

<g fill="#ffffff" fill-opacity="1" stroke="none" transform="matrix(1,0,0,1,0,0)"
font-family="MS Shell Dlg 2" font-size="291.042" font-weight="400" font-style="normal" 
>
<path vector-effect="non-scaling-stroke" fill-rule="evenodd" d="M2958,11289 C2958,11352 2906.96,11403 2844,11403 C2781.04,11403 2730,11352 2730,11289 C2730,11226 2781.04,11175 2844,11175 C2906.96,11175 2958,11226 2958,11289 "/>
</g>

<g fill="#ffffff" fill-opacity="1" stroke="none" transform="matrix(1,0,0,1,0,0)"
font-family="MS Shell Dlg 2" font-size="291.042" font-weight="400" font-style="normal" 
>
<path vector-effect="non-scaling-stroke" fill-rule="evenodd" d="M3945,2089 C3945,2144.78 3899.78,2190 3844,2190 C3788.22,2190 3743,2144.78 3743,2089 C3743,2033.22 3788.22,1988 3844,1988 C3899.78,1988 3945,2033.22 3945,2089 "/>
</g>

<g fill="#ffffff" fill-opacity="1" stroke="none" transform="matrix(1,0,0,1,0,0)"
font-family="MS Shell Dlg 2" font-size="291.042" font-weight="400" font-style="normal" 
>
<path vector-effect="non-scaling-stroke" fill-rule="evenodd" d="M4345,2489 C4345,2544.78 4299.78,2590 4244,2590 C4188.22,2590 4143,2544.78 4143,2489 C4143,2433.22 4188.22,2388 4244,2388 C4299.78,2388 4345,2433.22 4345,2489 "/>
</g>

<g fill="#ffffff" fill-opacity="1" stroke="none" transform="matrix(1,0,0,1,0,0)"
font-family="MS Shell Dlg 2" font-size="291.042" font-weight="400" font-style="normal" 
>
<path vector-effect="non-scaling-stroke" fill-rule="evenodd" d="M1545,2789 C1545,2844.78 1499.78,2890 1444,2890 C1388.22,2890 1343,2844.78 1343,2789 C1343,2733.22 1388.22,2688 1444,2688 C1499.78,2688 1545,2733.22 1545,2789 "/>
</g>

<g fill="#ffffff" fill-opacity="1" stroke="none" transform="matrix(1,0,0,1,0,0)"
font-family="MS Shell Dlg 2" font-size="291.042" font-weight="400" font-style="normal" 
>
<path vector-effect="non-scaling-stroke" fill-rule="evenodd" d="M1245,3189 C1245,3244.78 1199.78,3290 1144,3290 C1088.22,3290 1043,3244.78 1043,3189 C1043,3133.22 1088.22,3088 1144,3088 C1199.78,3088 1245,3133.22 1245,3189 "/>
</g>

<g fill="#ffffff" fill-opacity="1" stroke="none" transform="matrix(1,0,0,1,0,0)"
font-family="MS Shell Dlg 2" font-size="291.042" font-weight="400" font-style="normal" 
>
<path vector-effect="non-scaling-stroke" fill-rule="evenodd" d="M4345,2089 C4345,2144.78 4299.78,2190 4244,2190 C4188.22,2190 4143,2144.78 4143,2089 C4143,2033.22 4188.22,1988 4244,1988 C4299.78,1988 4345,2033.22 4345,2089 "/>
</g>

<g fill="#ffffff" fill-opacity="1" stroke="none" transform="matrix(1,0,0,1,0,0)"
font-family="MS Shell Dlg 2" font-size="291.042" font-weight="400" font-style="normal" 
>
<path vector-effect="non-scaling-stroke" fill-rule="evenodd" d="M3545,2089 C3545,2144.78 3499.78,2190 3444,2190 C3388.22,2190 3343,2144.78 3343,2089 C3343,2033.22 3388.22,1988 3444,1988 C3499.78,1988 3545,2033.22 3545,2089 "/>
</g>

<g fill="none" stroke="#ffffff" stroke-opacity="1" stroke-width="20" stroke-linecap="round" stroke-linejoin="bevel" transform="matrix(1,0,0,1,0,0)"
font-family="MS Shell Dlg 2" font-size="291.042" font-weight="400" font-style="normal" 
>
<path vector-effect="none" fill-rule="evenodd" d="M744,1889 L4494,1889 L4494,12689 L744,12689 L744,1889"/>
</g>

<g fill="none" stroke="#ffffff" stroke-opacity="1" stroke-width="20" stroke-linecap="round" stroke-linejoin="bevel" transform="matrix(1,0,0,1,0,0)"
font-family="MS Shell Dlg 2" font-size="291.042" font-weight="400" font-style="normal" 
>
<path vector-effect="none" fill-rule="evenodd" d="M744,1889 L4494,1889 L4494,12689 L744,12689 L744,1889"/>
</g>
</g>
</svg>
